<svg width="3181" height="1529" xmlns="http://www.w3.org/2000/svg" stroke="null" style="vector-effect: non-scaling-stroke;">
 <title stroke="null" style="vector-effect: non-scaling-stroke;">course1</title>

 <g stroke="null" class="layer">
  <title stroke="null">Easy As Pie, 4</title>
  <rect stroke="#000" fill="#8bb8be" height="47.99994" id="svg_231" width="76.85783" x="1134.03521" y="692.45045"/>
  <rect transform="rotate(65 2813.33 726.579)" stroke="#000" fill="#5b8b95" height="80.48366" id="svg_230" width="40" x="2793.33273" y="686.33751"/>
  <rect transform="rotate(60 2853.56 706.077)" stroke="#000" fill="#5b8b95" height="40.24958" id="svg_229" width="40" x="2833.56486" y="685.9527"/>
  <rect transform="rotate(55 2869.56 696.078)" stroke="#000" fill="#5b8b95" height="40.24958" id="svg_228" width="40" x="2849.56481" y="675.95273"/>
  <rect transform="rotate(50 2897.56 674.078)" stroke="#000" fill="#5b8b95" height="40.24958" id="svg_227" width="40" x="2877.56472" y="653.9528"/>
  <rect transform="rotate(45 2913.56 660.078)" stroke="#000" fill="#5b8b95" height="40.24958" id="svg_226" width="40" x="2893.56467" y="639.95285"/>
  <rect transform="rotate(40 2921.56 650.078)" stroke="#000" fill="#5b8b95" height="40.24958" id="svg_225" width="40" x="2901.56464" y="629.95288"/>
  <rect transform="rotate(30 2941.38 624.662)" stroke="#000" fill="#5b8b95" height="40.4181" id="svg_224" width="40" x="2921.38017" y="604.45276"/>
  <rect transform="rotate(25 2949.16 606.048)" stroke="#000" fill="#5b8b95" height="44.93371" id="svg_223" width="40" x="2929.15753" y="583.58096"/>
  <rect transform="rotate(20 2956.21 587.048)" stroke="#000" fill="#5b8b95" height="43.80968" id="svg_222" width="40" x="2936.2105" y="565.14312"/>
  <rect transform="rotate(15 2961.18 564.858)" stroke="#000" fill="#5b8b95" height="73.20261" id="svg_221" width="40" x="2941.18396" y="528.2569"/>
  <rect transform="rotate(10 2970.91 514.805)" stroke="#000" fill="#5b8b95" height="106.21984" id="svg_220" width="40" x="2950.91116" y="461.69462"/>
  <rect transform="rotate(5 2981.2 442.669)" stroke="#000" fill="#5b8b95" height="78.61152" id="svg_219" width="40" x="2961.19822" y="403.36339"/>
  <path stroke="#000" id="svg_218" d="m2963.96802,14.61241l40,0l0,407.99948l-40,0l0,-407.99948z" opacity="undefined" fill="#5b8b95"/>
  <rect stroke="#000" fill="#8bb8be" height="134.00007" id="svg_202" width="36" x="2636.34102" y="858.04869"/>
  <rect stroke="#000" fill="#8bb8be" height="30" id="svg_42" width="595.99917" x="2079.8676" y="928.06535"/>
  <rect stroke="#000" fill="#8bb8be" height="34.00005" id="svg_70" width="590.85676" x="1189.05134" y="397.94281"/>
  <rect stroke="#000" fill="#5b8b95" height="28.00004" id="svg_69" width="591.71391" x="1135.99944" y="429.94281"/>
  <rect stroke="#000" fill="#5b8b95" height="37.00002" id="svg_76" width="571.71397" x="1100.38899" y="452.94281"/>
  <rect stroke="#000" style="vector-effect: non-scaling-stroke;" transform="rotate(9.22859 2620.85 565.943)" fill="#5b8b95" height="40" id="svg_198" width="161.71545" x="2539.99507" y="545.94262"/>
  <rect stroke="#000" style="vector-effect: non-scaling-stroke;" fill="#5b8b95" height="40" id="svg_197" width="161.71545" x="2203.99617" y="553.94259"/>
  <rect stroke="#000" style="vector-effect: non-scaling-stroke;" fill="#8bb8be" height="57.99997" id="svg_195" width="40.85858" x="2597.04682" y="345.94297"/>
  <rect stroke="#000" style="vector-effect: non-scaling-stroke;" fill="#a5e306" height="24.00008" id="svg_189" width="62.00019" x="2583.1125" y="333.94293"/>
  <rect stroke="#000" fill="#8bb8be" height="46.00001" id="svg_194" width="214.858" x="2455.04772" y="449.94262"/>
  <rect stroke="#000" style="vector-effect: non-scaling-stroke;" fill="#5b8b95" height="41.99999" id="svg_193" width="263.71499" x="2407.99525" y="493.9426"/>
  <rect stroke="#000" style="vector-effect: non-scaling-stroke;" fill="#8bb8be" height="77.99991" id="svg_192" width="98.85839" x="2565.0469" y="381.94285"/>
  <rect stroke="#000" style="vector-effect: non-scaling-stroke;" fill="#8bb8be" height="34.00005" id="svg_173" width="162.85816" x="1863.04918" y="459.9426"/>
  <rect stroke="#000" style="vector-effect: non-scaling-stroke;" fill="#5b8b95" height="34.00002" id="svg_172" width="373.71463" x="1809.99723" y="495.9426"/>
  <rect stroke="#000" style="vector-effect: non-scaling-stroke;" fill="#5b8b95" height="23.00006" id="svg_171" width="907.71296" x="1774.38676" y="528.94256"/>
  <rect stroke="#000" style="vector-effect: non-scaling-stroke;" transform="rotate(-35 2404.05 506.142)" fill="#a5e306" height="35.0718" id="svg_186" width="175.97482" x="2316.06085" y="488.60564"/>
  <rect stroke="#000" fill="#a5e306" height="30" id="svg_104" width="213.71427" x="1204.32601" y="746.2077"/>
  <ellipse stroke="#000" style="vector-effect: non-scaling-stroke;" class="tree1" cx="1420.42308" cy="730.20775" fill="#000000" id="svg_2" rx="20" ry="20"/>
  <rect stroke="#000" style="vector-effect: non-scaling-stroke;" transform="rotate(25 1408.87 755.57)" fill="#a5e306" height="41.84303" id="svg_157" width="169.5018" x="1324.1175" y="734.64813"/>
  <rect stroke="#000" style="vector-effect: non-scaling-stroke;" fill="#487d8f" height="267.99964" id="svg_163" width="36" x="1012.34116" y="638.04939"/>
  <rect stroke="#000" fill="#8bb8be" height="61.99989" id="svg_152" width="146.85761" x="1020.03557" y="662.45055"/>
  <rect stroke="#000" fill="#8bb8be" height="32" id="svg_116" width="316.85702" x="1020.03556" y="714.45038"/>
  <rect stroke="#000" fill="#8bb8be" height="67.99988" id="svg_111" width="480.85651" x="1024.03556" y="776.60993"/>
  <rect stroke="#000" fill="#8bb8be" height="399.99953" id="svg_19" width="40" x="2953.96803" y="12.61241"/>
  <rect stroke="#000" style="vector-effect: non-scaling-stroke;" fill="#487d8f" height="40" id="svg_17" width="60" x="585.76599" y="1239.72461"/>
  <ellipse stroke="#000" fill="#ff0000" cx="2370.47556" cy="893.844" id="svg_56" rx="19" ry="19"/>
  <ellipse stroke="#000" class="grass1" cx="501.97769" cy="476.61141" fill="#000000" id="svg_5" rx="20" ry="20"/>
  <ellipse stroke="#000" class="tree1" cx="321.97769" cy="476.61141" fill="#000000" id="svg_3" rx="20" ry="20"/>
  <rect stroke="#000" style="vector-effect: non-scaling-stroke;" fill="#487d8f" height="30" id="svg_89" width="497.99991" x="1022.89204" y="877.1813"/>
  <rect stroke="#000" style="vector-effect: non-scaling-stroke;" fill="#487d8f" height="28.00004" id="svg_147" width="52.00003" x="481.6417" y="586.5788"/>
  <rect stroke="#000" fill="#487d8f" height="40" id="svg_24" width="348.57132" x="133.40625" y="572.26627"/>
  <rect stroke="#000" fill="#5b8b95" height="40" id="svg_23" width="545.71402" x="51.97769" y="556.61141"/>
  <ellipse stroke="#000" cx="371.97769" cy="370.61141" fill="#00ff00" id="svg_16" rx="20" ry="20"/>
  <rect stroke="#000" fill="#8bb8be" height="50" id="svg_10" width="562.85688" x="51.97769" y="506.61141"/>
  <rect stroke="#000" style="vector-effect: non-scaling-stroke;" transform="rotate(30 193.18 467.759)" fill="#a5e306" height="56.19613" id="svg_133" width="125.39247" x="130.48371" y="439.66118"/>
  <rect stroke="#000" style="vector-effect: non-scaling-stroke;" fill="#a5e306" height="69.99993" id="svg_134" width="98.00007" x="54.00161" y="413.94308"/>
  <rect stroke="#000" style="vector-effect: non-scaling-stroke;" transform="rotate(39 101.734 481.651)" fill="#8bb8be" height="30.22139" id="svg_135" width="37.73366" x="82.8671" y="466.53987"/>
  <rect stroke="#000" fill="#a5e306" height="30" id="svg_9" width="580" x="51.97769" y="476.61141"/>
  <rect stroke="#000" fill="#5b8b95" height="38" id="svg_11" opacity="0.9" width="40" x="175.88" y="34"/>
  <rect stroke="#000" fill="#487d8f" height="37" id="svg_15" opacity="0.9" width="38" x="225.88" y="34"/>
  <rect stroke="#000" fill="#8bb8be" height="36" id="svg_21" opacity="0.9" width="40" x="125.88" y="34"/>
  <rect stroke="#000" fill="#a5e306" height="38" id="svg_22" opacity="0.9" width="38" x="269.32" y="32.71"/>
  <rect stroke="#000" style="vector-effect: non-scaling-stroke;" fill="#a5e306" height="50" id="svg_35" width="100" x="151.97769" y="476.61141"/>
  <rect stroke="#000" fill="#a8cbcc" height="39" id="svg_1" opacity="0.9" width="41" x="78" y="32"/>
  <rect stroke="#000" style="vector-effect: non-scaling-stroke;" transform="rotate(25 1546.48 799.271)" fill="#a5e306" height="30" id="svg_158" width="70.42874" x="1511.26069" y="784.26769"/>
  <rect stroke="#000" style="vector-effect: non-scaling-stroke;" fill="#a5e306" height="40" id="svg_109" width="100.63178" x="1421.56728" y="770.93014"/>
  <rect stroke="#000" style="vector-effect: non-scaling-stroke;" fill="#a5e306" height="30" id="svg_13" width="157.71446" x="1028.70971" y="746.2077"/>
  <rect stroke="#000" style="vector-effect: non-scaling-stroke;" fill="#a5e306" height="50" id="svg_26" width="120" x="391.97769" y="476.61141"/>
  <rect stroke="#000" fill="#487d8f" height="31.99999" id="svg_40" width="455.99946" x="2210.62209" y="986.06536"/>
  <rect stroke="#000" fill="#5b8b95" height="46" id="svg_41" width="501.99934" x="2169.26512" y="952.06538"/>
  <rect transform="rotate(-15 2119.34 926.848)" stroke="#000" fill="#a5e306" height="34.22273" id="svg_90" width="89.30563" x="2074.69034" y="909.73698"/>
  <rect stroke="#000" style="vector-effect: non-scaling-stroke;" fill="#8bb8be" height="34" id="svg_31" width="261.99999" x="2400.46241" y="948.06536"/>
  <ellipse stroke="#000" class="grass2" cx="2554.37351" cy="892.06536" fill="#000000" id="svg_18" rx="20" ry="20"/>
  <rect stroke="#000" fill="#a5e306" height="30" id="svg_43" width="309.99971" x="2362.39134" y="898.06535"/>
  <rect stroke="#000" style="vector-effect: non-scaling-stroke;" fill="#a5e306" height="40" id="svg_44" width="14.00028" x="1019.76125" y="746.2077"/>
  <rect stroke="#000" fill="#a5e306" height="54" id="svg_46" width="70" x="2350.39136" y="898.06535"/>
  <rect stroke="#000" fill="#a5e306" height="50" id="svg_47" width="70" x="2468.39136" y="898.06535"/>
  <rect stroke="#000" style="vector-effect: non-scaling-stroke;" fill="#487d8f" height="22.00006" id="svg_28" width="52.00003" x="2627.70793" y="850.57794"/>
  <rect stroke="#000" fill="#a5e306" height="30" id="svg_27" width="64.00005" x="2624.03249" y="836.57797"/>
  <rect stroke="#000" fill="#ff7f00" height="38" id="svg_30" opacity="0.9" width="38" x="316.5" y="32.5"/>
  <rect stroke="#000" fill="#f7ba3e" height="38" id="svg_159" opacity="0.9" width="38" x="390.5" y="31.5"/>
  <text stroke="#000" fill="#000000" font-family="Serif" font-size="24" id="svg_160" stroke-width="0" text-anchor="middle" x="407" xml:space="preserve" y="25">Sand</text>
  <rect stroke="#000" fill="#0000ff" height="38" id="svg_161" opacity="0.9" width="38" x="484.5" y="30.5"/>
  <text stroke="#000" fill="#000000" font-family="Serif" font-size="24" id="svg_162" stroke-width="0" text-anchor="middle" x="498" xml:space="preserve" y="24.5">Spinner</text>
  <rect stroke="#000" fill="#00ffff" height="38" id="svg_164" opacity="0.9" width="38" x="579.5" y="32.5"/>
  <text stroke="#000" fill="#000000" font-family="Serif" font-size="24" id="svg_165" stroke-width="0" text-anchor="middle" x="593.01" xml:space="preserve" y="24.5">Water</text>
  <rect stroke="#000" fill="#ff00ff" height="38" id="svg_166" opacity="0.9" width="38" x="655.5" y="44.49994"/>
  <text stroke="#000" fill="#000000" font-family="Serif" font-size="24" id="svg_167" stroke-width="0" text-anchor="middle" x="676.01" xml:space="preserve" y="26.5">Wood</text>
  <rect stroke="#000" style="vector-effect: non-scaling-stroke;" fill="#ffff00" height="38" id="svg_168" opacity="0.9" width="38" x="729.5" y="46.49994"/>
  <text stroke="#000" fill="#000000" font-family="Serif" font-size="24" id="svg_169" stroke-width="0" text-anchor="middle" x="752" xml:space="preserve" y="25.5">Bouncer</text>
  <rect stroke="#000" fill="#a5e306" height="60.53583" id="svg_14" width="208.92859" x="2157.14286" y="898.76351"/>
  <rect stroke="#000" fill="#a5e306" height="50" id="svg_45" width="70" x="1084.42418" y="746.2077"/>
  <ellipse stroke="#000" class="grass1" cx="993.99894" cy="1159.94064" fill="#000000" id="svg_57" rx="20" ry="20"/>
  <ellipse stroke="#000" class="tree1" cx="813.99894" cy="1159.94064" fill="#000000" id="svg_58" rx="20" ry="20"/>
  <rect stroke="#000" fill="#487d8f" height="40" id="svg_59" width="630.57135" x="655.49883" y="1255.5955"/>
  <rect stroke="#000" fill="#5b8b95" height="48" id="svg_60" width="661.71404" x="597.99895" y="1231.94065"/>
  <ellipse stroke="#000" fill="#a5e306" cx="593.99894" cy="1138.84317" id="svg_78" rx="44" ry="44"/>
  <rect stroke="#000" fill="#8bb8be" height="50" id="svg_61" width="628.85689" x="567.99894" y="1187.94064"/>
  <rect stroke="#000" fill="#a5e306" height="30" id="svg_62" width="614" x="543.99894" y="1159.94064"/>
  <rect stroke="#000" fill="#a5e306" height="50" id="svg_63" width="100" x="643.99894" y="1159.94064"/>
  <rect stroke="#000" style="vector-effect: non-scaling-stroke;" fill="#a5e306" height="50" id="svg_64" width="120" x="883.99894" y="1159.94064"/>
  <rect transform="rotate(30 1223.96 1227.93)" stroke="#000" fill="#a5e306" height="50" id="svg_65" width="179.96151" x="1133.98228" y="1202.93099"/>
  <rect stroke="#000" style="vector-effect: non-scaling-stroke;" fill="#487d8f" height="30" id="svg_96" width="841.99908" x="1024.90249" y="855.1813"/>
  <rect stroke="#000" style="vector-effect: non-scaling-stroke;" fill="#487d8f" height="30" id="svg_97" width="304.00051" x="1492.9014" y="877.1813"/>
  <rect stroke="#000" style="vector-effect: non-scaling-stroke;" fill="#a5e306" height="40" id="svg_101" width="222.5174" x="1501.38886" y="798.73921"/>
  <rect stroke="#000" style="vector-effect: non-scaling-stroke;" fill="#5b8b95" height="30" id="svg_102" width="78.28641" x="1674.61571" y="825.1813"/>
  <rect stroke="#000" fill="#a5e306" height="40" id="svg_105" width="100" x="1185.37748" y="746.2077"/>
  <rect stroke="#000" style="vector-effect: non-scaling-stroke;" fill="#a5e306" height="28" id="svg_108" width="94.5176" x="1808.82709" y="826.73921"/>
  <rect stroke="#000" style="vector-effect: non-scaling-stroke;" transform="rotate(17 1767.34 826.541)" fill="#a5e306" height="23.52964" id="svg_110" width="100.63178" x="1717.02746" y="814.77622"/>
  <rect stroke="#000" style="vector-effect: non-scaling-stroke;" fill="#5b8b95" height="30" id="svg_8" width="786.28423" x="1026.60687" y="835.18127"/>
  <rect stroke="#000" fill="#a5e306" height="35.0718" id="svg_199" width="596.77834" x="1032.03491" y="489.13754"/>
  <rect transform="rotate(-30 1718.74 453.916)" stroke="#000" fill="#a5e306" height="35.0718" id="svg_200" width="235.79879" x="1600.8446" y="436.38057"/>
  <ellipse stroke="#000" class="grass1" cx="1555.11617" cy="369.94281" fill="#000000" id="svg_66" rx="20" ry="20"/>
  <ellipse stroke="#000" class="tree1" cx="1375.11617" cy="369.94281" fill="#000000" id="svg_67" rx="20" ry="20"/>
  <rect stroke="#000" style="vector-effect: non-scaling-stroke;" fill="#a5e306" height="30" id="svg_71" width="558.00017" x="1244.48189" y="365.94282"/>
  <rect stroke="#000" transform="rotate(-30 1138.42 446.674)" fill="#a5e306" height="35.0718" id="svg_74" width="264.77945" x="1006.03507" y="429.13774"/>
  <rect stroke="#000" style="vector-effect: non-scaling-stroke;" fill="#8bb8be" height="227.99977" id="svg_136" width="36" x="490.34288" y="602.0495"/>
  <rect stroke="#000" style="vector-effect: non-scaling-stroke;" fill="#f7ba3e" x="525.82377" y="766.0927" width="261.99998" height="56" id="svg_137"/>
  <rect stroke="#000" style="vector-effect: non-scaling-stroke;" fill="#a5e306" height="72" id="svg_139" width="52" x="484.48209" y="754.27353"/>
  <rect stroke="#000" style="vector-effect: non-scaling-stroke;" fill="#a5e306" height="72" id="svg_140" width="52" x="788.56076" y="754.27353"/>
  <rect stroke="#000" style="vector-effect: non-scaling-stroke;" fill="#487d8f" height="30" id="svg_141" width="343.99975" x="489.3623" y="861.70213"/>
  <rect stroke="#000" style="vector-effect: non-scaling-stroke;" fill="#5b8b95" height="46" id="svg_142" width="357.99987" x="480.10089" y="825.70217"/>
  <rect stroke="#000" fill="#8bb8be" height="30" id="svg_143" width="359.99997" x="479.93387" y="817.70213"/>
  <rect stroke="#000" fill="#a5e306" height="30" id="svg_144" width="358" x="482.50827" y="800.2735"/>
  <rect stroke="#000" style="vector-effect: non-scaling-stroke;" fill="#a5e306" height="42" id="svg_145" width="172.00025" x="648.92116" y="800.27351"/>
  <rect stroke="#000" style="vector-effect: non-scaling-stroke;" fill="#a5e306" height="50" id="svg_146" width="58" x="480.48385" y="800.27352"/>
  <rect stroke="#000" style="vector-effect: non-scaling-stroke;" fill="#a5e306" height="30" id="svg_153" width="105.71462" x="1020.70975" y="638.12965"/>
  <rect stroke="#000" style="vector-effect: non-scaling-stroke;" transform="rotate(25 1183.3 683.642)" fill="#a5e306" height="30" id="svg_155" width="138.45292" x="1114.07531" y="668.6415"/>
  <rect stroke="#000" fill="#a5e306" height="30" id="svg_156" width="105.71462" x="1234.70906" y="700.12944"/>
  <rect stroke="#000" style="vector-effect: non-scaling-stroke;" fill="#a5e306" height="50" id="svg_72" width="100" x="1247.23011" y="365.94282"/>
  <rect stroke="#000" style="vector-effect: non-scaling-stroke;" fill="#a5e306" height="50" id="svg_73" width="120" x="1445.11617" y="367.94282"/>
  <rect stroke="#000" style="vector-effect: non-scaling-stroke;" transform="rotate(30 2196.78 516.842)" fill="#a5e306" height="30" id="svg_183" width="107.60043" x="2142.97509" y="501.84211"/>
  <rect stroke="#000" style="vector-effect: non-scaling-stroke;" fill="#a5e306" height="40.00003" id="svg_185" width="109.99997" x="2237.2269" y="525.6961"/>
  <rect stroke="#000" fill="#5b8b95" height="40" id="svg_170" width="999.71271" x="1705.99784" y="547.94261"/>
  <ellipse stroke="#000" class="grass1" cx="2483.11316" cy="441.94258" fill="#000000" id="svg_175" rx="20" ry="20"/>
  <ellipse stroke="#000" class="tree1" cx="2101.1138" cy="477.94245" fill="#000000" id="svg_176" rx="20" ry="20"/>
  <rect stroke="#000" style="vector-effect: non-scaling-stroke;" fill="#a5e306" height="33.99999" id="svg_177" width="58.00182" x="1918.47973" y="427.94262"/>
  <rect transform="rotate(-30 1804.69 513.135)" stroke="#000" fill="#a5e306" height="35.0718" id="svg_178" width="282.6358" x="1663.37185" y="495.59932"/>
  <rect stroke="#000" fill="#a5e306" height="50" id="svg_179" width="100" x="1571.22907" y="797.94141"/>
  <rect stroke="#000" style="vector-effect: non-scaling-stroke;" transform="rotate(30 1815.95 389.886)" fill="#a5e306" height="30" id="svg_181" width="41.77378" x="1795.06083" y="374.88576"/>
  <rect stroke="#000" style="vector-effect: non-scaling-stroke;" transform="rotate(30 2016.78 470.842)" fill="#a5e306" height="30" id="svg_182" width="107.60043" x="1962.9757" y="455.84226"/>
  <rect stroke="#000" style="vector-effect: non-scaling-stroke;" fill="#a5e306" height="40.00003" id="svg_184" width="100" x="2059.22748" y="477.69625"/>
  <rect stroke="#000" style="vector-effect: non-scaling-stroke;" fill="#a5e306" height="50" id="svg_187" width="72.00016" x="2465.11281" y="441.94257"/>
  <rect stroke="#000" style="vector-effect: non-scaling-stroke;" transform="rotate(65 2661.13 407.142)" fill="#a5e306" height="35.0718" id="svg_190" width="139.20539" x="2591.52982" y="389.6058"/>
  <rect stroke="#000" transform="rotate(-65 2567.05 407.142)" fill="#a5e306" height="35.0718" id="svg_188" width="139.20539" x="2497.44506" y="389.6058"/>
  <rect stroke="#000" fill="#a5e306" height="133.99973" id="svg_191" width="42.00026" x="2665.11225" y="459.94252"/>
  <rect stroke="#000" fill="#a5e306" height="23.07184" id="svg_201" width="1016.777" x="1692.03278" y="575.13724"/>
  <rect stroke="#000" fill="#487d8f" height="22.00006" id="svg_204" width="52.00003" x="479.64675" y="600.57876"/>
  <rect stroke="#000" fill="#a5e306" height="22.00003" id="svg_203" width="64.00005" x="473.97132" y="594.57876"/>
  <rect transform="rotate(5 2971.2 432.669)" stroke="#000" fill="#8bb8be" height="78.61152" id="svg_205" width="40" x="2951.19826" y="393.36343"/>
  <rect transform="rotate(10 2960.91 504.805)" stroke="#000" fill="#8bb8be" height="106.21984" id="svg_206" width="40" x="2940.91119" y="451.69465"/>
  <rect transform="rotate(15 2951.18 554.858)" stroke="#000" fill="#8bb8be" height="73.20261" id="svg_207" width="40" x="2931.184" y="518.25693"/>
  <rect transform="rotate(20 2946.21 577.048)" stroke="#000" fill="#8bb8be" height="43.80968" id="svg_208" width="40" x="2926.21053" y="555.14316"/>
  <rect transform="rotate(25 2939.16 596.048)" stroke="#000" fill="#8bb8be" height="44.93371" id="svg_209" width="40" x="2919.15756" y="573.58099"/>
  <rect transform="rotate(30 2931.38 614.662)" stroke="#000" fill="#8bb8be" height="40.4181" id="svg_210" width="40" x="2911.3802" y="594.45279"/>
  <rect transform="rotate(40 2911.56 640.078)" stroke="#000" fill="#8bb8be" height="40.24958" id="svg_212" width="40" x="2891.56468" y="619.95291"/>
  <rect transform="rotate(45 2903.56 650.078)" stroke="#000" fill="#8bb8be" height="40.24958" id="svg_213" width="40" x="2883.5647" y="629.95288"/>
  <rect transform="rotate(50 2887.56 664.078)" stroke="#000" fill="#8bb8be" height="40.24958" id="svg_214" width="40" x="2867.56475" y="643.95283"/>
  <rect transform="rotate(55 2859.56 686.078)" stroke="#000" fill="#8bb8be" height="40.24958" id="svg_215" width="40" x="2839.56484" y="665.95276"/>
  <rect transform="rotate(60 2843.56 696.078)" stroke="#000" fill="#8bb8be" height="40.24958" id="svg_216" width="40" x="2823.5649" y="675.95273"/>
  <rect transform="rotate(65 2806.56 715.073)" stroke="#000" fill="#8bb8be" height="73.35537" id="svg_217" width="40" x="2786.563" y="678.3954"/>
 </g>
</svg>