<?xml version="1.0"?>
<svg width="2000" height="1000" xmlns="http://www.w3.org/2000/svg" xmlns:svg="http://www.w3.org/2000/svg">
 <title>course1</title>
 <g class="layer">
  <title>Hill Climb, 5</title>
  <rect fill="#487d8f" height="18" id="svg_34" stroke="#000" width="40" x="590.88" y="565.27"/>
  <rect fill="#487d8f" height="18" id="svg_33" stroke="#000" width="27" x="391.88" y="435.27"/>
  <rect fill="#5b8b95" height="29" id="svg_32" stroke="#000" width="69" x="575.88" y="542.27"/>
  <rect fill="#5b8b95" height="29" id="svg_31" stroke="#000" width="51" x="379.88" y="410.27"/>
  <rect fill="#8bb8be" height="30" id="svg_30" stroke="#000" width="88" x="368.88" y="384.27"/>
  <rect fill="#487d8f" height="38" id="svg_24" stroke="#000" width="173" x="445.88" y="792.27"/>
  <rect fill="#5b8b95" height="38" id="svg_23" stroke="#000" width="368" x="329.88" y="762.27"/>
  <ellipse cx="550.88" cy="597.27" fill="#00ff00" id="svg_16" rx="15" ry="15" stroke="#000"/>
  <ellipse cx="399.88" cy="368.27" fill="#ff0000" id="svg_17" rx="15" ry="15" stroke="#000"/>
  <rect fill="#8bb8be" height="50" id="svg_10" stroke="#000" width="340" x="346.88" y="722.27"/>
  <rect fill="#a5e306" height="32" id="svg_9" stroke="#000" width="321" x="366.88" y="712.27"/>
  <rect fill="#5b8b95" height="38" id="svg_11" opacity="0.9" stroke="#000" width="40" x="498.88" y="869"/>
  <rect fill="#487d8f" height="37" id="svg_15" opacity="0.9" stroke="#000" width="38" x="550.88" y="870"/>
  <rect fill="#a5e306" height="37.66" id="svg_18" stroke="#000" transform="rotate(45 353.629 707.018)" width="69.6" x="318.83" y="688.19"/>
  <rect fill="#8bb8be" height="570" id="svg_19" stroke="#000" width="40" x="306.88" y="202.27"/>
  <rect fill="#8bb8be" height="570" id="svg_20" stroke="#000" width="40" x="686.88" y="202.27"/>
  <rect fill="#8bb8be" height="36" id="svg_21" opacity="0.9" stroke="#000" width="40" x="444.88" y="870"/>
  <rect fill="#a5e306" height="38" id="svg_22" opacity="0.9" stroke="#000" width="38" x="602.32" y="869.71"/>
  <rect fill="#8bb8be" height="47" id="svg_25" stroke="#000" width="340" x="346.88" y="202.27"/>
  <rect fill="#8bb8be" height="22" id="svg_27" stroke="#000" width="112" x="546.88" y="527.27"/>
  <rect fill="#a5e306" height="25" id="svg_28" stroke="#000" width="111" x="357.88" y="369.27"/>
  <rect fill="#a5e306" height="25" id="svg_29" stroke="#000" width="148" x="529.88" y="506.27"/>
  <rect fill="#a5e306" height="46" id="svg_35" stroke="#000" width="107" x="474.88" y="712.27"/>
  <rect fill="#a5e306" height="31" id="svg_36" stroke="#000" width="46" x="587.88" y="506.27"/>
  <rect fill="#a5e306" height="30" id="svg_37" stroke="#000" width="44" x="388.88" y="369.27"/>
  <rect fill="#a8cbcc" height="39" id="svg_1" opacity="0.9" stroke="#000" width="41" x="396" y="870"/>
  <rect fill="#a8cbcc" height="39" id="svg_2" stroke="#000" width="442" x="297" y="182"/>
  <rect fill="#a5e306" height="30.08" id="svg_5" stroke="#000" width="482.21" x="277.21" y="160.33"/>
  <rect fill="#a5e306" height="38.28" id="svg_6" stroke="#000" width="89.84" x="338.78" y="160.05"/>
  <rect fill="#a5e306" height="48.28" id="svg_3" stroke="#000" width="89.84" x="549.78" y="160"/>
 </g>
</svg>