<svg width="2000.0000000000002" height="1364" xmlns="http://www.w3.org/2000/svg">
 <title>course1</title>

 <g class="layer">
  <title>Time for Fun, 5</title>
  <rect fill="#5b8b95" height="40.76923" id="svg_79" width="99.69433" x="454.46223" y="1123.82939" stroke="#000"/>
  <rect fill="#5b8b95" height="40.76923" id="svg_78" width="99.69433" x="107.21156" y="1123.82939" stroke="#000"/>
  <ellipse fill="#8bb8be" cx="1072.58764" cy="874.33654" id="svg_76" rx="9.07033" ry="9.07033" stroke="#000"/>
  <ellipse stroke="#000" fill="#8bb8be" cx="1152.20228" cy="888.69588" id="svg_74" rx="7.8279" ry="7.8279"/>
  <ellipse fill="#ff00ff" cx="1078.44775" cy="378.76928" id="svg_73" rx="7.737" ry="7.737" stroke="#000"/>
  <ellipse fill="#ff00ff" cx="977.7814" cy="488.10225" id="svg_72" rx="7.737" ry="7.737" stroke="#000"/>
  <ellipse fill="#ff00ff" cx="901.11499" cy="586.10193" id="svg_71" rx="7.737" ry="7.737" stroke="#000"/>
  <ellipse fill="#ff00ff" cx="823.78191" cy="677.43497" id="svg_70" rx="9.07033" ry="9.07033" stroke="#000"/>
  <rect transform="rotate(50 1210.39 941.392)" stroke="#000" fill="#8bb8be" height="336.12538" id="svg_69" width="17.27053" x="1201.75363" y="773.32965"/>
  <rect fill="#8bb8be" height="248.69131" id="svg_68" width="17.16032" x="1320.49701" y="581.56051" stroke="#000"/>
  <rect fill="#8bb8be" height="98.90109" id="svg_67" width="14.43304" x="1144.48302" y="787.71436" stroke="#000"/>
  <rect fill="#8bb8be" height="108.6035" id="svg_66" width="11.00647" x="1225.11165" y="687.4945" stroke="#000"/>
  <ellipse class="grass1" cx="1194.36122" cy="786.12037" fill="#000000" id="svg_80" rx="20" ry="20" stroke="#000"/>
  <ellipse cx="1189.84935" cy="780.31022" fill="#ff0000" id="svg_17" rx="20" ry="20" stroke="#000"/>
  <rect fill="#8bb8be" height="23.52651" id="svg_65" width="86.39109" x="1149.72706" y="783.20883" stroke="#000"/>
  <ellipse fill="#8bb8be" cx="79.96157" cy="1112.71738" id="svg_53" rx="43.84616" ry="43.84616" stroke="#000"/>
  <ellipse class="grass1" cx="570.30916" cy="1063.26483" fill="#000000" id="svg_77" rx="20" ry="20" stroke="#000"/>
  <ellipse fill="#8bb8be" cx="578.29933" cy="1112.71738" id="svg_54" rx="43.84616" ry="43.84616" stroke="#000"/>
  <rect fill="#5b8b95" height="40.76923" id="svg_8" width="496.83946" x="81.49713" y="1116.68649" stroke="#000"/>
  <rect transform="rotate(-50 1105.33 590.244)" fill="#8bb8be" height="322.75027" id="svg_20" width="15.25917" x="1097.69982" y="428.86882" stroke="#000"/>
  <ellipse class="tree1" cx="135.01733" cy="1068.78907" fill="#000000" id="svg_2" rx="20" ry="20" stroke="#000"/>
  <ellipse class="grass1" cx="201.49837" cy="1066.12199" fill="#000000" id="svg_5" rx="20" ry="20" stroke="#000"/>
  <ellipse cx="328.14496" cy="978.44464" fill="#00ff00" id="svg_16" rx="20" ry="20" stroke="#000"/>
  <rect fill="#5b8b95" height="38" id="svg_11" opacity="0.9" stroke="#000" width="40" x="175.88" y="34"/>
  <rect fill="#487d8f" height="37" id="svg_15" opacity="0.9" stroke="#000" width="38" x="225.88" y="34"/>
  <rect fill="#8bb8be" height="36" id="svg_21" opacity="0.9" stroke="#000" width="40" x="125.88" y="34"/>
  <rect fill="#a5e306" height="38" id="svg_22" opacity="0.9" stroke="#000" width="38" x="269.32" y="32.71"/>
  <rect fill="#a8cbcc" height="39" id="svg_1" opacity="0.9" stroke="#000" width="41" x="78" y="32"/>
  <rect fill="#8bb8be" height="30" id="svg_12" width="497.79534" x="81.49709" y="1095.91727" stroke="#000"/>
  <rect fill="#ff7f00" height="38" id="svg_30" opacity="0.9" stroke="#000" width="38" x="316.5" y="32.5"/>
  <rect fill="#f7ba3e" height="38" id="svg_159" opacity="0.9" stroke="#000" width="38" x="390.5" y="31.5"/>
  <text fill="#000000" font-family="Serif" font-size="24" id="svg_160" stroke="#000" stroke-width="0" text-anchor="middle" x="407" xml:space="preserve" y="25">Sand</text>
  <rect fill="#0000ff" height="38" id="svg_161" opacity="0.9" stroke="#000" width="38" x="484.5" y="30.5"/>
  <text fill="#000000" font-family="Serif" font-size="24" id="svg_162" stroke="#000" stroke-width="0" text-anchor="middle" x="498" xml:space="preserve" y="24.5">Spinner</text>
  <rect fill="#00ffff" height="38" id="svg_164" opacity="0.9" stroke="#000" width="38" x="579.5" y="32.5"/>
  <text fill="#000000" font-family="Serif" font-size="24" id="svg_165" stroke="#000" stroke-width="0" text-anchor="middle" x="593.01" xml:space="preserve" y="24.5">Water</text>
  <rect fill="#ff00ff" height="38" id="svg_166" opacity="0.9" stroke="#000" width="38" x="659.5" y="30.5"/>
  <text fill="#000000" font-family="Serif" font-size="24" id="svg_167" stroke="#000" stroke-width="0" text-anchor="middle" x="676.01" xml:space="preserve" y="26.5">Wood</text>
  <rect fill="#ffff00" height="38" id="svg_168" opacity="0.9" stroke="#000" width="38" x="733.5" y="32.5"/>
  <text fill="#000000" font-family="Serif" font-size="24" id="svg_169" stroke="#000" stroke-width="0" text-anchor="middle" x="752" xml:space="preserve" y="25.5">Bouncer</text>
  <rect fill="#a5e306" height="30" id="svg_58" width="463.28102" x="82.42745" y="1067.45573" stroke="#000"/>
  <rect fill="#a5e306" height="50" id="svg_45" stroke="#000" width="70" x="321.4971" y="1067.45573"/>
  <rect fill="#a5e306" height="40" id="svg_44" stroke="#000" width="100" x="121.4971" y="1067.45573"/>
  <rect fill="#a5e306" height="40" id="svg_59" width="44.28539" x="535.92958" y="1067.45573" stroke="#000"/>
  <rect fill="#8bb8be" height="319.66164" id="svg_63" width="16.87701" x="939.76502" y="616.49031" stroke="#000" transform="rotate(-50 948.204 776.321)"/>
  <rect fill="#8bb8be" height="327.15285" id="svg_64" width="16.8033" x="1199.11616" y="317.54679" stroke="#000" transform="rotate(-50 1207.52 481.123)"/>
  <rect fill="#8bb8be" height="327.15285" id="svg_62" width="14.6841" x="1023.5754" y="525.81609" stroke="#000" transform="rotate(-50 1030.92 689.392)"/>
  <path fill="#a5e306" opacity="undefined" d="m914.43448,626.2243l3.83005,0l0,221.71402l-3.83005,0l0,-221.71402z" id="svg_43" stroke="#000" transform="rotate(-50 916.35 737.081)"/>
  <path fill="#a5e306" opacity="undefined" d="m1172.62518,335.12173l1.87718,0l0,209.63851l-1.87718,0l0,-209.63851z" id="svg_75" stroke="#000" transform="rotate(-50 1173.56 439.941)"/>
 </g>
</svg>