<?xml version="1.0"?>
<svg width="2996" height="1529.0000000000002" xmlns="http://www.w3.org/2000/svg" xmlns:svg="http://www.w3.org/2000/svg">
 <title>course1</title>
 <g class="layer">
  <title>Easy As Pie, 4</title>
  <ellipse class="tree1" cx="1335.25" cy="345.11" fill="#000000" id="svg_33" rx="20" ry="20" stroke="#000"/>
  <ellipse class="grass1" cx="903.11" cy="511.18" fill="#000000" id="svg_17" rx="20" ry="20" stroke="#000" transform="matrix(1 0 0 1 0 0)"/>
  <rect fill="#5b8b95" height="40" id="svg_92" stroke="#000" width="589.71" x="1042" y="463.94"/>
  <ellipse class="grass2" cx="1934.57" cy="582.98" fill="#000000" id="svg_6" rx="20" ry="20" stroke="#000"/>
  <rect fill="#8bb8be" height="50" id="svg_85" stroke="#000" width="512.86" x="1556.26" y="603.92"/>
  <rect fill="#487d8f" height="40" id="svg_83" stroke="#000" width="348.57" x="1615.69" y="669.58"/>
  <rect fill="#5b8b95" height="40" id="svg_84" stroke="#000" width="451.71" x="1580.26" y="653.92"/>
  <rect fill="#a5e306" height="30" id="svg_82" stroke="#000" width="556" x="1522.28" y="588.66"/>
  <rect fill="#5b8b95" height="48" id="svg_76" stroke="#000" width="557.71" x="994" y="423.94"/>
  <rect fill="#5b8b95" height="40" id="svg_69" stroke="#000" width="545.71" x="956" y="405.94"/>
  <rect fill="#8bb8be" height="50" id="svg_70" stroke="#000" width="546.86" x="920" y="373.94"/>
  <rect fill="#487d8f" height="32" id="svg_75" stroke="#000" transform="rotate(30 935.433 426.745)" width="263.55" x="803.66" y="410.75"/>
  <ellipse class="grass1" cx="790" cy="1078.61" fill="#000000" id="svg_5" rx="20" ry="20" stroke="#000" transform="matrix(1 0 0 1 0 0)"/>
  <ellipse class="tree1" cx="610" cy="1078.61" fill="#000000" id="svg_3" rx="20" ry="20" stroke="#000"/>
  <rect fill="#487d8f" height="30" id="svg_34" stroke="#000" width="538" x="1266.89" y="1003.18"/>
  <rect fill="#487d8f" height="30" id="svg_89" stroke="#000" width="464" x="1346.89" y="1025.18"/>
  <rect fill="#487d8f" height="40" id="svg_24" stroke="#000" width="348.57" x="421.43" y="1174.26"/>
  <rect fill="#5b8b95" height="40" id="svg_23" stroke="#000" width="545.71" x="340" y="1158.61"/>
  <ellipse cx="660" cy="972.61" fill="#00ff00" id="svg_16" rx="20" ry="20" stroke="#000"/>
  <rect fill="#8bb8be" height="50" id="svg_10" stroke="#000" width="562.86" x="340" y="1108.61"/>
  <rect fill="#a5e306" height="30" id="svg_9" stroke="#000" width="580" x="340" y="1078.61"/>
  <rect fill="#5b8b95" height="38" id="svg_11" opacity="0.9" stroke="#000" width="40" x="175.88" y="34"/>
  <rect fill="#487d8f" height="37" id="svg_15" opacity="0.9" stroke="#000" width="38" x="225.88" y="34"/>
  <rect fill="#8bb8be" height="250" id="svg_19" stroke="#000" width="40" x="300" y="908.61"/>
  <rect fill="#8bb8be" height="418" id="svg_20" stroke="#000" width="40" x="2420.34" y="670.57"/>
  <rect fill="#8bb8be" height="36" id="svg_21" opacity="0.9" stroke="#000" width="40" x="125.88" y="34"/>
  <rect fill="#a5e306" height="38" id="svg_22" opacity="0.9" stroke="#000" width="38" x="269.32" y="32.71"/>
  <rect fill="#a5e306" height="50" id="svg_35" stroke="#000" width="100" x="440" y="1078.61"/>
  <rect fill="#a8cbcc" height="39" id="svg_1" opacity="0.9" stroke="#000" width="41" x="78" y="32"/>
  <rect fill="#8bb8be" height="30" id="svg_12" stroke="#000" width="276.86" x="1560.03" y="944.61"/>
  <rect fill="#a5e306" height="40" id="svg_86" stroke="#000" transform="rotate(-17 1548.67 948.416)" width="100.63" x="1498.36" y="928.42"/>
  <rect fill="#a5e306" height="23.53" id="svg_87" stroke="#000" transform="rotate(-17 1348.26 974.541)" width="100.63" x="1297.95" y="962.78"/>
  <rect fill="#a5e306" height="40" id="svg_4" stroke="#000" width="222.52" x="1388.82" y="946.74"/>
  <rect fill="#5b8b95" height="30" id="svg_8" stroke="#000" width="284.29" x="1528.61" y="973.18"/>
  <ellipse class="tree1" cx="2341.11" cy="966.75" fill="#000000" id="svg_2" rx="20" ry="20" stroke="#000"/>
  <ellipse class="grass2" cx="1725.06" cy="910.71" fill="#000000" id="svg_18" rx="20" ry="20" stroke="#000"/>
  <rect fill="#a5e306" height="30" id="svg_13" stroke="#000" width="235.71" x="1609.18" y="913.18"/>
  <rect fill="#a5e306" height="50" id="svg_26" stroke="#000" width="120" x="680" y="1078.61"/>
  <rect fill="#487d8f" height="30" id="svg_40" stroke="#000" width="286" x="2134.34" y="1060.07"/>
  <rect fill="#5b8b95" height="46" id="svg_41" stroke="#000" width="310" x="2110.34" y="1024.07"/>
  <rect fill="#a5e306" height="40.54" id="svg_90" stroke="#000" transform="rotate(-15 2144.73 1001.9)" width="89.31" x="2100.08" y="981.63"/>
  <rect fill="#8bb8be" height="30" id="svg_42" stroke="#000" width="330" x="2090.34" y="1000.07"/>
  <rect fill="#a5e306" height="30" id="svg_43" stroke="#000" width="226" x="2194.34" y="970.07"/>
  <rect fill="#a5e306" height="40" id="svg_44" stroke="#000" width="100" x="1590.23" y="913.18"/>
  <rect fill="#a5e306" height="54" id="svg_46" stroke="#000" width="70" x="2182.34" y="970.07"/>
  <rect fill="#a5e306" height="50" id="svg_47" stroke="#000" width="70" x="2300.34" y="970.07"/>
  <rect fill="#487d8f" height="40" id="svg_28" stroke="#000" width="60" x="2420.34" y="642.57"/>
  <rect fill="#a5e306" height="30" id="svg_27" stroke="#000" width="80" x="2420.67" y="636.57"/>
  <rect fill="#a8cbcc" height="40" id="svg_29" stroke="#000" width="60" x="290" y="868.61"/>
  <rect fill="#a5e306" height="30" id="svg_25" stroke="#000" width="80" x="280" y="858.61"/>
  <rect fill="#ff7f00" height="38" id="svg_30" opacity="0.9" stroke="#000" width="38" x="316.5" y="32.5"/>
  <rect fill="#f7ba3e" height="38" id="svg_159" opacity="0.9" stroke="#000" width="38" x="390.5" y="31.5"/>
  <text fill="#000000" font-family="Serif" font-size="24" id="svg_160" stroke="#000" stroke-width="0" text-anchor="middle" x="407" xml:space="preserve" y="25">Sand</text>
  <rect fill="#0000ff" height="38" id="svg_161" opacity="0.9" stroke="#000" width="38" x="484.5" y="30.5"/>
  <text fill="#000000" font-family="Serif" font-size="24" id="svg_162" stroke="#000" stroke-width="0" text-anchor="middle" x="498" xml:space="preserve" y="24.5">Spinner</text>
  <rect fill="#00ffff" height="38" id="svg_164" opacity="0.9" stroke="#000" width="38" x="579.5" y="32.5"/>
  <text fill="#000000" font-family="Serif" font-size="24" id="svg_165" stroke="#000" stroke-width="0" text-anchor="middle" x="593.01" xml:space="preserve" y="24.5">Water</text>
  <rect fill="#ff00ff" height="38" id="svg_166" opacity="0.9" stroke="#000" width="38" x="659.5" y="30.5"/>
  <text fill="#000000" font-family="Serif" font-size="24" id="svg_167" stroke="#000" stroke-width="0" text-anchor="middle" x="676.01" xml:space="preserve" y="26.5">Wood</text>
  <rect fill="#ffff00" height="38" id="svg_168" opacity="0.9" stroke="#000" width="38" x="733.5" y="32.5"/>
  <text fill="#000000" font-family="Serif" font-size="24" id="svg_169" stroke="#000" stroke-width="0" text-anchor="middle" x="752" xml:space="preserve" y="25.5">Bouncer</text>
  <rect fill="#8bb8be" height="30" id="svg_7" stroke="#000" width="420.86" x="1387.46" y="973.18"/>
  <rect fill="#a5e306" height="40.54" id="svg_14" stroke="#000" width="98.93" x="2099.09" y="990.76"/>
  <rect fill="#8bb8be" height="34" id="svg_31" stroke="#000" width="262" x="2120.34" y="1020.07"/>
  <rect fill="#8bb8be" height="156" id="svg_37" stroke="#000" width="36" x="2098.34" y="1022.05"/>
  <rect fill="#f7ba3e" height="56" id="svg_38" stroke="#000" width="258" x="1839.82" y="1114.09"/>
  <rect fill="#8bb8be" height="220" id="svg_32" stroke="#000" width="36" x="1802.34" y="942.05"/>
  <rect fill="#a5e306" height="50" id="svg_45" stroke="#000" width="70" x="1742.89" y="913.18"/>
  <rect fill="#a5e306" height="72" id="svg_48" stroke="#000" width="52" x="1786.89" y="1102.27"/>
  <rect fill="#a5e306" height="72" id="svg_49" stroke="#000" width="52" x="2092.92" y="1102.27"/>
  <rect fill="#487d8f" height="30" id="svg_50" stroke="#000" width="270" x="1829.36" y="1209.7"/>
  <rect fill="#5b8b95" height="46" id="svg_51" stroke="#000" width="310" x="1814.1" y="1173.7"/>
  <rect fill="#8bb8be" height="30" id="svg_52" stroke="#000" width="360" x="1786.34" y="1165.7"/>
  <rect fill="#a5e306" height="30" id="svg_53" stroke="#000" width="358" x="1788.92" y="1148.27"/>
  <rect fill="#a5e306" height="42" id="svg_54" stroke="#000" width="252" x="1868.92" y="1148.27"/>
  <rect fill="#a5e306" height="50" id="svg_55" stroke="#000" width="58" x="1786.89" y="1148.27"/>
  <ellipse cx="350.5" cy="455.85" fill="#ff0000" id="svg_56" rx="19" ry="19" stroke="#000"/>
  <ellipse class="grass1" cx="424.07" cy="473.51" fill="#000000" id="svg_57" rx="20" ry="20" stroke="#000"/>
  <rect fill="#487d8f" height="40" id="svg_59" stroke="#000" width="630.57" x="319.5" y="565.6"/>
  <rect fill="#5b8b95" height="48" id="svg_60" stroke="#000" width="661.71" x="262" y="541.94"/>
  <ellipse cx="258" cy="448.85" fill="#a5e306" id="svg_78" rx="44" ry="44" stroke="#000"/>
  <rect fill="#8bb8be" height="50" id="svg_61" stroke="#000" width="628.86" x="232" y="497.94"/>
  <rect fill="#a5e306" height="30" id="svg_62" stroke="#000" width="614" x="208" y="469.94"/>
  <rect fill="#a5e306" height="50" id="svg_63" stroke="#000" width="100" x="308" y="469.94"/>
  <rect fill="#a5e306" height="50" id="svg_64" stroke="#000" width="120" x="548" y="469.94"/>
  <rect fill="#a5e306" height="50" id="svg_65" stroke="#000" transform="rotate(30 887.964 537.933)" width="179.96" x="797.98" y="512.93"/>
  <ellipse class="grass1" cx="929.86" cy="347.73" fill="#000000" id="svg_66" rx="20" ry="20" stroke="#000"/>
  <rect fill="#a5e306" height="30" id="svg_71" stroke="#000" width="614" x="812" y="345.94"/>
  <rect fill="#a5e306" height="50" id="svg_72" stroke="#000" width="100" x="878" y="345.94"/>
  <rect fill="#a5e306" height="50" id="svg_73" stroke="#000" width="120" x="1152" y="345.94"/>
  <rect fill="#a5e306" height="35.07" id="svg_74" stroke="#000" transform="rotate(30 1534.42 428.674)" width="264.78" x="1402.03" y="411.14"/>
  <rect fill="#a5e306" height="28" id="svg_88" stroke="#000" width="156.52" x="1238.82" y="974.74"/>
  <ellipse class="tree1" cx="1337.92" cy="347.79" fill="#000000" id="svg_36" rx="20" ry="20" stroke="#000"/>
 </g>
</svg>