<svg width="2207" height="2111" xmlns="http://www.w3.org/2000/svg" stroke="null" style="vector-effect: non-scaling-stroke;">
 <title stroke="null" style="vector-effect: non-scaling-stroke;">course1</title>

 <g stroke="null" class="layer">
  <title stroke="null">The End Of It All, 5</title>
  <rect transform="rotate(-10 1612.36 1428.34)" stroke="#000" y="1394.6118" x="1519.45449" width="185.81913" id="svg_70" height="67.45476" fill="#a5e306"/>
  <rect stroke="#000" y="1512.46973" x="1517.57565" width="40" id="svg_86" height="58" fill="#8bb8be"/>
  <rect stroke="#000" y="1498.89039" x="1511.57565" width="50" id="svg_89" height="22" fill="#487d8f"/>
  <rect stroke="#000" y="1474.70107" x="1492.74976" width="83.99991" id="svg_90" height="38" fill="#8bb8be"/>
  <rect stroke="#000" y="1562.89039" x="1511.57565" width="50" id="svg_87" height="22" fill="#487d8f"/>
  <rect stroke="#000" y="1568.70107" x="1492.74976" width="83.99991" id="svg_88" height="38" fill="#8bb8be"/>
  <ellipse stroke="#000" ry="61.00001" rx="61.00001" id="svg_85" cy="1647.39453" cx="1558.99049" fill="#5b8b95"/>
  <ellipse ry="26" rx="26" id="svg_76" cy="1158.5" cx="488.5" stroke="#000" fill="#a5e306"/>
  <rect stroke="#000" style="vector-effect: non-scaling-stroke;" transform="rotate(-10 1661.57 1085.45)" y="1020.19361" x="1641.56703" width="40" id="svg_72" height="130.49429" fill="#8bb8be"/>
  <rect stroke="#000" style="vector-effect: non-scaling-stroke;" transform="rotate(10 1821.57 939.047)" y="873.80182" x="1801.56703" width="40" id="svg_71" height="130.49429" fill="#8bb8be"/>
  <ellipse stroke="#000" ry="46.00001" rx="46.00001" id="svg_69" cy="1456.31618" cx="1526.75174" fill="#5b8b95"/>
  <rect stroke="#000" style="vector-effect: non-scaling-stroke;" transform="rotate(10 1821.57 1081.26)" y="1016.00757" x="1801.56703" width="40" id="svg_62" height="130.49429" fill="#8bb8be"/>
  <path transform="rotate(-10 1660.9 1196.75)" stroke="#000" id="svg_61" d="m1640.89543,1150.50337l40,0l0,92.48637l-40,0l0,-92.48637z" opacity="undefined" fill="#8bb8be"/>
  <rect stroke="#000" style="vector-effect: non-scaling-stroke;" transform="rotate(-45 1522.13 1120.89)" y="1085.89454" x="1473.13178" width="98" id="svg_38" height="70" fill="#a5e306"/>
  <rect stroke="#000" style="vector-effect: non-scaling-stroke;" y="1059.89454" x="1531.93454" width="98" id="svg_39" height="70" fill="#a5e306"/>
  <ellipse stroke="#000" style="vector-effect: non-scaling-stroke;" ry="61.00001" rx="61.00001" id="svg_37" cy="1185.39453" cx="1017.6092" fill="#5b8b95"/>
  <rect stroke="#000" style="vector-effect: non-scaling-stroke;" y="1125.89454" x="1015.77067" width="617.99998" id="svg_50" height="30" fill="#a5e306"/>
  <rect stroke="#000" style="vector-effect: non-scaling-stroke;" y="1155.89454" x="1015.72524" width="615.99995" id="svg_49" height="30" fill="#8bb8be"/>
  <rect stroke="#000" style="vector-effect: non-scaling-stroke;" y="1185.89454" x="1015.67397" width="615.99996" id="svg_48" height="30" fill="#5b8b95"/>
  <rect stroke="#000" style="vector-effect: non-scaling-stroke;" y="1215.89454" x="1017.05324" width="613.99996" id="svg_45" height="30" fill="#487d8f"/>
  <ellipse stroke="#000" style="vector-effect: non-scaling-stroke;" ry="61.00001" rx="61.00001" id="svg_36" cy="1203.9365" cx="505.65192" fill="#5b8b95"/>
  <rect transform="rotate(45 140.363 1139.44)" stroke="#000" style="vector-effect: non-scaling-stroke;" y="1104.43651" x="91.36322" width="98" id="svg_34" height="70" fill="#a5e306"/>
  <rect stroke="#000" y="1078.43651" x="31.36322" width="98" id="svg_33" height="70" fill="#a5e306"/>
  <ellipse stroke="#000" style="vector-effect: non-scaling-stroke;" ry="79" rx="79" id="svg_32" cy="751.49999" cx="1193.65192" fill="#5b8b95"/>
  <ellipse stroke="#000" ry="20" rx="20" id="svg_5" fill="#000000" cy="670" cx="800.65192" class="grass1"/>
  <ellipse stroke="#000" ry="20" rx="20" id="svg_3" fill="#000000" cy="670" cx="620.65192" class="tree1"/>
  <rect stroke="#000" style="vector-effect: non-scaling-stroke;" y="790" x="450.65192" width="750" id="svg_24" height="40" fill="#487d8f"/>
  <rect stroke="#000" style="vector-effect: non-scaling-stroke;" y="750" x="350.65192" width="855.99996" id="svg_23" height="40" fill="#5b8b95"/>
  <ellipse stroke="#000" ry="20" rx="20" id="svg_16" fill="#00ff00" cy="570" cx="450.65192"/>
  <ellipse stroke="#000" ry="20" rx="20" id="svg_17" fill="#ff0000" cy="1556.43651" cx="1263.12177"/>
  <rect stroke="#000" style="vector-effect: non-scaling-stroke;" y="700" x="350.65192" width="853.99994" id="svg_10" height="50" fill="#8bb8be"/>
  <rect stroke="#000" y="670" x="350.65192" width="580" id="svg_9" height="30" fill="#a5e306"/>
  <rect stroke="#000" y="33" x="256.88" width="40" opacity="0.9" id="svg_11" height="38" fill="#5b8b95"/>
  <rect stroke="#000" y="34" x="308.88" width="38" opacity="0.9" id="svg_15" height="37" fill="#487d8f"/>
  <rect stroke="#000" y="500" x="310.65192" width="40" id="svg_19" height="250" fill="#8bb8be"/>
  <rect stroke="#000" style="vector-effect: non-scaling-stroke;" y="989.38098" x="1629.47785" width="40" id="svg_20" height="258" fill="#8bb8be"/>
  <rect stroke="#000" y="34" x="202.88" width="40" opacity="0.9" id="svg_21" height="36" fill="#8bb8be"/>
  <rect stroke="#000" y="33.71" x="360.32" width="38" opacity="0.9" id="svg_22" height="38" fill="#a5e306"/>
  <rect stroke="#000" y="670" x="450.65192" width="100" id="svg_35" height="50" fill="#a5e306"/>
  <rect stroke="#000" y="34" x="154" width="41" opacity="0.9" id="svg_1" height="39" fill="#a8cbcc"/>
  <rect stroke="#000" style="vector-effect: non-scaling-stroke;" y="728" x="968.65192" width="177.99999" id="svg_7" height="60" fill="#5b8b95"/>
  <rect stroke="#000" style="vector-effect: non-scaling-stroke;" y="670" x="920.65193" width="281.99998" id="svg_14" height="30" fill="#a5e306"/>
  <rect stroke="#000" y="670" x="690.65192" width="120" id="svg_26" height="50" fill="#a5e306"/>
  <rect stroke="#000" style="vector-effect: non-scaling-stroke;" y="1234.43651" x="131.30527" width="370" id="svg_40" height="30" fill="#487d8f"/>
  <rect stroke="#000" style="vector-effect: non-scaling-stroke;" y="1204.43651" x="89.30527" width="412.00001" id="svg_41" height="30" fill="#5b8b95"/>
  <rect stroke="#000" style="vector-effect: non-scaling-stroke;" y="1174.43651" x="71.30527" width="429.99998" id="svg_42" height="30" fill="#8bb8be"/>
  <rect stroke="#000" style="vector-effect: non-scaling-stroke;" y="1144.43651" x="31.30527" width="469.99998" id="svg_43" height="30" fill="#a5e306"/>
  <rect stroke="#000" style="vector-effect: non-scaling-stroke;" y="1144.43651" x="249.36322" width="70" id="svg_46" height="50" fill="#a5e306"/>
  <rect stroke="#000" style="vector-effect: non-scaling-stroke;" y="1144.43651" x="419.36322" width="70" id="svg_47" height="50" fill="#a5e306"/>
  <ellipse stroke="#000" style="vector-effect: non-scaling-stroke;" ry="20" rx="20" id="svg_6" fill="#000000" cy="664" cx="1120.65192" class="grass2"/>
  <ellipse stroke="#000" ry="20" rx="20" id="svg_18" fill="#000000" cy="1144.43651" cx="403.37396" class="grass2"/>
  <rect stroke="#000" style="vector-effect: non-scaling-stroke;" y="522.67389" x="1629.47785" width="40" id="svg_12" height="253.99999" fill="#8bb8be"/>
  <rect stroke="#000" style="vector-effect: non-scaling-stroke;" y="508.18932" x="1625.47785" width="50" id="svg_2" height="22" fill="#487d8f"/>
  <rect stroke="#000" style="vector-effect: non-scaling-stroke;" y="484" x="304.65192" width="50" id="svg_8" height="22" fill="#487d8f"/>
  <rect stroke="#000" style="vector-effect: non-scaling-stroke;" y="468" x="288.65192" width="80" id="svg_25" height="30" fill="#a5e306"/>
  <rect stroke="#000" style="vector-effect: non-scaling-stroke;" y="966.52296" x="1625.47785" width="50" id="svg_28" height="22" fill="#487d8f"/>
  <rect stroke="#000" style="vector-effect: non-scaling-stroke;" y="946.12218" x="1624.03807" width="62" id="svg_29" height="30" fill="#a5e306"/>
  <rect stroke="#000" style="vector-effect: non-scaling-stroke;" y="766.40936" x="1625.47785" width="50" id="svg_30" height="22" fill="#487d8f"/>
  <rect stroke="#000" style="vector-effect: non-scaling-stroke;" y="774.60815" x="1623.61999" width="64" id="svg_31" height="30" fill="#a5e306"/>
  <rect stroke="#000" style="vector-effect: non-scaling-stroke;" y="1125.89454" x="1073.23213" width="70" id="svg_51" height="50" fill="#a5e306"/>
  <rect stroke="#000" style="vector-effect: non-scaling-stroke;" y="1125.89454" x="1247.51642" width="70" id="svg_52" height="50" fill="#a5e306"/>
  <ellipse stroke="#000" ry="20" rx="20" id="svg_53" fill="#000000" cy="1125.89454" cx="1097.66934" class="grass2"/>
  <rect stroke="#000" y="478" x="1606.65197" width="67.99991" id="svg_55" height="38" fill="#8bb8be"/>
  <rect stroke="#000" style="vector-effect: non-scaling-stroke;" transform="rotate(10 1821.57 1213.09)" y="1147.83846" x="1801.56703" width="40" id="svg_60" height="130.49429" fill="#8bb8be"/>
  <rect stroke="#000" style="vector-effect: non-scaling-stroke;" y="518.46977" x="1815.57565" width="40" id="svg_57" height="739.99998" fill="#8bb8be"/>
  <rect stroke="#000" y="1256.89039" x="1809.57565" width="50" id="svg_58" height="22" fill="#487d8f"/>
  <rect stroke="#000" y="1270.70107" x="1790.74976" width="83.99991" id="svg_59" height="38" fill="#8bb8be"/>
  <rect stroke="#000" style="vector-effect: non-scaling-stroke;" transform="rotate(-45 1778.33 1370.82)" y="1335.81619" x="1729.32982" width="98" id="svg_63" height="70" fill="#a5e306"/>
  <rect stroke="#000" style="vector-effect: non-scaling-stroke;" y="1309.81619" x="1788.13258" width="98" id="svg_64" height="70" fill="#a5e306"/>
  <rect stroke="#000" style="vector-effect: non-scaling-stroke;" y="1380.14146" x="1692.29399" width="193.99999" id="svg_65" height="30" fill="#a5e306"/>
  <rect stroke="#000" y="1411.81619" x="1527.92326" width="357.99993" id="svg_66" height="30" fill="#8bb8be"/>
  <rect stroke="#000" y="1441.81619" x="1529.87199" width="355.99994" id="svg_67" height="30" fill="#5b8b95"/>
  <rect stroke="#000" y="1471.81619" x="1533.25131" width="351.99993" id="svg_68" height="30" fill="#487d8f"/>
  <rect stroke="#000" style="vector-effect: non-scaling-stroke;" y="508.18932" x="1809.99841" width="50" id="svg_73" height="22" fill="#487d8f"/>
  <rect stroke="#000" y="478" x="1809.17251" width="65.9999" id="svg_74" height="38" fill="#8bb8be"/>
  <ellipse stroke="#000" ry="61.00001" rx="61.00001" id="svg_77" cy="1647.39453" cx="951.6092" fill="#5b8b95"/>
  <rect stroke="#000" style="vector-effect: non-scaling-stroke;" y="1587.89454" x="949.77067" width="617.99998" id="svg_78" height="30" fill="#a5e306"/>
  <rect stroke="#000" style="vector-effect: non-scaling-stroke;" y="1617.89454" x="949.72524" width="615.99995" id="svg_79" height="30" fill="#8bb8be"/>
  <rect stroke="#000" style="vector-effect: non-scaling-stroke;" y="1647.89454" x="949.67397" width="615.99996" id="svg_80" height="30" fill="#5b8b95"/>
  <rect stroke="#000" style="vector-effect: non-scaling-stroke;" y="1677.89454" x="951.05324" width="613.99996" id="svg_81" height="30" fill="#487d8f"/>
  <rect stroke="#000" style="vector-effect: non-scaling-stroke;" y="1587.89454" x="1007.23213" width="70" id="svg_82" height="50" fill="#a5e306"/>
  <rect stroke="#000" style="vector-effect: non-scaling-stroke;" y="1587.89454" x="1181.51642" width="70" id="svg_83" height="50" fill="#a5e306"/>
  <ellipse stroke="#000" ry="20" rx="20" id="svg_84" fill="#000000" cy="1587.89454" cx="1031.66934" class="grass2"/>
 </g>
</svg>