<svg width="2000.0000000000002" height="1364" xmlns="http://www.w3.org/2000/svg">
 <title>course1</title>

 <g class="layer">
  <title>Easy As Pie, 4</title>
  <rect stroke="#000" y="1123.82939" x="454.46223" width="99.69433" id="svg_79" height="40.76923" fill="#5b8b95"/>
  <rect stroke="#000" y="1123.82939" x="107.21156" width="99.69433" id="svg_78" height="40.76923" fill="#5b8b95"/>
  <ellipse stroke="#000" ry="9.07033" rx="9.07033" id="svg_76" cy="877.33654" cx="1068.58764" fill="#8bb8be"/>
  <ellipse stroke="#000" ry="6.8279" rx="6.8279" id="svg_74" cy="887.69588" cx="1152.20228" fill="#8bb8be"/>
  <ellipse stroke="#000" ry="7.737" rx="7.737" id="svg_73" cy="376.76928" cx="1079.44775" fill="#8bb8be"/>
  <ellipse stroke="#000" ry="7.737" rx="7.737" id="svg_72" cy="486.10225" cx="980.7814" fill="#8bb8be"/>
  <ellipse stroke="#000" ry="7.737" rx="7.737" id="svg_71" cy="584.10193" cx="902.11499" fill="#8bb8be"/>
  <ellipse stroke="#000" ry="9.07033" rx="9.07033" id="svg_70" cy="675.43497" cx="824.78191" fill="#8bb8be"/>
  <rect transform="rotate(50 1206.95 926.273)" stroke="#000" y="762.6968" x="1198.31846" width="17.27053" id="svg_69" height="327.15285" fill="#8bb8be"/>
  <rect stroke="#000" y="581.56051" x="1320.49701" width="17.16032" id="svg_68" height="248.69131" fill="#8bb8be"/>
  <rect stroke="#000" y="787.71436" x="1144.48302" width="14.43304" id="svg_67" height="98.90109" fill="#8bb8be"/>
  <rect stroke="#000" y="687.4945" x="1225.11165" width="11.00647" id="svg_66" height="108.6035" fill="#8bb8be"/>
  <ellipse stroke="#000" ry="20" rx="20" id="svg_80" fill="#000000" cy="786.12037" cx="1194.36122" class="grass1"/>
  <ellipse stroke="#000" ry="20" rx="20" id="svg_17" fill="#ff0000" cy="780.31022" cx="1189.84935"/>
  <rect stroke="#000" y="783.20883" x="1149.72706" width="86.39109" id="svg_65" height="23.52651" fill="#8bb8be"/>
  <ellipse stroke="#000" ry="43.84616" rx="43.84616" id="svg_53" cy="1112.71738" cx="79.96157" fill="#8bb8be"/>
  <ellipse stroke="#000" ry="20" rx="20" id="svg_77" fill="#000000" cy="1063.26483" cx="570.30916" class="grass1"/>
  <ellipse stroke="#000" ry="43.84616" rx="43.84616" id="svg_54" cy="1112.71738" cx="578.29933" fill="#8bb8be"/>
  <rect stroke="#000" y="1116.68649" x="81.49713" width="496.83946" id="svg_8" height="40.76923" fill="#5b8b95"/>
  <rect transform="rotate(-50 1107.33 590.244)" stroke="#000" y="428.86882" x="1099.69982" width="15.25917" id="svg_20" height="322.75027" fill="#8bb8be"/>
  <ellipse stroke="#000" ry="20" rx="20" id="svg_2" fill="#000000" cy="1068.78907" cx="135.01733" class="tree1"/>
  <ellipse stroke="#000" ry="20" rx="20" id="svg_5" fill="#000000" cy="1066.12199" cx="201.49837" class="grass1"/>
  <ellipse stroke="#000" ry="20" rx="20" id="svg_16" fill="#00ff00" cy="978.44464" cx="328.14496"/>
  <rect y="34" x="175.88" width="40" stroke="#000" opacity="0.9" id="svg_11" height="38" fill="#5b8b95"/>
  <rect y="34" x="225.88" width="38" stroke="#000" opacity="0.9" id="svg_15" height="37" fill="#487d8f"/>
  <rect y="34" x="125.88" width="40" stroke="#000" opacity="0.9" id="svg_21" height="36" fill="#8bb8be"/>
  <rect y="32.71" x="269.32" width="38" stroke="#000" opacity="0.9" id="svg_22" height="38" fill="#a5e306"/>
  <rect y="32" x="78" width="41" stroke="#000" opacity="0.9" id="svg_1" height="39" fill="#a8cbcc"/>
  <rect stroke="#000" y="1095.91727" x="81.49709" width="497.79534" id="svg_12" height="30" fill="#8bb8be"/>
  <rect y="32.5" x="316.5" width="38" stroke="#000" opacity="0.9" id="svg_30" height="38" fill="#ff7f00"/>
  <rect y="31.5" x="390.5" width="38" stroke="#000" opacity="0.9" id="svg_159" height="38" fill="#f7ba3e"/>
  <text y="25" xml:space="preserve" x="407" text-anchor="middle" stroke-width="0" stroke="#000" id="svg_160" font-size="24" font-family="Serif" fill="#000000">Sand</text>
  <rect y="30.5" x="484.5" width="38" stroke="#000" opacity="0.9" id="svg_161" height="38" fill="#0000ff"/>
  <text y="24.5" xml:space="preserve" x="498" text-anchor="middle" stroke-width="0" stroke="#000" id="svg_162" font-size="24" font-family="Serif" fill="#000000">Spinner</text>
  <rect y="32.5" x="579.5" width="38" stroke="#000" opacity="0.9" id="svg_164" height="38" fill="#00ffff"/>
  <text y="24.5" xml:space="preserve" x="593.01" text-anchor="middle" stroke-width="0" stroke="#000" id="svg_165" font-size="24" font-family="Serif" fill="#000000">Water</text>
  <rect y="30.5" x="659.5" width="38" stroke="#000" opacity="0.9" id="svg_166" height="38" fill="#ff00ff"/>
  <text y="26.5" xml:space="preserve" x="676.01" text-anchor="middle" stroke-width="0" stroke="#000" id="svg_167" font-size="24" font-family="Serif" fill="#000000">Wood</text>
  <rect y="32.5" x="733.5" width="38" stroke="#000" opacity="0.9" id="svg_168" height="38" fill="#ffff00"/>
  <text y="25.5" xml:space="preserve" x="752" text-anchor="middle" stroke-width="0" stroke="#000" id="svg_169" font-size="24" font-family="Serif" fill="#000000">Bouncer</text>
  <rect stroke="#000" y="1067.45573" x="82.42745" width="463.28102" id="svg_58" height="30" fill="#a5e306"/>
  <rect y="1067.45573" x="321.4971" width="70" stroke="#000" id="svg_45" height="50" fill="#a5e306"/>
  <rect y="1067.45573" x="121.4971" width="100" stroke="#000" id="svg_44" height="40" fill="#a5e306"/>
  <rect stroke="#000" y="1067.45573" x="535.92958" width="44.28539" id="svg_59" height="40" fill="#a5e306"/>
  <rect transform="rotate(-50 948.204 776.321)" stroke="#000" y="616.49031" x="939.76502" width="16.87701" id="svg_63" height="319.66164" fill="#8bb8be"/>
  <rect transform="rotate(-50 1207.52 481.123)" stroke="#000" y="317.54679" x="1199.11616" width="16.8033" id="svg_64" height="327.15285" fill="#8bb8be"/>
  <rect transform="rotate(-50 1030.92 689.392)" stroke="#000" y="525.81609" x="1023.5754" width="14.6841" id="svg_62" height="327.15285" fill="#8bb8be"/>
  <path transform="rotate(-50 916.35 737.081)" stroke="#000" id="svg_43" d="m914.43448,626.2243l3.83005,0l0,221.71402l-3.83005,0l0,-221.71402z" opacity="undefined" fill="#a5e306"/>
  <path transform="rotate(-50 1173.56 439.941)" stroke="#000" id="svg_75" d="m1172.62518,335.12173l1.87718,0l0,209.63851l-1.87718,0l0,-209.63851z" opacity="undefined" fill="#a5e306"/>
 </g>
</svg>