<?xml version="1.0"?>
<svg width="2138" height="1751" xmlns="http://www.w3.org/2000/svg" xmlns:svg="http://www.w3.org/2000/svg">
 <title>course1</title>
 <g class="layer">
  <title>Nice and Easy, 5</title>
  <rect fill="#a5e306" height="30" id="svg_192" stroke="#000" transform="rotate(35 664.218 1413.31)" width="51.4" x="638.52" y="1398.31"/>
  <rect fill="#a5e306" height="30" id="svg_193" stroke="#000" transform="rotate(-35 937.33 1410.98)" width="59.48" x="907.59" y="1395.99"/>
  <ellipse class="grass1" cx="717.13" cy="1416.49" fill="#000000" id="svg_5" rx="20" ry="20" stroke="#000"/>
  <ellipse cx="828.97" cy="1409.49" fill="#ff0000" id="svg_17" rx="20" ry="20" stroke="#000"/>
  <rect fill="#a5e306" height="30" id="svg_189" stroke="#000" width="330.38" x="636.79" y="1411.49"/>
  <rect fill="#487d8f" height="30" id="svg_204" stroke="#000" width="176" x="140.65" y="1301.36"/>
  <rect fill="#a5e306" height="30" id="svg_205" stroke="#000" transform="rotate(35 350.051 1277.84)" width="61.44" x="319.33" y="1262.84"/>
  <rect fill="#a5e306" height="30" id="svg_220" stroke="#000" transform="rotate(-35 130.576 1277.83)" width="61.44" x="99.86" y="1262.84"/>
  <rect fill="#5b8b95" height="30" id="svg_206" stroke="#000" width="250.33" x="96.36" y="1290"/>
  <rect fill="#8bb8be" height="24" id="svg_209" stroke="#000" width="288.69" x="96.9" y="1283.1"/>
  <ellipse class="grass1" cx="1088.1" cy="404.83" fill="#000000" id="svg_3" rx="20" ry="20" stroke="#000"/>
  <rect fill="#487d8f" height="30.59" id="svg_24" stroke="#000" width="381.56" x="966.78" y="464.94"/>
  <rect fill="#5b8b95" height="40" id="svg_23" stroke="#000" width="400.5" x="946.78" y="443.59"/>
  <rect fill="#a5e306" height="30" id="svg_9" stroke="#000" transform="rotate(-35 957.37 431.076)" width="49.99" x="932.38" y="416.08"/>
  <rect fill="#8bb8be" height="226.92" id="svg_19" stroke="#000" width="40" x="1307.24" y="237.16"/>
  <rect fill="#8bb8be" height="30" id="svg_10" stroke="#000" width="381.52" x="929.4" y="433.73"/>
  <rect fill="#5b8b95" height="38" id="svg_11" opacity="0.9" stroke="#000" width="40" x="175.88" y="34"/>
  <rect fill="#487d8f" height="37" id="svg_15" opacity="0.9" stroke="#000" width="38" x="225.88" y="34"/>
  <rect fill="#8bb8be" height="36" id="svg_21" opacity="0.9" stroke="#000" width="40" x="125.88" y="34"/>
  <rect fill="#a5e306" height="38" id="svg_22" opacity="0.9" stroke="#000" width="38" x="269.32" y="32.71"/>
  <rect fill="#a8cbcc" height="39" id="svg_1" opacity="0.9" stroke="#000" width="41" x="78" y="32"/>
  <rect fill="#a8cbcc" height="40" id="svg_29" stroke="#000" width="60" x="1297.24" y="197.16"/>
  <rect fill="#a5e306" height="30" id="svg_25" stroke="#000" width="80" x="1284.34" y="187.16"/>
  <rect fill="#ff7f00" height="38" id="svg_30" opacity="0.9" stroke="#000" width="38" x="316.5" y="32.5"/>
  <rect fill="#f7ba3e" height="38" id="svg_159" opacity="0.9" stroke="#000" width="38" x="390.5" y="31.5"/>
  <text fill="#000000" font-family="Serif" font-size="24" id="svg_160" stroke="#000" stroke-width="0" text-anchor="middle" x="407" xml:space="preserve" y="25">Sand</text>
  <rect fill="#0000ff" height="38" id="svg_161" opacity="0.9" stroke="#000" width="38" x="484.5" y="30.5"/>
  <text fill="#000000" font-family="Serif" font-size="24" id="svg_162" stroke="#000" stroke-width="0" text-anchor="middle" x="498" xml:space="preserve" y="24.5">Spinner</text>
  <rect fill="#00ffff" height="38" id="svg_164" opacity="0.9" stroke="#000" width="38" x="579.5" y="32.5"/>
  <text fill="#000000" font-family="Serif" font-size="24" id="svg_165" stroke="#000" stroke-width="0" text-anchor="middle" x="593.01" xml:space="preserve" y="24.5">Water</text>
  <rect fill="#ff00ff" height="38" id="svg_166" opacity="0.9" stroke="#000" width="38" x="659.5" y="30.5"/>
  <text fill="#000000" font-family="Serif" font-size="24" id="svg_167" stroke="#000" stroke-width="0" text-anchor="middle" x="676.01" xml:space="preserve" y="26.5">Wood</text>
  <rect fill="#ffff00" height="38" id="svg_168" opacity="0.9" stroke="#000" width="38" x="733.5" y="32.5"/>
  <text fill="#000000" font-family="Serif" font-size="24" id="svg_169" stroke="#000" stroke-width="0" text-anchor="middle" x="752" xml:space="preserve" y="25.5">Bouncer</text>
  <ellipse class="tree1" cx="368.86" cy="401.08" fill="#000000" id="svg_56" rx="20" ry="20" stroke="#000" transform="matrix(1 0 0 1 0 0)"/>
  <rect fill="#487d8f" height="40" id="svg_57" stroke="#000" width="348.38" x="256.8" y="463.76"/>
  <rect fill="#a5e306" height="30" id="svg_58" stroke="#000" transform="rotate(35 621.578 429.9)" width="49.99" x="596.59" y="414.9"/>
  <rect fill="#8bb8be" height="226.92" id="svg_59" stroke="#000" width="40" x="255.39" y="233.08"/>
  <rect fill="#5b8b95" height="40" id="svg_60" stroke="#000" width="371.12" x="256.8" y="440.96"/>
  <ellipse cx="395.39" cy="303.08" fill="#00ff00" id="svg_61" rx="20" ry="20" stroke="#000"/>
  <rect fill="#8bb8be" height="30" id="svg_62" stroke="#000" width="394.53" x="256.8" y="432.56"/>
  <rect fill="#a8cbcc" height="40" id="svg_65" stroke="#000" width="60" x="245.39" y="193.08"/>
  <rect fill="#a5e306" height="30" id="svg_66" stroke="#000" width="80" x="235.39" y="183.08"/>
  <rect fill="#a5e306" height="30" id="svg_67" stroke="#000" width="351.31" x="257.16" y="401.91"/>
  <rect fill="#a5e306" height="52.04" id="svg_63" stroke="#000" width="69.33" x="306.26" y="401.04"/>
  <rect fill="#a5e306" height="50" id="svg_64" stroke="#000" width="120" x="423.86" y="403.08"/>
  <ellipse cx="932.27" cy="568.87" fill="#ff00ff" id="svg_68" rx="12.31" ry="12.31" stroke="#000"/>
  <ellipse cx="1017.05" cy="568.95" fill="#ff00ff" id="svg_71" rx="12.31" ry="12.31" stroke="#000"/>
  <ellipse cx="847.66" cy="568.87" fill="#ff00ff" id="svg_72" rx="12.31" ry="12.31" stroke="#000"/>
  <ellipse cx="747.66" cy="568.87" fill="#ff00ff" id="svg_73" rx="12.31" ry="12.31" stroke="#000"/>
  <ellipse cx="647.66" cy="568.87" fill="#ff00ff" id="svg_76" rx="12.31" ry="12.31" stroke="#000"/>
  <ellipse cx="547.66" cy="568.87" fill="#ff00ff" id="svg_77" rx="12.31" ry="12.31" stroke="#000"/>
  <ellipse cx="589.96" cy="647.03" fill="#ff00ff" id="svg_84" rx="12.31" ry="12.31" stroke="#000"/>
  <ellipse cx="689.96" cy="647.03" fill="#ff00ff" id="svg_86" rx="12.31" ry="12.31" stroke="#000"/>
  <ellipse cx="789.96" cy="647.03" fill="#ff00ff" id="svg_87" rx="12.31" ry="12.31" stroke="#000"/>
  <ellipse cx="889.96" cy="647.03" fill="#ff00ff" id="svg_88" rx="12.31" ry="12.31" stroke="#000"/>
  <ellipse cx="974.58" cy="647.03" fill="#ff00ff" id="svg_89" rx="12.31" ry="12.31" stroke="#000"/>
  <ellipse cx="932.27" cy="721.68" fill="#ff00ff" id="svg_90" rx="12.31" ry="12.31" stroke="#000"/>
  <ellipse cx="847.66" cy="721.68" fill="#ff00ff" id="svg_92" rx="12.31" ry="12.31" stroke="#000"/>
  <ellipse cx="747.66" cy="721.68" fill="#ff00ff" id="svg_93" rx="12.31" ry="12.31" stroke="#000"/>
  <ellipse cx="647.66" cy="721.68" fill="#ff00ff" id="svg_94" rx="12.31" ry="12.31" stroke="#000"/>
  <ellipse cx="547.66" cy="721.68" fill="#ff00ff" id="svg_95" rx="12.31" ry="12.31" stroke="#000"/>
  <ellipse cx="1059.2" cy="647.03" fill="#ff00ff" id="svg_96" rx="12.31" ry="12.31" stroke="#000"/>
  <ellipse cx="505.35" cy="647.03" fill="#ff00ff" id="svg_97" rx="12.31" ry="12.31" stroke="#000"/>
  <ellipse cx="589.96" cy="799.33" fill="#ff00ff" id="svg_104" rx="12.31" ry="12.31" stroke="#000"/>
  <ellipse cx="689.96" cy="799.33" fill="#ff00ff" id="svg_105" rx="12.31" ry="12.31" stroke="#000"/>
  <ellipse cx="789.96" cy="799.33" fill="#ff00ff" id="svg_106" rx="12.31" ry="12.31" stroke="#000"/>
  <ellipse cx="889.96" cy="799.33" fill="#ff00ff" id="svg_107" rx="12.31" ry="12.31" stroke="#000"/>
  <ellipse cx="974.58" cy="799.33" fill="#ff00ff" id="svg_108" rx="12.31" ry="12.31" stroke="#000"/>
  <ellipse cx="932.27" cy="873.98" fill="#ff00ff" id="svg_109" rx="12.31" ry="12.31" stroke="#000"/>
  <ellipse cx="1017.05" cy="874.06" fill="#ff00ff" id="svg_110" rx="12.31" ry="12.31" stroke="#000"/>
  <ellipse cx="847.66" cy="873.98" fill="#ff00ff" id="svg_111" rx="12.31" ry="12.31" stroke="#000"/>
  <ellipse cx="747.66" cy="873.98" fill="#ff00ff" id="svg_112" rx="12.31" ry="12.31" stroke="#000"/>
  <ellipse cx="647.66" cy="873.98" fill="#ff00ff" id="svg_113" rx="12.31" ry="12.31" stroke="#000"/>
  <ellipse cx="547.66" cy="873.98" fill="#ff00ff" id="svg_114" rx="12.31" ry="12.31" stroke="#000"/>
  <ellipse cx="1059.2" cy="799.33" fill="#ff00ff" id="svg_115" rx="12.31" ry="12.31" stroke="#000"/>
  <ellipse cx="505.35" cy="799.33" fill="#ff00ff" id="svg_116" rx="12.31" ry="12.31" stroke="#000"/>
  <ellipse cx="1017.05" cy="721.75" fill="#ff00ff" id="svg_117" rx="12.31" ry="12.31" stroke="#000"/>
  <ellipse cx="1109.36" cy="568.95" fill="#ff00ff" id="svg_119" rx="12.31" ry="12.31" stroke="#000"/>
  <ellipse cx="1109.36" cy="874.06" fill="#ff00ff" id="svg_120" rx="12.31" ry="12.31" stroke="#000"/>
  <ellipse cx="1109.36" cy="721.75" fill="#ff00ff" id="svg_121" rx="12.31" ry="12.31" stroke="#000"/>
  <ellipse cx="370.73" cy="568.87" fill="#ff00ff" id="svg_127" rx="12.31" ry="12.31" stroke="#000"/>
  <ellipse cx="411.5" cy="647.03" fill="#ff00ff" id="svg_128" rx="12.31" ry="12.31" stroke="#000"/>
  <ellipse cx="369.2" cy="721.68" fill="#ff00ff" id="svg_129" rx="12.31" ry="12.31" stroke="#000"/>
  <ellipse cx="326.89" cy="647.03" fill="#ff00ff" id="svg_130" rx="12.31" ry="12.31" stroke="#000"/>
  <ellipse cx="411.5" cy="799.33" fill="#ff00ff" id="svg_131" rx="12.31" ry="12.31" stroke="#000"/>
  <ellipse cx="369.2" cy="873.98" fill="#ff00ff" id="svg_132" rx="12.31" ry="12.31" stroke="#000"/>
  <ellipse cx="326.89" cy="799.33" fill="#ff00ff" id="svg_133" rx="12.31" ry="12.31" stroke="#000"/>
  <ellipse cx="459.96" cy="721.68" fill="#ff00ff" id="svg_134" rx="12.31" ry="12.31" stroke="#000"/>
  <ellipse cx="459.96" cy="568.87" fill="#ff00ff" id="svg_135" rx="12.31" ry="12.31" stroke="#000"/>
  <ellipse cx="458.43" cy="875.52" fill="#ff00ff" id="svg_136" rx="12.31" ry="12.31" stroke="#000"/>
  <ellipse cx="1153.04" cy="647.03" fill="#ff00ff" id="svg_137" rx="12.31" ry="12.31" stroke="#000"/>
  <ellipse cx="1153.04" cy="799.33" fill="#ff00ff" id="svg_138" rx="12.31" ry="12.31" stroke="#000"/>
  <ellipse cx="589.96" cy="948.57" fill="#ff00ff" id="svg_139" rx="12.31" ry="12.31" stroke="#000"/>
  <ellipse cx="689.96" cy="948.57" fill="#ff00ff" id="svg_140" rx="12.31" ry="12.31" stroke="#000"/>
  <ellipse cx="789.96" cy="948.57" fill="#ff00ff" id="svg_141" rx="12.31" ry="12.31" stroke="#000"/>
  <ellipse cx="889.96" cy="948.57" fill="#ff00ff" id="svg_142" rx="12.31" ry="12.31" stroke="#000"/>
  <ellipse cx="974.58" cy="948.57" fill="#ff00ff" id="svg_143" rx="12.31" ry="12.31" stroke="#000"/>
  <ellipse cx="932.27" cy="1023.22" fill="#ff00ff" id="svg_144" rx="12.31" ry="12.31" stroke="#000"/>
  <ellipse cx="1017.05" cy="1023.29" fill="#ff00ff" id="svg_145" rx="12.31" ry="12.31" stroke="#000"/>
  <ellipse cx="847.66" cy="1023.22" fill="#ff00ff" id="svg_146" rx="12.31" ry="12.31" stroke="#000"/>
  <ellipse cx="747.66" cy="1023.22" fill="#ff00ff" id="svg_147" rx="12.31" ry="12.31" stroke="#000"/>
  <ellipse cx="647.66" cy="1023.22" fill="#ff00ff" id="svg_148" rx="12.31" ry="12.31" stroke="#000"/>
  <ellipse cx="547.66" cy="1023.22" fill="#ff00ff" id="svg_149" rx="12.31" ry="12.31" stroke="#000"/>
  <ellipse cx="1059.2" cy="948.57" fill="#ff00ff" id="svg_150" rx="12.31" ry="12.31" stroke="#000"/>
  <ellipse cx="505.35" cy="948.57" fill="#ff00ff" id="svg_151" rx="12.31" ry="12.31" stroke="#000"/>
  <ellipse cx="1109.36" cy="1023.29" fill="#ff00ff" id="svg_152" rx="12.31" ry="12.31" stroke="#000"/>
  <ellipse cx="411.5" cy="948.57" fill="#ff00ff" id="svg_153" rx="12.31" ry="12.31" stroke="#000"/>
  <ellipse cx="369.2" cy="1023.22" fill="#ff00ff" id="svg_154" rx="12.31" ry="12.31" stroke="#000"/>
  <ellipse cx="326.89" cy="948.57" fill="#ff00ff" id="svg_155" rx="12.31" ry="12.31" stroke="#000"/>
  <ellipse cx="458.43" cy="1024.75" fill="#ff00ff" id="svg_156" rx="12.31" ry="12.31" stroke="#000"/>
  <ellipse cx="1153.04" cy="948.57" fill="#ff00ff" id="svg_157" rx="12.31" ry="12.31" stroke="#000"/>
  <ellipse cx="1195.51" cy="568.95" fill="#ff00ff" id="svg_158" rx="12.31" ry="12.31" stroke="#000"/>
  <ellipse cx="1237.66" cy="647.03" fill="#ff00ff" id="svg_170" rx="12.31" ry="12.31" stroke="#000"/>
  <ellipse cx="1195.51" cy="874.06" fill="#ff00ff" id="svg_172" rx="12.31" ry="12.31" stroke="#000"/>
  <ellipse cx="1237.66" cy="799.33" fill="#ff00ff" id="svg_173" rx="12.31" ry="12.31" stroke="#000"/>
  <ellipse cx="1195.51" cy="721.75" fill="#ff00ff" id="svg_174" rx="12.31" ry="12.31" stroke="#000"/>
  <ellipse cx="1287.82" cy="568.95" fill="#ff00ff" id="svg_175" rx="12.31" ry="12.31" stroke="#000"/>
  <ellipse cx="1287.82" cy="874.06" fill="#ff00ff" id="svg_176" rx="12.31" ry="12.31" stroke="#000"/>
  <ellipse cx="1287.82" cy="721.75" fill="#ff00ff" id="svg_177" rx="12.31" ry="12.31" stroke="#000"/>
  <ellipse cx="1331.5" cy="647.03" fill="#ff00ff" id="svg_178" rx="12.31" ry="12.31" stroke="#000"/>
  <ellipse cx="1331.5" cy="799.33" fill="#ff00ff" id="svg_179" rx="12.31" ry="12.31" stroke="#000"/>
  <ellipse cx="1196.42" cy="1023.29" fill="#ff00ff" id="svg_181" rx="12.31" ry="12.31" stroke="#000"/>
  <ellipse cx="1237.66" cy="948.57" fill="#ff00ff" id="svg_182" rx="12.31" ry="12.31" stroke="#000"/>
  <ellipse cx="1287.82" cy="1023.29" fill="#ff00ff" id="svg_183" rx="12.31" ry="12.31" stroke="#000"/>
  <ellipse cx="1331.5" cy="948.57" fill="#ff00ff" id="svg_184" rx="12.31" ry="12.31" stroke="#000"/>
  <rect fill="#487d8f" height="30" id="svg_185" stroke="#000" width="268.33" x="666.92" y="1465.74"/>
  <rect fill="#5b8b95" height="30" id="svg_186" stroke="#000" width="310.16" x="649.64" y="1454.39"/>
  <rect fill="#8bb8be" height="67.33" id="svg_212" stroke="#000" width="40" x="932.95" y="1381.83"/>
  <rect fill="#8bb8be" height="66" id="svg_213" stroke="#000" width="40" x="631.58" y="1381.83"/>
  <rect fill="#8bb8be" height="34" id="svg_187" stroke="#000" width="341.63" x="630.93" y="1437.49"/>
  <rect fill="#a5e306" height="40" id="svg_190" stroke="#000" width="100" x="694.18" y="1411.49"/>
  <rect fill="#a5e306" height="42" id="svg_191" stroke="#000" width="70" x="877.22" y="1411.49"/>
  <rect fill="#487d8f" height="30" id="svg_195" stroke="#000" width="176" x="1277.96" y="1301.36"/>
  <rect fill="#a5e306" height="30" id="svg_203" stroke="#000" transform="rotate(-35 1275.19 1277.84)" width="61.44" x="1244.47" y="1262.84"/>
  <rect fill="#a5e306" height="30" id="svg_219" stroke="#000" transform="rotate(35 1495.06 1277.83)" width="61.44" x="1464.34" y="1262.84"/>
  <rect fill="#5b8b95" height="30" id="svg_196" stroke="#000" width="245" x="1256.96" y="1290"/>
  <ellipse class="tree2" cx="1407.26" cy="1254.1" fill="#000000" id="svg_198" rx="20" ry="20" stroke="#000" transform="matrix(1 0 0 1 0 0)"/>
  <rect fill="#a5e306" height="42" id="svg_199" stroke="#000" width="79.89" x="1398.96" y="1247.1"/>
  <rect fill="#8bb8be" height="24.29" id="svg_197" stroke="#000" width="288.17" x="1241.49" y="1283.1"/>
  <rect fill="#a5e306" height="40" id="svg_200" stroke="#000" width="109" x="1291.96" y="1247.1"/>
  <rect fill="#a5e306" height="42" id="svg_201" stroke="#000" width="40.43" x="1419.59" y="1247.1"/>
  <ellipse class="tree2" cx="193.08" cy="1247.1" fill="#000000" id="svg_207" rx="20" ry="20" stroke="#000" transform="matrix(1 0 0 1 0 0)"/>
  <rect fill="#a5e306" height="42" id="svg_208" stroke="#000" width="126.85" x="204.08" y="1247.1"/>
  <rect fill="#a5e306" height="45.33" id="svg_210" stroke="#000" width="58.28" x="147.8" y="1247.1"/>
  <rect fill="#a5e306" height="47.33" id="svg_211" stroke="#000" width="70" x="237.87" y="1247.1"/>
  <rect fill="#487d8f" height="14" id="svg_216" stroke="#000" width="55" x="624.06" y="1371.08"/>
  <rect fill="#a5e306" height="14" id="svg_215" stroke="#000" width="72" x="615.26" y="1363.97"/>
  <rect fill="#487d8f" height="14" id="svg_217" stroke="#000" width="55" x="927.23" y="1371.08"/>
  <rect fill="#a5e306" height="14" id="svg_218" stroke="#000" width="72" x="918.44" y="1363.97"/>
  <rect fill="#a5e306" height="30" id="svg_224" stroke="#000" width="339.72" x="968.02" y="404.81"/>
  <rect fill="#a5e306" height="50.71" id="svg_35" stroke="#000" width="77.33" x="1000.08" y="403.55"/>
  <rect fill="#a5e306" height="52.04" id="svg_225" stroke="#000" width="38.9" x="1129.75" y="405.39"/>
  <path d="m1179.22,404.53l102.61,0l0,50l-102.61,0l0,-50z" fill="#a5e306" id="svg_226" opacity="undefined" stroke="#000"/>
 </g>
</svg>