<?xml version="1.0"?>
<svg width="2000" height="1000" xmlns="http://www.w3.org/2000/svg" xmlns:svg="http://www.w3.org/2000/svg">
 <title>course1</title>
 <g class="layer">
  <title>Hill Climb, 5</title>
  <ellipse class="tree4" cx="336" cy="488" fill="#000000" id="svg_60" rx="23" ry="23" stroke="#000"/>
  <ellipse class="grass1" cx="742.5" cy="516.5" fill="#000000" id="svg_61" rx="23" ry="23" stroke="#000" transform="matrix(1 0 0 1 0 0)"/>
  <ellipse class="tree2" cx="1217.5" cy="839.5" fill="#000000" id="svg_62" rx="23" ry="23" stroke="#000"/>
  <rect class="water" fill="#00ffff" height="94" id="svg_59" stroke="#000" width="468" x="1293" y="843"/>
  <rect fill="#487d8f" height="38" id="svg_24" stroke="#000" width="788" x="1094.88" y="922.27"/>
  <rect fill="#8bb8be" height="391" id="svg_47" stroke="#000" transform="rotate(48.0216 1392.5 325.5)" width="40" x="1372.5" y="130"/>
  <rect fill="#487d8f" height="124" id="svg_51" stroke="#000" width="56" x="672.5" y="276.5"/>
  <rect fill="#5b8b95" height="79" id="svg_45" stroke="#000" width="211" x="848.5" y="162"/>
  <rect fill="#487d8f" height="163" id="svg_44" stroke="#000" width="56" x="902" y="235.5"/>
  <rect fill="#5b8b95" height="132" id="svg_43" stroke="#000" width="142" x="879.5" y="186.5"/>
  <rect fill="#487d8f" height="57" id="svg_42" stroke="#000" transform="matrix(1 0 0 1 0 0)" width="98" x="658" y="250.5"/>
  <rect fill="#5b8b95" height="54" id="svg_41" stroke="#000" width="142" x="635.5" y="201.5"/>
  <rect fill="#487d8f" height="38" id="svg_40" stroke="#000" transform="matrix(1 0 0 1 0 0)" width="235" x="89" y="582.5"/>
  <rect fill="#5b8b95" height="38" id="svg_39" stroke="#000" width="300" x="61.5" y="551.5"/>
  <rect fill="#487d8f" height="76" id="svg_34" stroke="#000" width="64" x="696.88" y="579.27"/>
  <rect fill="#5b8b95" height="29" id="svg_32" stroke="#000" transform="matrix(1 0 0 1 0 0)" width="99" x="681.88" y="553.27"/>
  <rect fill="#5b8b95" height="41" id="svg_31" stroke="#000" transform="matrix(1 0 0 1 0 0)" width="157" x="1751.88" y="888.27"/>
  <rect fill="#8bb8be" height="30" id="svg_30" stroke="#000" width="182" x="1752.88" y="862.27"/>
  <rect fill="#5b8b95" height="38" id="svg_23" stroke="#000" transform="matrix(1 0 0 1 0 0)" width="228" x="1065.88" y="892.27"/>
  <ellipse cx="202.88" cy="367.27" fill="#00ff00" id="svg_16" rx="15" ry="15" stroke="#000" transform="matrix(1 0 0 1 0 0)"/>
  <ellipse cx="1879.88" cy="842.27" fill="#ff0000" id="svg_17" rx="15" ry="15" stroke="#000"/>
  <rect fill="#8bb8be" height="50" id="svg_10" stroke="#000" transform="matrix(1 0 0 1 0 0)" width="253" x="1040.88" y="852.27"/>
  <rect fill="#a5e306" height="32" id="svg_9" stroke="#000" width="279" x="1015.88" y="842.27"/>
  <rect fill="#5b8b95" height="38" id="svg_11" opacity="0.9" stroke="#000" transform="matrix(1 0 0 1 0 0)" width="40" x="1127.88" y="34"/>
  <rect fill="#487d8f" height="37" id="svg_15" opacity="0.9" stroke="#000" transform="matrix(1 0 0 1 0 0)" width="38" x="1179.88" y="35"/>
  <rect fill="#8bb8be" height="36" id="svg_21" opacity="0.9" stroke="#000" transform="matrix(1 0 0 1 0 0)" width="40" x="1073.88" y="35"/>
  <rect fill="#a5e306" height="38" id="svg_22" opacity="0.9" stroke="#000" width="38" x="1242.32" y="30.71"/>
  <rect fill="#8bb8be" height="24" id="svg_27" stroke="#000" width="128" x="667.88" y="537.27"/>
  <rect fill="#a5e306" height="25" id="svg_28" stroke="#000" width="195" x="1753.88" y="843.27"/>
  <rect fill="#a5e306" height="25" id="svg_29" stroke="#000" width="164" x="649.88" y="517.27"/>
  <rect fill="#a5e306" height="46" id="svg_35" stroke="#000" width="107" x="1123.88" y="842.27"/>
  <rect fill="#a5e306" height="31" id="svg_36" stroke="#000" transform="matrix(1 0 0 1 0 0)" width="46" x="723.88" y="517.27"/>
  <rect fill="#a5e306" height="30" id="svg_37" stroke="#000" width="44" x="1868.88" y="843.27"/>
  <rect fill="#a8cbcc" height="39" id="svg_1" opacity="0.9" stroke="#000" transform="matrix(1 0 0 1 0 0)" width="41" x="1025" y="35"/>
  <rect fill="#8bb8be" height="391" id="svg_12" stroke="#000" width="40" x="47.5" y="165.5"/>
  <rect fill="#8bb8be" height="50" id="svg_13" stroke="#000" width="301" x="88.5" y="506.5"/>
  <rect fill="#a8cbcc" height="39" id="svg_2" stroke="#000" width="1520" x="38" y="134"/>
  <rect fill="#a5e306" height="32" id="svg_38" stroke="#000" width="321" x="88" y="487.5"/>
  <rect fill="#a5e306" height="46" id="svg_26" stroke="#000" transform="matrix(1 0 0 1 0 0)" width="107" x="196" y="487.5"/>
  <rect fill="#a5e306" height="30" id="svg_46" stroke="#000" width="44" x="1768.5" y="843.5"/>
  <rect fill="#a5e306" height="32" id="svg_56" stroke="#000" transform="matrix(1 0 0 1 0 0) rotate(-41.8201 1349.28 326.696)" width="391.84" x="1153.36" y="310.7"/>
  <rect fill="#8bb8be" height="42" id="svg_25" stroke="#000" width="1462" x="88.88" y="167.27"/>
  <rect class="spin" fill="#0000ff" height="168" id="svg_57" stroke="#000" width="24" x="520" y="414"/>
  <rect class="spin" fill="#0000ff" height="168" id="svg_58" stroke="#000" width="24" x="1024.5" y="506.5"/>
 </g>
</svg>