<svg width="3181" height="1676" xmlns="http://www.w3.org/2000/svg" stroke="null" style="vector-effect: non-scaling-stroke;">
 <title stroke="null" style="vector-effect: non-scaling-stroke;">course1</title>

 <g stroke="null" class="layer">
  <title stroke="null">Easy As Pie, 4</title>
  <rect stroke="#000" fill="#8bb8be" height="61.99989" id="svg_275" width="142.15173" x="2760.39086" y="976.00926"/>
  <rect stroke="#000" fill="#8bb8be" height="47.99994" id="svg_270" width="76.85783" x="2706.68671" y="1006.00916"/>
  <rect transform="rotate(-25 2743.02 997.2)" stroke="#000" fill="#a5e306" height="30" id="svg_289" width="138.45292" x="2673.79632" y="982.2002"/>
  <rect stroke="#000" fill="#8bb8be" height="67.99988" id="svg_273" width="423.52219" x="2475.94614" y="1090.16863"/>
  <rect stroke="#000" fill="#8bb8be" height="67.99988" id="svg_269" width="143.07416" x="2426.9191" y="1107.94665"/>
  <rect transform="rotate(-30 2494.48 1082.72)" stroke="#000" fill="#a5e306" height="29.64686" id="svg_274" width="216.75315" x="2386.10359" y="1067.89693"/>
  <rect stroke="#000" fill="#a5e306" height="25.99999" id="svg_290" width="105.71462" x="2579.27463" y="1013.68814"/>
  <rect transform="rotate(30 255.269 780.23)" stroke="#000" fill="#a5e306" height="56.19613" id="svg_133" width="115.73221" x="197.40297" y="752.13172"/>
  <ellipse stroke="#000" class="tree1" cx="1260.41845" cy="1256.21196" fill="#000000" id="svg_352" rx="20" ry="20"/>
  <rect stroke="#000" fill="#8bb8be" height="16.353" id="svg_309" width="941.42018" x="1064.22495" y="541.8646"/>
  <rect stroke="#000" fill="#8bb8be" height="14.19614" id="svg_237" width="974.36132" x="1052.96339" y="556.78237"/>
  <rect stroke="#000" fill="#8bb8be" height="31.82992" id="svg_318" width="222.05407" x="1056.6911" y="901.60834"/>
  <rect stroke="#000" fill="#8bb8be" height="17.71227" id="svg_317" width="280.22469" x="1030.93919" y="916.78622"/>
  <path id="svg_303" d="m1063.74988,894.98959l207.93643,0l0,38.88874l-207.93643,0l0,-38.88874z" opacity="undefined" stroke="#000" fill="#8bb8be"/>
  <rect stroke="#000" fill="#8bb8be" height="21.05888" id="svg_314" width="188.74055" x="1788.31957" y="521.86461"/>
  <rect stroke="#000" fill="#8bb8be" height="56.35299" id="svg_313" width="71.09348" x="1847.14307" y="495.98228"/>
  <rect stroke="#000" fill="#8bb8be" height="21.05888" id="svg_312" width="121.68174" x="1822.43722" y="501.31844"/>
  <rect stroke="#000" fill="#8bb8be" height="21.05888" id="svg_311" width="116.97585" x="1125.40147" y="501.31844"/>
  <rect stroke="#000" fill="#8bb8be" height="56.35299" id="svg_173" width="71.09348" x="1150.10731" y="501.86464"/>
  <rect stroke="#000" fill="#8bb8be" height="21.05888" id="svg_310" width="182.85819" x="1092.46029" y="521.86461"/>
  <rect stroke="#000" fill="#487d8f" height="40" id="svg_267" width="348.57132" x="186.31822" y="1202.57616"/>
  <rect stroke="#000" fill="#8bb8be" height="57.99987" id="svg_266" width="239.07429" x="432.48113" y="1117.94666"/>
  <rect transform="rotate(-30 2747.93 770.959)" stroke="#000" fill="#a5e306" height="56.19613" id="svg_262" width="125.39247" x="2685.23039" y="742.86128"/>
  <rect stroke="#000" fill="#a5e306" height="69.99993" id="svg_263" width="98.00007" x="2788.32497" y="717.14318"/>
  <rect stroke="#000" fill="#8bb8be" height="47.99994" id="svg_231" width="76.85783" x="215.8097" y="1006.00916"/>
  <rect stroke="#000" fill="#5b8b95" height="16.35296" id="svg_172" width="1021.94981" x="1024.11412" y="564.92342"/>
  <rect stroke="#000" fill="#5b8b95" height="22.26144" id="svg_193" width="1073.19199" x="998.84421" y="579.13259"/>
  <rect stroke="#000" fill="#5b8b95" height="12.41183" id="svg_171" width="1133.98754" x="968.50372" y="594.394"/>
  <rect stroke="#000" fill="#a5e306" height="30" id="svg_104" width="213.71427" x="286.1005" y="1059.7664"/>
  <ellipse stroke="#000" style="vector-effect: non-scaling-stroke;" class="tree1" cx="502.19757" cy="1043.76645" fill="#000000" id="svg_2" rx="20" ry="20"/>
  <rect stroke="#000" fill="#8bb8be" height="67.99988" id="svg_111" width="439.5222" x="105.81005" y="1090.16863"/>
  <rect transform="rotate(30 505.995 1078.87)" stroke="#000" fill="#a5e306" height="27.64686" id="svg_157" width="204.82493" x="403.58209" y="1065.04872"/>
  <rect stroke="#000" fill="#8bb8be" height="61.99989" id="svg_152" width="142.15173" x="106.51594" y="976.00926"/>
  <rect stroke="#000" fill="#8bb8be" height="32" id="svg_116" width="325.32763" x="108.51593" y="1028.00909"/>
  <rect stroke="#000" fill="#487d8f" height="40" id="svg_17" width="368.89306" x="2457.85565" y="856.38544"/>
  <ellipse stroke="#000" fill="#ff0000" cx="1530.46421" cy="1326.73455" id="svg_56" rx="19" ry="19"/>
  <ellipse stroke="#000" class="grass1" cx="568.24986" cy="777.49701" fill="#000000" id="svg_5" rx="20" ry="20"/>
  <ellipse stroke="#000" class="tree1" cx="388.24986" cy="777.49701" fill="#000000" id="svg_3" rx="20" ry="20"/>
  <rect stroke="#000" fill="#487d8f" height="30" id="svg_89" width="622.66829" x="106.66652" y="1190.74"/>
  <rect stroke="#000" fill="#487d8f" height="40" id="svg_24" width="348.57132" x="199.67842" y="873.15187"/>
  <rect stroke="#000" fill="#5b8b95" height="40" id="svg_23" width="545.71402" x="118.24986" y="857.49701"/>
  <ellipse stroke="#000" cx="1529.77115" cy="490.89881" fill="#00ff00" id="svg_16" rx="20" ry="20"/>
  <rect stroke="#000" fill="#8bb8be" height="50" id="svg_10" width="562.85688" x="118.24986" y="807.49701"/>
  <rect stroke="#000" fill="#a5e306" height="69.99993" id="svg_134" width="98.00007" x="120.27377" y="728.8287"/>
  <rect transform="rotate(39 168.006 782.536)" stroke="#000" style="vector-effect: non-scaling-stroke;" fill="#8bb8be" height="30.22139" id="svg_135" width="37.73366" x="149.13926" y="767.42547"/>
  <rect stroke="#000" fill="#a5e306" height="21.99999" id="svg_9" width="580" x="118.24986" y="787.69506"/>
  <rect stroke="#000" fill="#5b8b95" height="38" id="svg_11" opacity="0.9" width="40" x="175.88" y="34"/>
  <rect stroke="#000" fill="#487d8f" height="37" id="svg_15" opacity="0.9" width="38" x="225.88" y="34"/>
  <rect stroke="#000" fill="#8bb8be" height="36" id="svg_21" opacity="0.9" width="40" x="125.88" y="34"/>
  <rect stroke="#000" fill="#a5e306" height="38" id="svg_22" opacity="0.9" width="38" x="269.32" y="32.71"/>
  <rect stroke="#000" fill="#a5e306" height="50" id="svg_35" width="100" x="218.24986" y="777.49701"/>
  <rect stroke="#000" fill="#a8cbcc" height="39" id="svg_1" opacity="0.9" width="41" x="78" y="32"/>
  <rect stroke="#000" style="vector-effect: non-scaling-stroke;" fill="#a5e306" height="30" id="svg_13" width="157.71446" x="110.4842" y="1059.7664"/>
  <rect stroke="#000" fill="#a5e306" height="50" id="svg_26" width="120" x="458.24986" y="777.49701"/>
  <rect stroke="#000" fill="#a5e306" height="40" id="svg_44" width="13.64733" x="105.88867" y="1059.7664"/>
  <rect stroke="#000" fill="#ff7f00" height="38" id="svg_30" opacity="0.9" width="38" x="316.5" y="32.5"/>
  <rect stroke="#000" fill="#f7ba3e" height="38" id="svg_159" opacity="0.9" width="38" x="390.5" y="31.5"/>
  <text stroke="#000" fill="#000000" font-family="Serif" font-size="24" id="svg_160" stroke-width="0" text-anchor="middle" x="407" xml:space="preserve" y="25">Sand</text>
  <rect stroke="#000" fill="#0000ff" height="38" id="svg_161" opacity="0.9" width="38" x="484.5" y="30.5"/>
  <text stroke="#000" fill="#000000" font-family="Serif" font-size="24" id="svg_162" stroke-width="0" text-anchor="middle" x="498" xml:space="preserve" y="24.5">Spinner</text>
  <rect stroke="#000" fill="#00ffff" height="38" id="svg_164" opacity="0.9" width="38" x="579.5" y="32.5"/>
  <text stroke="#000" fill="#000000" font-family="Serif" font-size="24" id="svg_165" stroke-width="0" text-anchor="middle" x="593.01" xml:space="preserve" y="24.5">Water</text>
  <rect stroke="#000" fill="#ff00ff" height="38" id="svg_166" opacity="0.9" width="38" x="655.5" y="37.83327"/>
  <text stroke="#000" fill="#000000" font-family="Serif" font-size="24" id="svg_167" stroke-width="0" text-anchor="middle" x="676.01" xml:space="preserve" y="26.5">Wood</text>
  <rect stroke="#000" fill="#ffff00" height="38" id="svg_168" opacity="0.9" width="38" x="729.5" y="35.38882"/>
  <text stroke="#000" fill="#000000" font-family="Serif" font-size="24" id="svg_169" stroke-width="0" text-anchor="middle" x="752" xml:space="preserve" y="25.5">Bouncer</text>
  <rect stroke="#000" fill="#a5e306" height="50" id="svg_45" width="70" x="166.19867" y="1059.7664"/>
  <ellipse stroke="#000" class="grass1" cx="2639.38951" cy="777.41011" fill="#000000" id="svg_57" rx="20" ry="20"/>
  <ellipse stroke="#000" class="tree1" cx="2543.86434" cy="777.41011" fill="#000000" id="svg_58" rx="20" ry="20"/>
  <rect stroke="#000" fill="#487d8f" height="40" id="svg_59" width="566.12604" x="2320.9189" y="836.70029"/>
  <rect stroke="#000" fill="#8bb8be" height="50" id="svg_61" width="588.85635" x="2297.86434" y="791.26795"/>
  <rect stroke="#000" fill="#a5e306" height="19.99999" id="svg_62" width="614" x="2273.86434" y="777.4101"/>
  <rect stroke="#000" fill="#a5e306" height="50" id="svg_63" width="100" x="2373.86434" y="777.41011"/>
  <rect stroke="#000" fill="#a5e306" height="50" id="svg_64" width="120" x="2613.86434" y="777.41011"/>
  <rect stroke="#000" fill="#487d8f" height="36.00001" id="svg_96" width="841.99908" x="106.67698" y="1162.74"/>
  <rect stroke="#000" fill="#a5e306" height="23.99998" id="svg_101" width="222.5174" x="583.16335" y="1112.29793"/>
  <rect stroke="#000" style="vector-effect: non-scaling-stroke;" fill="#5b8b95" height="30" id="svg_102" width="78.28641" x="756.3902" y="1138.74"/>
  <rect stroke="#000" fill="#a5e306" height="40" id="svg_105" width="100" x="267.15197" y="1059.7664"/>
  <rect stroke="#000" fill="#a5e306" height="21.99999" id="svg_108" width="94.5176" x="890.60158" y="1140.29792"/>
  <rect transform="rotate(17 849.383 1139.23)" stroke="#000" fill="#a5e306" height="25.34264" id="svg_110" width="100.63178" x="799.06672" y="1126.56251"/>
  <rect stroke="#000" fill="#5b8b95" height="30" id="svg_8" width="788.2842" x="106.38139" y="1148.73997"/>
  <rect stroke="#000" fill="#a5e306" height="27.64706" id="svg_153" width="102.18521" x="106.01366" y="954.04129"/>
  <rect transform="rotate(25 265.074 997.2)" stroke="#000" style="vector-effect: non-scaling-stroke;" fill="#a5e306" height="30" id="svg_155" width="138.45292" x="195.8498" y="982.2002"/>
  <rect stroke="#000" fill="#a5e306" height="30" id="svg_156" width="105.71462" x="316.48355" y="1013.68815"/>
  <ellipse stroke="#000" class="grass1" cx="1738.67324" cy="527.9192" fill="#000000" id="svg_175" rx="20" ry="20"/>
  <ellipse stroke="#000" class="tree1" cx="1341.11313" cy="532.80565" fill="#000000" id="svg_176" rx="20" ry="20"/>
  <rect stroke="#000" fill="#a5e306" height="15.30718" id="svg_177" width="60.22404" x="1157.36795" y="485.02804"/>
  <rect stroke="#000" fill="#a5e306" height="50" id="svg_179" width="102.35294" x="653.00355" y="1111.50011"/>
  <rect transform="rotate(30 1259.73 521.135)" stroke="#000" fill="#a5e306" height="18.02049" id="svg_182" width="110.06876" x="1204.69336" y="512.12492"/>
  <rect stroke="#000" fill="#a5e306" height="14.06535" id="svg_235" width="60.22404" x="1853.83587" y="485.02804"/>
  <rect transform="rotate(-30 1809.93 518.507)" stroke="#000" fill="#a5e306" height="17.43364" id="svg_234" width="105.99334" x="1756.92999" y="509.79028"/>
  <rect transform="rotate(30 2006.81 546.871)" stroke="#000" fill="#a5e306" height="16.00096" id="svg_236" width="220.64346" x="1896.48519" y="538.87031"/>
  <ellipse stroke="#000" class="grass1" cx="1792.67332" cy="1256.63306" fill="#000000" id="svg_248" rx="20" ry="20"/>
  <ellipse stroke="#000" class="tree1" cx="1341.11313" cy="1313.05151" fill="#000000" id="svg_249" rx="20" ry="20"/>
  <rect stroke="#000" fill="#487d8f" height="40" id="svg_268" width="348.57132" x="2433.0831" y="1202.57616"/>
  <rect stroke="#000" fill="#a5e306" height="30" id="svg_271" width="213.71427" x="2687.55571" y="1059.7664"/>
  <ellipse stroke="#000" class="tree1" cx="2354.41991" cy="1108.21176" fill="#000000" id="svg_272" rx="20" ry="20"/>
  <rect stroke="#000" fill="#8bb8be" height="32" id="svg_276" width="335.32765" x="2567.12602" y="1030.23134"/>
  <rect stroke="#000" fill="#a5e306" height="30" id="svg_278" width="185.7145" x="2508.15061" y="1059.7664"/>
  <rect stroke="#000" fill="#487d8f" height="30" id="svg_277" width="622.66829" x="2272.72581" y="1190.74"/>
  <rect stroke="#000" fill="#a5e306" height="50" id="svg_280" width="70" x="2642.86462" y="1059.7664"/>
  <rect stroke="#000" fill="#487d8f" height="30" id="svg_281" width="841.99908" x="2054.16216" y="1168.74"/>
  <rect stroke="#000" fill="#a5e306" height="33.99999" id="svg_282" width="222.5174" x="2191.56266" y="1112.29792"/>
  <rect stroke="#000" fill="#a5e306" height="28" id="svg_285" width="94.5176" x="2008.36704" y="1140.29791"/>
  <path id="svg_287" d="m2107.28418,1139.99003l788.28418,0l0,36.66676l-788.28418,0l0,-36.66676z" opacity="undefined" stroke="#000" fill="#5b8b95"/>
  <rect transform="rotate(-17 2146.97 1139.23)" stroke="#000" fill="#a5e306" height="25.34264" id="svg_286" width="100.63178" x="2096.66085" y="1126.56251"/>
  <rect stroke="#000" fill="#a5e306" height="27.64706" id="svg_288" width="102.18521" x="2802.59632" y="954.04129"/>
  <rect stroke="#000" fill="#a5e306" height="50" id="svg_291" width="102.35294" x="2217.80296" y="1111.50011"/>
  <rect stroke="#000" fill="#8bb8be" height="17.71227" id="svg_300" width="321.40115" x="1008.58625" y="929.78076"/>
  <rect stroke="#000" fill="#5b8b95" height="30.58824" id="svg_301" width="386.88777" x="975.58065" y="944.40669"/>
  <rect stroke="#000" fill="#487d8f" height="23.13708" id="svg_302" width="449.87952" x="945.0317" y="963.69068"/>
  <rect stroke="#000" fill="#487d8f" height="14.90178" id="svg_304" width="503.2139" x="916.79584" y="981.33802"/>
  <rect transform="rotate(30 1340.5 939.941)" stroke="#000" fill="#a5e306" height="16.35966" id="svg_305" width="206.24938" x="1237.37251" y="931.76093"/>
  <rect transform="rotate(-30 994.74 941.108)" stroke="#000" fill="#a5e306" height="15.45959" id="svg_306" width="205.66114" x="891.90915" y="933.37812"/>
  <rect stroke="#000" fill="#a5e306" height="14.70589" id="svg_307" width="171.77181" x="1082.16488" y="880.69545"/>
  <rect stroke="#000" fill="#8bb8be" height="31.82992" id="svg_319" width="222.05407" x="1809.0777" y="901.60834"/>
  <rect stroke="#000" fill="#8bb8be" height="17.71227" id="svg_320" width="280.22469" x="1783.32579" y="916.78622"/>
  <path id="svg_321" d="m1816.13648,894.98959l207.93643,0l0,38.88873l-207.93643,0l0,-38.88873z" opacity="undefined" stroke="#000" fill="#8bb8be"/>
  <rect stroke="#000" fill="#8bb8be" height="17.71227" id="svg_322" width="321.40115" x="1760.97284" y="929.78076"/>
  <rect stroke="#000" fill="#5b8b95" height="30.58824" id="svg_323" width="386.88777" x="1727.96725" y="944.40669"/>
  <rect stroke="#000" fill="#487d8f" height="23.13708" id="svg_324" width="449.87952" x="1697.4183" y="963.69068"/>
  <rect stroke="#000" fill="#487d8f" height="14.90178" id="svg_325" width="503.2139" x="1669.18244" y="981.33802"/>
  <rect transform="rotate(30 2092.89 939.941)" stroke="#000" fill="#a5e306" height="16.35966" id="svg_326" width="206.24938" x="1989.7591" y="931.76093"/>
  <rect transform="rotate(-30 1747.13 941.108)" stroke="#000" fill="#a5e306" height="15.45959" id="svg_327" width="205.66114" x="1644.29575" y="933.37812"/>
  <rect stroke="#000" fill="#a5e306" height="14.70589" id="svg_328" width="171.77181" x="1834.55147" y="880.69545"/>
  <rect transform="rotate(-30 1063.86 547.982)" stroke="#000" fill="#a5e306" height="16.00096" id="svg_330" width="220.64346" x="953.53649" y="539.98142"/>
  <rect stroke="#000" fill="#a5e306" height="18.88893" id="svg_184" width="462.22223" x="1304.78236" y="537.00389"/>
  <rect stroke="#000" fill="#8bb8be" height="16.353" id="svg_331" width="941.42018" x="1064.22495" y="1319.26214"/>
  <rect stroke="#000" fill="#8bb8be" height="14.19614" id="svg_332" width="974.36132" x="1052.96339" y="1334.1799"/>
  <rect stroke="#000" fill="#8bb8be" height="21.05888" id="svg_336" width="813.89896" x="1125.40134" y="1278.71568"/>
  <rect stroke="#000" fill="#8bb8be" height="21.05888" id="svg_338" width="887.4736" x="1092.46017" y="1299.26215"/>
  <rect stroke="#000" fill="#5b8b95" height="16.35296" id="svg_339" width="1021.94981" x="1024.11412" y="1342.32096"/>
  <rect stroke="#000" fill="#5b8b95" height="22.26144" id="svg_340" width="1073.19199" x="998.84421" y="1356.53013"/>
  <rect stroke="#000" fill="#5b8b95" height="12.41183" id="svg_341" width="1133.98754" x="968.50372" y="1371.79154"/>
  <rect stroke="#000" fill="#a5e306" height="15.30718" id="svg_345" width="706.37789" x="1157.36828" y="1262.42558"/>
  <rect stroke="#000" fill="#a5e306" height="14.06535" id="svg_347" width="60.22404" x="1853.83587" y="1262.42558"/>
  <rect transform="rotate(30 2006.81 1324.27)" stroke="#000" fill="#a5e306" height="16.00096" id="svg_349" width="220.64346" x="1896.48519" y="1316.26785"/>
  <rect transform="rotate(-30 1063.86 1325.38)" stroke="#000" fill="#a5e306" height="16.00096" id="svg_350" width="220.64346" x="953.53649" y="1317.37896"/>
 </g>
</svg>