<?xml version="1.0"?>
<svg width="2000" height="1000" xmlns="http://www.w3.org/2000/svg" xmlns:svg="http://www.w3.org/2000/svg">
 <title>course1</title>
 <g class="layer">
  <title>Up and Over, 5</title>
  <ellipse class="tree1" cx="858" cy="848" fill="#000000" id="svg_18" rx="20" ry="20" stroke="#000"/>
  <ellipse class="grass1" cx="108" cy="778" fill="#000000" id="svg_2" rx="20" ry="20" stroke="#000"/>
  <ellipse class="grass1" cx="1298" cy="508" fill="#000000" id="svg_5" rx="20" ry="20" stroke="#000"/>
  <ellipse class="tree1" cx="1768" cy="188" fill="#000000" id="svg_3" rx="20" ry="20" stroke="#000"/>
  <ellipse cx="168" cy="708" fill="#00ff00" id="svg_16" rx="20" ry="20" stroke="#000"/>
  <ellipse cx="1373" cy="507" fill="#ff0000" id="svg_17" rx="20" ry="20" stroke="#000"/>
  <rect fill="#5b8b95" height="38" id="svg_11" opacity="0.9" stroke="#000" width="40" x="274.88" y="131"/>
  <rect fill="#487d8f" height="37" id="svg_15" opacity="0.9" stroke="#000" width="38" x="326.88" y="132"/>
  <rect fill="#8bb8be" height="36" id="svg_21" opacity="0.9" stroke="#000" width="40" x="220.88" y="132"/>
  <rect fill="#a5e306" height="38" id="svg_22" opacity="0.9" stroke="#000" width="38" x="378.32" y="131.71"/>
  <rect fill="#a8cbcc" height="39" id="svg_1" opacity="0.9" stroke="#000" width="41" x="172" y="132"/>
  <rect fill="#5b8b95" height="30" id="svg_8" stroke="#000" width="290" x="1238" y="568"/>
  <rect fill="#8bb8be" height="30" id="svg_12" stroke="#000" width="350" x="1208" y="538"/>
  <rect fill="#a5e306" height="30" id="svg_13" stroke="#000" width="390" x="1188" y="508"/>
  <rect fill="#a5e306" height="40" id="svg_44" stroke="#000" width="100" x="1258" y="508"/>
  <rect fill="#a5e306" height="50" id="svg_45" stroke="#000" width="70" x="1438" y="508"/>
  <rect fill="#a5e306" height="30" id="svg_25" stroke="#000" width="230" x="58" y="778"/>
  <rect fill="#487d8f" height="110" id="svg_30" stroke="#000" width="50" x="1348" y="598"/>
  <rect fill="#487d8f" height="70" id="svg_31" stroke="#000" width="40" x="1398" y="598"/>
  <rect fill="#487d8f" height="30" id="svg_51" stroke="#000" width="120" x="1668" y="278"/>
  <rect fill="#5b8b95" height="30" id="svg_50" stroke="#000" width="190" x="1628" y="248"/>
  <rect fill="#8bb8be" height="30" id="svg_49" stroke="#000" width="240" x="1608" y="218"/>
  <rect fill="#a5e306" height="30" id="svg_48" stroke="#000" width="290" x="1588" y="188"/>
  <rect fill="#a5e306" height="50" id="svg_37" stroke="#000" width="70" x="1648" y="188"/>
  <rect fill="#487d8f" height="30" id="svg_54" stroke="#000" width="90" x="118" y="868"/>
  <rect fill="#5b8b95" height="30" id="svg_53" stroke="#000" width="140" x="88" y="838"/>
  <rect fill="#8bb8be" height="30" id="svg_52" stroke="#000" width="190" x="68" y="808"/>
  <rect fill="#a5e306" height="30" id="svg_10" stroke="#000" width="230" x="718" y="848"/>
  <rect fill="#487d8f" height="30" id="svg_9" stroke="#000" width="924" x="778" y="938"/>
  <rect fill="#5b8b95" height="30" id="svg_7" stroke="#000" width="344" x="758" y="908"/>
  <rect fill="#8bb8be" height="30" id="svg_6" stroke="#000" width="293" x="728" y="878"/>
  <rect fill="#a5e306" height="50" id="svg_14" stroke="#000" width="70" x="808" y="848"/>
  <ellipse class="tree3" cx="1818" cy="858" fill="#000000" id="svg_27" rx="20" ry="20" stroke="#000"/>
  <rect fill="#a5e306" height="30" id="svg_26" stroke="#000" width="230" x="1678" y="858"/>
  <rect fill="#487d8f" height="30" id="svg_24" stroke="#000" width="224" x="1644" y="948"/>
  <rect fill="#5b8b95" height="30" id="svg_23" stroke="#000" width="338" x="1550" y="918"/>
  <rect fill="#8bb8be" height="30" id="svg_20" stroke="#000" width="289" x="1609" y="888"/>
  <rect fill="#a5e306" height="50" id="svg_19" stroke="#000" width="30" x="1768" y="858"/>
  <rect fill="#487d8f" height="30" id="svg_34" stroke="#000" width="210" x="1288" y="598"/>
  <rect fill="#a5e306" height="30" id="svg_36" stroke="#000" width="454" x="1103" y="908"/>
  <rect fill="#a5e306" height="30" id="svg_38" stroke="#000" transform="rotate(-20 1616.34 902.952)" width="140" x="1550" y="883"/>
  <rect fill="#a5e306" height="30" id="svg_33" stroke="#000" transform="rotate(20 1026.25 892.858)" width="174.7" x="938.9" y="877.86"/>
  <rect fill="#8bb8be" height="123" id="svg_39" stroke="#000" width="38" x="1867.5" y="94.5"/>
  <rect fill="#8bb8be" height="123" id="svg_40" stroke="#000" width="38" x="1210.5" y="385"/>
  <rect fill="#8bb8be" height="123" id="svg_41" stroke="#000" width="38" x="1507.5" y="385"/>
 </g>
</svg>