<svg width="3181" height="1529" xmlns="http://www.w3.org/2000/svg">
 <title>course1</title>

 <g class="layer">
  <title>Easy As Pie, 4</title>
  <rect stroke="#000" fill="#8bb8be" height="78.00047" id="svg_132" width="36" x="1371.28504" y="342.05009"/>
  <rect stroke="#000" fill="#8bb8be" height="45.99995" id="svg_116" width="252.85725" x="1450.03414" y="946.44963"/>
  <rect stroke="#000" fill="#a5e306" height="30" id="svg_114" width="207.7143" x="1474.70825" y="922.12872"/>
  <rect transform="rotate(-30 1436.92 963.737)" stroke="#000" fill="#a5e306" height="32.80387" id="svg_113" width="100.63178" x="1386.60167" y="947.33501"/>
  <rect transform="rotate(30 1716.86 963.187)" stroke="#000" fill="#a5e306" height="31.53593" id="svg_112" width="100.63178" x="1666.54221" y="947.4189"/>
  <rect stroke="#000" fill="#8bb8be" height="45.99995" id="svg_111" width="536.85631" x="1336.03452" y="996.60921"/>
  <rect stroke="#000" fill="#8bb8be" height="473.99928" id="svg_19" width="40" x="345.9766" y="800.6098"/>
  <rect fill="#487d8f" height="40" id="svg_17" stroke="#000" width="60" x="335.76682" y="759.72619"/>
  <ellipse fill="#ff0000" stroke="#000" cx="1636.49576" cy="367.84573" id="svg_56" rx="19" ry="19"/>
  <ellipse class="grass1" cx="793.97674" cy="1236.60892" fill="#000000" id="svg_5" rx="20" ry="20" stroke="#000"/>
  <ellipse class="tree1" cx="613.97674" cy="1236.60892" fill="#000000" id="svg_3" rx="20" ry="20" stroke="#000"/>
  <rect stroke="#000" fill="#487d8f" height="30" id="svg_34" width="793.99915" x="1106.89151" y="1087.18055"/>
  <rect stroke="#000" fill="#487d8f" height="30" id="svg_89" width="763.99903" x="1186.89153" y="1109.18055"/>
  <rect fill="#487d8f" height="40" id="svg_24" width="348.57132" x="425.4053" y="1332.26378" stroke="#000"/>
  <rect fill="#5b8b95" height="40" id="svg_23" width="545.71402" x="343.97674" y="1316.60892" stroke="#000"/>
  <ellipse cx="663.97674" cy="1130.60892" fill="#00ff00" id="svg_16" rx="20" ry="20" stroke="#000"/>
  <rect fill="#8bb8be" height="50" id="svg_10" width="562.85688" x="343.97674" y="1266.60892" stroke="#000"/>
  <rect fill="#a5e306" height="30" id="svg_9" stroke="#000" width="580" x="343.97674" y="1236.60892"/>
  <rect fill="#5b8b95" height="38" id="svg_11" opacity="0.9" stroke="#000" width="40" x="175.88" y="34"/>
  <rect fill="#487d8f" height="37" id="svg_15" opacity="0.9" stroke="#000" width="38" x="225.88" y="34"/>
  <rect fill="#8bb8be" height="36" id="svg_21" opacity="0.9" stroke="#000" width="40" x="125.88" y="34"/>
  <rect fill="#a5e306" height="38" id="svg_22" opacity="0.9" stroke="#000" width="38" x="269.32" y="32.71"/>
  <rect fill="#a5e306" height="50" id="svg_35" stroke="#000" width="100" x="443.97674" y="1236.60892"/>
  <rect fill="#a8cbcc" height="39" id="svg_1" opacity="0.9" stroke="#000" width="41" x="78" y="32"/>
  <rect stroke="#000" fill="#8bb8be" height="45.99995" id="svg_12" width="582.85617" x="1352.03448" y="1032.60909"/>
  <rect transform="rotate(30 1901.88 1022.93)" fill="#a5e306" height="40" id="svg_109" width="100.63178" x="1851.56586" y="1002.92939" stroke="#000"/>
  <rect transform="rotate(-30 1310.72 1022.93)" fill="#a5e306" height="40" id="svg_86" width="100.63178" x="1260.40082" y="1002.92939" stroke="#000"/>
  <rect transform="rotate(-17 1188.26 1058.54)" fill="#a5e306" height="23.52964" id="svg_87" width="100.63178" x="1137.94867" y="1046.77547" stroke="#000"/>
  <rect fill="#a5e306" height="40" id="svg_4" width="222.5174" x="1228.81779" y="1030.73846" stroke="#000"/>
  <ellipse class="tree1" cx="1822.42176" cy="976.20695" fill="#000000" id="svg_2" rx="20" ry="20" stroke="#000"/>
  <rect fill="#a5e306" height="30" id="svg_13" width="235.71421" x="1380.70855" y="978.20694" stroke="#000"/>
  <rect fill="#a5e306" height="50" id="svg_26" stroke="#000" width="120" x="683.97674" y="1236.60892"/>
  <rect stroke="#000" fill="#487d8f" height="31.99999" id="svg_40" width="409.99959" x="1382.39439" y="464.06707"/>
  <rect stroke="#000" fill="#5b8b95" height="46" id="svg_41" width="427.9996" x="1364.39436" y="430.06709"/>
  <rect transform="rotate(15 1831.44 404.85)" stroke="#000" fill="#a5e306" height="34.22273" id="svg_90" width="89.30563" x="1786.7897" y="387.73869"/>
  <rect fill="#8bb8be" height="34" id="svg_31" width="261.99999" x="1604.46502" y="426.06707" stroke="#000"/>
  <rect fill="#8bb8be" height="30" id="svg_42" stroke="#000" width="330" x="1549.8694" y="406.06706"/>
  <ellipse class="grass2" cx="1736.39398" cy="372.06706" fill="#000000" id="svg_18" rx="20" ry="20" stroke="#000"/>
  <rect fill="#a5e306" height="30" id="svg_43" width="226" x="1566.39396" y="376.06706" stroke="#000"/>
  <rect stroke="#000" fill="#a5e306" height="40" id="svg_44" width="115.99995" x="1345.76009" y="978.20694"/>
  <rect fill="#a5e306" height="54" id="svg_46" width="70" x="1554.39398" y="376.06706" stroke="#000"/>
  <rect fill="#a5e306" height="50" id="svg_47" stroke="#000" width="70" x="1672.39398" y="376.06706"/>
  <rect stroke="#000" fill="#487d8f" height="22.00006" id="svg_28" width="52.00003" x="1361.64401" y="328.57966"/>
  <rect stroke="#000" fill="#a5e306" height="30" id="svg_27" width="64.00005" x="1357.96858" y="314.57968"/>
  <rect fill="#ff7f00" height="38" id="svg_30" opacity="0.9" stroke="#000" width="38" x="316.5" y="32.5"/>
  <rect fill="#f7ba3e" height="38" id="svg_159" opacity="0.9" stroke="#000" width="38" x="390.5" y="31.5"/>
  <text fill="#000000" font-family="Serif" font-size="24" id="svg_160" stroke="#000" stroke-width="0" text-anchor="middle" x="407" xml:space="preserve" y="25">Sand</text>
  <rect fill="#0000ff" height="38" id="svg_161" opacity="0.9" stroke="#000" width="38" x="484.5" y="30.5"/>
  <text fill="#000000" font-family="Serif" font-size="24" id="svg_162" stroke="#000" stroke-width="0" text-anchor="middle" x="498" xml:space="preserve" y="24.5">Spinner</text>
  <rect fill="#00ffff" height="38" id="svg_164" opacity="0.9" stroke="#000" width="38" x="579.5" y="32.5"/>
  <text fill="#000000" font-family="Serif" font-size="24" id="svg_165" stroke="#000" stroke-width="0" text-anchor="middle" x="593.01" xml:space="preserve" y="24.5">Water</text>
  <rect fill="#ff00ff" height="38" id="svg_166" opacity="0.9" stroke="#000" width="38" x="655.5" y="44.49994"/>
  <text fill="#000000" font-family="Serif" font-size="24" id="svg_167" stroke="#000" stroke-width="0" text-anchor="middle" x="676.01" xml:space="preserve" y="26.5">Wood</text>
  <rect fill="#ffff00" height="38" id="svg_168" opacity="0.9" stroke="#000" width="38" x="729.5" y="46.49994"/>
  <text fill="#000000" font-family="Serif" font-size="24" id="svg_169" stroke="#000" stroke-width="0" text-anchor="middle" x="752" xml:space="preserve" y="25.5">Bouncer</text>
  <rect stroke="#000" fill="#a5e306" height="60.53583" id="svg_14" width="208.92859" x="1361.14548" y="376.76522"/>
  <rect fill="#8bb8be" height="156" id="svg_37" width="36" x="2384.34184" y="576.04959" stroke="#000"/>
  <rect stroke="#000" fill="#f7ba3e" x="2031.81885" y="668.09302" width="351.99969" height="56" id="svg_38"/>
  <rect stroke="#000" fill="#8bb8be" height="78.00047" id="svg_32" width="36" x="1995.28302" y="638.04912"/>
  <rect fill="#a5e306" height="50" id="svg_45" stroke="#000" width="70" x="1514.42276" y="978.20694"/>
  <rect fill="#a5e306" height="72" id="svg_48" width="52" x="1986.47718" y="656.27385" stroke="#000"/>
  <rect fill="#a5e306" height="72" id="svg_49" width="52" x="2378.91625" y="656.27385" stroke="#000"/>
  <rect stroke="#000" fill="#487d8f" height="30" id="svg_50" width="389.9996" x="1995.35739" y="763.70245"/>
  <rect stroke="#000" fill="#5b8b95" height="46" id="svg_51" width="423.99964" x="1986.09598" y="727.70249"/>
  <rect fill="#8bb8be" height="30" id="svg_52" width="359.99997" x="1985.92895" y="719.70245" stroke="#000"/>
  <rect fill="#a5e306" height="30" id="svg_53" width="358" x="1988.50335" y="702.27382" stroke="#000"/>
  <rect fill="#a5e306" height="42" id="svg_54" width="251.99999" x="2154.91626" y="702.27383" stroke="#000"/>
  <rect fill="#a5e306" height="50" id="svg_55" width="58" x="1986.47893" y="702.27384" stroke="#000"/>
  <ellipse class="grass1" cx="743.99977" cy="679.94221" fill="#000000" id="svg_57" rx="20" ry="20" stroke="#000"/>
  <ellipse class="tree1" cx="563.99977" cy="679.94221" fill="#000000" id="svg_58" rx="20" ry="20" stroke="#000"/>
  <rect fill="#487d8f" height="40" id="svg_59" width="630.57135" x="405.49966" y="775.59707" stroke="#000"/>
  <rect fill="#5b8b95" height="48" id="svg_60" width="661.71404" x="347.99978" y="751.94222" stroke="#000"/>
  <ellipse fill="#a5e306" stroke="#000" cx="343.99977" cy="658.84474" id="svg_78" rx="44" ry="44"/>
  <rect fill="#8bb8be" height="50" id="svg_61" width="628.85689" x="317.99977" y="707.94221" stroke="#000"/>
  <rect fill="#a5e306" height="30" id="svg_62" width="614" x="293.99977" y="679.94221" stroke="#000"/>
  <rect fill="#a5e306" height="50" id="svg_63" stroke="#000" width="100" x="393.99977" y="679.94221"/>
  <rect fill="#a5e306" height="50" id="svg_64" stroke="#000" width="120" x="633.99977" y="679.94221"/>
  <rect transform="rotate(30 973.964 747.932)" fill="#a5e306" height="50" id="svg_65" width="179.96151" x="883.98311" y="722.93256" stroke="#000"/>
  <rect fill="#a5e306" height="28" id="svg_88" width="156.5174" x="1084.81773" y="1060.73845" stroke="#000"/>
  <rect stroke="#000" fill="#487d8f" height="30" id="svg_96" width="454.00027" x="1842.89999" y="1087.18055"/>
  <rect stroke="#000" fill="#487d8f" height="30" id="svg_97" width="304.00051" x="1922.89998" y="1109.18055"/>
  <rect fill="#a5e306" height="40" id="svg_101" width="222.5174" x="1931.38744" y="1030.73846" stroke="#000"/>
  <rect stroke="#000" fill="#5b8b95" height="30" id="svg_102" width="78.28641" x="2104.61429" y="1057.18055"/>
  <rect fill="#a5e306" height="30" id="svg_104" width="235.71421" x="1634.32458" y="978.20694" stroke="#000"/>
  <rect fill="#a5e306" height="40" id="svg_105" stroke="#000" width="100" x="1615.37606" y="978.20694"/>
  <rect fill="#a5e306" height="50" id="svg_107" stroke="#000" width="70" x="1768.03879" y="978.20694"/>
  <rect stroke="#000" fill="#a5e306" height="28" id="svg_108" width="94.5176" x="2238.82567" y="1058.73846"/>
  <rect transform="rotate(17 2197.34 1058.54)" fill="#a5e306" height="23.52964" id="svg_110" width="100.63178" x="2147.02603" y="1046.77547" stroke="#000"/>
  <rect stroke="#000" fill="#5b8b95" height="30" id="svg_8" width="1018.28344" x="1224.60625" y="1067.18052"/>
  <rect stroke="#000" fill="#487d8f" height="22.00006" id="svg_119" width="52.00003" x="2379.64065" y="558.57889"/>
  <rect stroke="#000" fill="#a5e306" height="30" id="svg_120" width="64.00005" x="2371.96523" y="544.57892"/>
  <rect fill="#5b8b95" height="40" id="svg_92" width="589.71406" x="2527.99515" y="1335.94002" stroke="#000"/>
  <rect stroke="#000" fill="#5b8b95" height="43" id="svg_76" width="563.71402" x="2479.99517" y="1300.94002"/>
  <rect fill="#5b8b95" height="40" id="svg_69" width="545.71403" x="2441.99519" y="1277.94002" stroke="#000"/>
  <rect fill="#8bb8be" height="50" id="svg_70" width="546.85689" x="2405.99516" y="1245.94002" stroke="#000"/>
  <rect transform="rotate(30 2421.43 1298.74)" fill="#487d8f" height="31.99947" id="svg_75" width="263.54768" x="2289.65449" y="1282.74237" stroke="#000"/>
  <ellipse class="grass1" cx="2747.99515" cy="1217.94002" fill="#000000" id="svg_66" rx="20" ry="20" stroke="#000"/>
  <ellipse class="tree1" cx="2567.99515" cy="1217.94002" fill="#000000" id="svg_67" rx="20" ry="20" stroke="#000"/>
  <rect fill="#a5e306" height="30" id="svg_71" width="614" x="2297.99515" y="1217.94002" stroke="#000"/>
  <rect fill="#a5e306" height="50" id="svg_72" stroke="#000" width="100" x="2363.99515" y="1217.94002"/>
  <rect fill="#a5e306" height="50" id="svg_73" stroke="#000" width="120" x="2637.99515" y="1217.94002"/>
  <rect transform="rotate(30 3020.42 1300.67)" fill="#a5e306" height="35.0718" id="svg_74" width="264.77945" x="2888.0289" y="1283.13493" stroke="#000"/>
 </g>
</svg>