<?xml version="1.0"?>
<svg width="2000" height="2000" xmlns="http://www.w3.org/2000/svg" xmlns:svg="http://www.w3.org/2000/svg">
 <title>course1</title>
 <g class="layer">
  <title>Falling Down, 5</title>
  <ellipse class="tree3" cx="984.5" cy="395" fill="#000000" id="svg_75" rx="20" ry="20" stroke="#000"/>
  <ellipse class="grass1   &quot;course4.svg&quot;," cx="786.5" cy="839" fill="#000000" id="svg_78" rx="20" ry="20" stroke="#000"/>
  <ellipse class="grass2" cx="1368.5" cy="549" fill="#000000" id="svg_76" rx="20" ry="20" stroke="#000" transform="matrix(1 0 0 1 0 0)"/>
  <ellipse class="tree2" cx="1728.5" cy="793" fill="#000000" id="svg_79" rx="20" ry="20" stroke="#000" transform="matrix(1 0 0 1 0 0)"/>
  <rect fill="#8bb8be" height="68" id="svg_43" stroke="#000" width="86" x="1792.5" y="332"/>
  <rect fill="#487d8f" height="30" id="svg_35" stroke="#000" transform="rotate(-21.541 937.5 506)" width="598" x="638.5" y="491"/>
  <rect fill="#5b8b95" height="30" id="svg_29" stroke="#000" transform="matrix(1 0 0 1 0 0) rotate(-21.9385 938.51 478.267)" width="722.04" x="577.49" y="463.27"/>
  <ellipse class="tree4" cx="342" cy="461" fill="#000000" id="svg_2" rx="20" ry="20" stroke="#000"/>
  <ellipse class="grass1" cx="1733" cy="340" fill="#000000" id="svg_3" rx="20" ry="20" stroke="#000" transform="matrix(1 0 0 1 0 0)"/>
  <ellipse cx="199" cy="390" fill="#00ff00" id="svg_16" rx="20" ry="20" stroke="#000"/>
  <ellipse cx="1439" cy="1263" fill="#ff0000" id="svg_17" rx="20" ry="20" stroke="#000"/>
  <rect fill="#5b8b95" height="38" id="svg_11" opacity="0.9" stroke="#000" width="40" x="274.88" y="131"/>
  <rect fill="#487d8f" height="37" id="svg_15" opacity="0.9" stroke="#000" width="38" x="326.88" y="132"/>
  <rect fill="#8bb8be" height="36" id="svg_21" opacity="0.9" stroke="#000" width="40" x="220.88" y="132"/>
  <rect fill="#a5e306" height="38" id="svg_22" opacity="0.9" stroke="#000" width="38" x="378.32" y="131.71"/>
  <rect fill="#a8cbcc" height="39" id="svg_1" opacity="0.9" stroke="#000" width="41" x="172" y="132"/>
  <rect fill="#5b8b95" height="30" id="svg_8" stroke="#000" width="290" x="1275" y="1321"/>
  <rect fill="#8bb8be" height="30" id="svg_12" stroke="#000" width="350" x="1245" y="1291"/>
  <rect fill="#a5e306" height="30" id="svg_13" stroke="#000" width="390" x="1227" y="1262"/>
  <rect fill="#a5e306" height="40" id="svg_44" stroke="#000" width="100" x="1294" y="1262"/>
  <rect fill="#a5e306" height="50" id="svg_45" stroke="#000" width="70" x="1475" y="1261"/>
  <rect fill="#a5e306" height="30" id="svg_25" stroke="#000" width="351" x="89" y="460"/>
  <rect fill="#487d8f" height="30" id="svg_51" stroke="#000" width="195" x="1633" y="430"/>
  <rect fill="#5b8b95" height="30" id="svg_50" stroke="#000" transform="matrix(1 0 0 1 0 0)" width="271" x="1593" y="400"/>
  <rect fill="#8bb8be" height="30" id="svg_49" stroke="#000" transform="matrix(1 0 0 1 0 0)" width="307" x="1573" y="370"/>
  <rect fill="#a5e306" height="30" id="svg_48" stroke="#000" width="243" x="1552" y="343"/>
  <rect fill="#a5e306" height="50" id="svg_37" stroke="#000" width="70" x="1613" y="340"/>
  <rect fill="#487d8f" height="30" id="svg_54" stroke="#000" transform="matrix(1 0 0 1 0 0)" width="224" x="149" y="550"/>
  <rect fill="#5b8b95" height="30" id="svg_53" stroke="#000" transform="matrix(1 0 0 1 0 0)" width="277" x="119" y="520"/>
  <rect fill="#8bb8be" height="30" id="svg_52" stroke="#000" transform="matrix(1 0 0 1 0 0)" width="325" x="99" y="490"/>
  <rect fill="#487d8f" height="30" id="svg_34" stroke="#000" width="210" x="1325" y="1351"/>
  <rect fill="#8bb8be" height="30" id="svg_4" stroke="#000" transform="matrix(1 0 0 1 0 0) rotate(-21.5713 931.5 453)" width="772" x="545.5" y="438"/>
  <rect fill="#a5e306" height="30" id="svg_28" stroke="#000" transform="rotate(-21.8014 931.5 426)" width="929" x="467" y="411"/>
  <rect fill="#a5e306" height="30" id="svg_47" stroke="#000" transform="matrix(0.792983 -0.609243 0.609243 0.792983 179.399 1179.97)" width="92" x="1775.79" y="311.55"/>
  <rect fill="#8bb8be" height="268" id="svg_39" stroke="#000" width="36" x="1843.5" y="102.5"/>
  <rect fill="#5b8b95" height="30" id="svg_27" stroke="#000" width="160" x="1341" y="606.75"/>
  <rect fill="#8bb8be" height="30" id="svg_26" stroke="#000" width="228" x="1311" y="576.75"/>
  <rect fill="#a5e306" height="30" id="svg_24" stroke="#000" width="267" x="1293" y="547.75"/>
  <rect fill="#a5e306" height="40" id="svg_23" stroke="#000" transform="matrix(1 0 0 1 0 0)" width="37" x="1338" y="547.75"/>
  <rect fill="#487d8f" height="30" id="svg_20" stroke="#000" width="75" x="1382" y="636.75"/>
  <rect fill="#a5e306" height="40" id="svg_19" stroke="#000" width="61" x="1445.5" y="547.25"/>
  <rect fill="#5b8b95" height="30" id="svg_38" stroke="#000" width="160" x="1144" y="809.75"/>
  <rect fill="#8bb8be" height="30" id="svg_36" stroke="#000" width="228" x="1114" y="779.75"/>
  <rect fill="#a5e306" height="30" id="svg_33" stroke="#000" width="267" x="1096" y="750.75"/>
  <rect fill="#a5e306" height="40" id="svg_32" stroke="#000" width="37" x="1163" y="750.75"/>
  <rect fill="#487d8f" height="30" id="svg_31" stroke="#000" width="75" x="1185" y="839.75"/>
  <rect fill="#a5e306" height="40" id="svg_30" stroke="#000" width="37" x="1271.5" y="750.25"/>
  <rect fill="#5b8b95" height="30" id="svg_56" stroke="#000" transform="matrix(1 0 0 1 0 0)" width="139" x="1714" y="851.75"/>
  <rect fill="#8bb8be" height="30" id="svg_55" stroke="#000" transform="matrix(1 0 0 1 0 0)" width="203" x="1688" y="821.75"/>
  <rect fill="#a5e306" height="30" id="svg_46" stroke="#000" transform="matrix(1 0 0 1 0 0)" width="244" x="1668" y="792.75"/>
  <rect fill="#a5e306" height="40" id="svg_42" stroke="#000" transform="matrix(1 0 0 1 0 0)" width="37" x="1745" y="792.75"/>
  <rect fill="#487d8f" height="30" id="svg_41" stroke="#000" transform="matrix(1 0 0 1 0 0)" width="92" x="1734" y="881.75"/>
  <rect fill="#a5e306" height="40" id="svg_40" stroke="#000" transform="matrix(1 0 0 1 0 0)" width="37" x="1820.5" y="792.25"/>
  <rect fill="#5b8b95" height="30" id="svg_62" stroke="#000" transform="matrix(1 0 0 1 0 0)" width="172" x="1452" y="980.75"/>
  <rect fill="#8bb8be" height="30" id="svg_61" stroke="#000" width="228" x="1422" y="950.75"/>
  <rect fill="#a5e306" height="30" id="svg_60" stroke="#000" width="267" x="1404" y="921.75"/>
  <rect fill="#a5e306" height="40" id="svg_59" stroke="#000" transform="matrix(1 0 0 1 0 0)" width="51" x="1471" y="921.75"/>
  <rect fill="#487d8f" height="43" id="svg_58" stroke="#000" transform="matrix(1 0 0 1 0 0)" width="88" x="1493" y="1010.75"/>
  <rect fill="#a5e306" height="40" id="svg_57" stroke="#000" transform="matrix(1 0 0 1 0 0)" width="37" x="1579.5" y="921.25"/>
  <rect fill="#5b8b95" height="30" id="svg_68" stroke="#000" transform="matrix(1 0 0 1 0 0)" width="122" x="691" y="898.75"/>
  <rect fill="#8bb8be" height="30" id="svg_67" stroke="#000" transform="matrix(1 0 0 1 0 0)" width="207" x="661" y="868.75"/>
  <rect fill="#a5e306" height="30" id="svg_66" stroke="#000" transform="matrix(1 0 0 1 0 0)" width="256" x="643" y="839.75"/>
  <rect fill="#a5e306" height="40" id="svg_65" stroke="#000" width="74" x="679" y="839.75"/>
  <rect fill="#487d8f" height="30" id="svg_64" stroke="#000" transform="matrix(1 0 0 1 0 0)" width="50" x="732" y="928.75"/>
  <rect fill="#a5e306" height="40" id="svg_63" stroke="#000" width="37" x="816.5" y="839.25"/>
  <rect fill="#5b8b95" height="30" id="svg_74" stroke="#000" transform="matrix(1 0 0 1 0 0)" width="160" x="981" y="1419.75"/>
  <rect fill="#8bb8be" height="30" id="svg_73" stroke="#000" transform="matrix(1 0 0 1 0 0)" width="215" x="951" y="1389.75"/>
  <rect fill="#a5e306" height="30" id="svg_72" stroke="#000" width="255" x="933" y="1360.75"/>
  <rect fill="#a5e306" height="40" id="svg_71" stroke="#000" transform="matrix(1 0 0 1 0 0)" width="37" x="988" y="1360.75"/>
  <rect fill="#487d8f" height="30" id="svg_70" stroke="#000" transform="matrix(1 0 0 1 0 0)" width="75" x="1022" y="1449.75"/>
  <rect fill="#a5e306" height="40" id="svg_69" stroke="#000" transform="matrix(1 0 0 1 0 0)" width="37" x="1108.5" y="1360.25"/>
 </g>
</svg>