<svg width="2919" height="1084" xmlns="http://www.w3.org/2000/svg">
 <title>course1</title>

 <g class="layer">
  <title>Easy As Pie, 4</title>
  <rect transform="rotate(-30 2384.35 719.276)" stroke="#000" y="691.1631" x="2316.27022" width="136.15364" id="svg_97" height="56.2264" fill="#487d8f"/>
  <rect transform="rotate(-35 2293.13 779.495)" stroke="#000" y="751.38193" x="2242.1202" width="102.00828" id="svg_98" height="56.2264" fill="#487d8f"/>
  <rect transform="rotate(-26.0502 2204.53 831.424)" stroke="#000" y="803.31056" x="2147.89919" width="113.26509" id="svg_99" height="56.2264" fill="#487d8f"/>
  <rect transform="rotate(-20 2064.73 887.564)" stroke="#000" y="859.45098" x="1952.28401" width="224.89919" id="svg_100" height="56.2264" fill="#487d8f"/>
  <rect transform="rotate(-35 2280.27 759.495)" stroke="#000" y="731.38193" x="2229.26305" width="102.00828" id="svg_94" height="56.2264" fill="#5b8b95"/>
  <rect transform="rotate(-30 2195.96 815.709)" stroke="#000" y="787.59628" x="2139.32775" width="113.26509" id="svg_95" height="56.2264" fill="#5b8b95"/>
  <rect transform="rotate(-20 2076.05 868.509)" stroke="#000" y="840.39515" x="1981.722" width="188.65389" id="svg_96" height="56.2264" fill="#5b8b95"/>
  <rect stroke="#000" y="664.98402" x="2305.9382" width="382.15167" id="svg_78" height="40" fill="#487d8f"/>
  <rect transform="rotate(-30 2367.1 705.713)" stroke="#000" y="677.60032" x="2309.04072" width="116.11608" id="svg_93" height="56.2264" fill="#5b8b95"/>
  <rect stroke="#000" y="643.18629" x="2354.44248" width="379.05365" id="svg_77" height="40" fill="#5b8b95"/>
  <rect transform="rotate(-30 2388.44 670.871)" stroke="#000" y="642.75758" x="2316.25911" width="144.36732" id="svg_81" height="56.2264" fill="#8bb8be"/>
  <rect stroke="#000" y="610.99413" x="2395.29234" width="392.12302" id="svg_76" height="48.57143" fill="#8bb8be"/>
  <ellipse stroke="#000" ry="20" rx="20" id="svg_17" fill="#ff0000" cy="562.81937" cx="2617.25695"/>
  <ellipse stroke="#000" ry="20" rx="20" id="svg_102" fill="#000000" cy="560.21623" cx="2697.56209" class="tree1"/>
  <rect stroke="#000" y="370.99574" x="2757.2857" width="46.12471" id="svg_103" height="206.57146" fill="#8bb8be"/>
  <rect stroke="#000" y="363.18623" x="2750.44264" width="63.05359" id="svg_105" height="40" fill="#5b8b95"/>
  <rect stroke="#000" y="564.00456" x="2525.58901" width="297.53963" id="svg_74" height="56.2264" fill="#a5e306"/>
  <rect transform="rotate(-15 2458.15 602.066)" stroke="#000" y="573.95327" x="2431.84552" width="52.61609" id="svg_73" height="56.2264" fill="#a5e306"/>
  <rect transform="rotate(-25 2415.49 616.733)" stroke="#000" y="588.61993" x="2389.17886" width="52.61609" id="svg_72" height="56.2264" fill="#a5e306"/>
  <rect transform="rotate(-30 2366.75 642.861)" stroke="#000" y="614.74829" x="2326.54385" width="80.40302" id="svg_71" height="56.2264" fill="#a5e306"/>
  <rect transform="rotate(-35 2263.93 746.869)" stroke="#000" y="718.7561" x="2184.57308" width="158.7151" id="svg_82" height="56.2264" fill="#8bb8be"/>
  <ellipse transform="rotate(-5.69749 2234.53 695.186)" stroke="#000" ry="20" rx="20" id="svg_124" fill="#000000" cy="695.18576" cx="2234.53359" class="tree1"/>
  <rect transform="rotate(-35 2271.53 706.871)" stroke="#000" y="678.75746" x="2193.39219" width="156.26409" id="svg_70" height="56.2264" fill="#a5e306"/>
  <rect transform="rotate(-30 2202.85 787.931)" stroke="#000" y="759.81827" x="2146.21671" width="113.26509" id="svg_83" height="56.2264" fill="#8bb8be"/>
  <rect transform="rotate(-30 2208.85 743.931)" stroke="#000" y="715.81797" x="2152.21675" width="113.26509" id="svg_69" height="56.2264" fill="#a5e306"/>
  <rect transform="rotate(-20 2087.38 836.286)" stroke="#000" y="808.17273" x="1993.05538" width="188.65389" id="svg_84" height="56.2264" fill="#8bb8be"/>
  <rect transform="rotate(-20 2095.38 794.286)" stroke="#000" y="766.17243" x="2001.05543" width="188.65389" id="svg_68" height="56.2264" fill="#a5e306"/>
  <rect transform="rotate(-15 2009.08 818.943)" stroke="#000" y="790.83019" x="1914.75327" width="188.65389" id="svg_67" height="56.2264" fill="#a5e306"/>
  <ellipse stroke="#000" ry="20" rx="20" id="svg_92" fill="#000000" cy="810.85436" cx="1881.57553" class="grass2"/>
  <rect transform="rotate(-10 1937.85 834.012)" stroke="#000" y="805.89882" x="1843.51974" width="188.65389" id="svg_66" height="56.2264" fill="#a5e306"/>
  <ellipse stroke="#000" ry="20" rx="20" id="svg_91" fill="#000000" cy="824.21802" cx="1563.56586" class="tree1"/>
  <rect transform="rotate(-5 1750.43 854.905)" stroke="#000" y="826.79127" x="1567.3481" width="366.1731" id="svg_65" height="56.2264" fill="#a5e306"/>
  <rect transform="rotate(45 1477.41 837.063)" stroke="#000" y="809.11405" x="1420.15077" width="114.51408" id="svg_55" height="55.89789" fill="#a5e306"/>
  <rect stroke="#000" id="svg_53" height="58.69524" width="60" y="744.37381" x="1303.02499" fill="#ff7f00"/>
  <ellipse ry="30" rx="30" id="svg_54" cy="741.00787" cx="1333.10473" stroke="#000" fill="#ff7f00"/>
  <rect transform="rotate(45 1377.6 598.019)" stroke="#000" y="570.07007" x="1342.56883" width="70.06746" id="svg_52" height="55.89789" fill="#a5e306"/>
  <rect stroke="#000" y="827.68741" x="869.98596" width="583.2223" id="svg_51" height="30.29855" fill="#487d8f"/>
  <rect stroke="#000" y="777.41749" x="1387.20061" width="49.00007" id="svg_57" height="140.58338" fill="#5b8b95"/>
  <rect stroke="#000" y="777.13258" x="1405.00285" width="49.33236" id="svg_56" height="127.60169" fill="#8bb8be"/>
  <rect stroke="#000" id="svg_48" height="58.69524" width="60" y="612.64253" x="1147.14454" fill="#ff7f00"/>
  <ellipse transform="rotate(180 1177.22 675.056)" ry="30" rx="30" id="svg_49" cy="675.0562" cx="1177.22429" stroke="#000" fill="#ff7f00"/>
  <rect transform="rotate(-45 947.484 597.061)" stroke="#000" y="569.11168" x="912.44961" width="70.06746" id="svg_13" height="55.89789" fill="#a5e306"/>
  <rect stroke="#000" id="svg_46" height="58.69524" width="60" y="744.37381" x="1003.07275" fill="#ff7f00"/>
  <ellipse ry="30" rx="30" id="svg_45" cy="741.00787" cx="1033.15249" stroke="#000" fill="#ff7f00"/>
  <ellipse ry="30" rx="30" id="svg_44" cy="424.83294" cx="1176.49797" stroke="#000" fill="#ff7f00"/>
  <rect stroke="#000" id="svg_42" height="150" width="60" y="428.19887" x="1146.41822" fill="#ff7f00"/>
  <rect stroke="#000" y="610.37888" x="922.87078" width="483.22191" id="svg_20" height="32.7179" fill="#487d8f"/>
  <rect stroke="#000" y="910.98576" x="112.85748" width="805.25101" id="svg_63" height="40" fill="#487d8f"/>
  <rect stroke="#000" y="777.41749" x="887.47743" width="49.00007" id="svg_8" height="140.58338" fill="#5b8b95"/>
  <ellipse stroke="#000" ry="20" rx="20" id="svg_5" fill="#000000" cy="550.03098" cx="543.57169" class="grass1"/>
  <path id="svg_3" d="m187.50063,841.28052c-11.04972,0 -20,-8.95028 -20,-20c0,-11.04972 8.95028,-20 20,-20c11.04972,0 20,8.95028 20,20c0,11.04972 -8.95028,20 -20,20z" opacity="undefined" stroke="#000" fill="#000000"/>
  <rect stroke="#000" y="910.98576" x="1423.93205" width="544.15319" id="svg_24" height="40" fill="#487d8f"/>
  <rect stroke="#000" y="887.188" x="89.8217" width="848.53672" id="svg_23" height="40" fill="#5b8b95"/>
  <ellipse stroke="#000" ry="20" rx="20" id="svg_16" fill="#00ff00" cy="728.78155" cx="135.17889"/>
  <rect y="188.56729" x="256.88" width="40" stroke="#000" opacity="0.9" id="svg_11" height="38" fill="#5b8b95"/>
  <rect y="189.56729" x="308.88" width="38" stroke="#000" opacity="0.9" id="svg_15" height="37" fill="#487d8f"/>
  <rect y="189.56729" x="202.88" width="40" stroke="#000" opacity="0.9" id="svg_21" height="36" fill="#8bb8be"/>
  <rect y="189.27729" x="360.32" width="38" stroke="#000" opacity="0.9" id="svg_22" height="38" fill="#a5e306"/>
  <rect y="189.56729" x="154" width="41" stroke="#000" opacity="0.9" id="svg_1" height="39" fill="#a8cbcc"/>
  <ellipse stroke="#000" ry="20" rx="20" id="svg_2" fill="#000000" cy="556.21623" cx="1000.0678" class="tree1"/>
  <ellipse stroke="#000" ry="20" rx="20" id="svg_6" fill="#000000" cy="554.85257" cx="1293.57139" class="grass2"/>
  <ellipse stroke="#000" ry="20" rx="20" id="svg_18" fill="#000000" cy="555.38466" cx="1216.43466" class="grass2"/>
  <rect transform="rotate(-45 846.469 837.785)" stroke="#000" y="809.83584" x="789.21135" width="114.51408" id="svg_4" height="55.89789" fill="#a5e306"/>
  <rect stroke="#000" y="793.79925" x="866.99622" width="47.94347" id="svg_7" height="110.93503" fill="#8bb8be"/>
  <rect stroke="#000" y="856.99586" x="58.03601" width="808.07126" id="svg_10" height="48.57143" fill="#8bb8be"/>
  <rect stroke="#000" y="553.27882" x="950.68322" width="423.19611" id="svg_14" height="51.00015" fill="#a5e306"/>
  <rect stroke="#000" y="602.11575" x="903.73117" width="518.0463" id="svg_19" height="16.58621" fill="#8bb8be"/>
  <rect stroke="#000" y="551.98013" x="1118.21564" width="111.50778" id="svg_231" height="61.38977" fill="#a5e306"/>
  <path stroke="#000" id="svg_25" d="m509.74249,594.27842l233.85449,0l0,34.67614l-233.85449,0l0,-34.67614z" opacity="undefined" fill="#487d8f"/>
  <rect stroke="#000" y="577.61472" x="481.37594" width="249.61914" id="svg_27" height="31.92628" fill="#8bb8be"/>
  <rect stroke="#000" y="825.56729" x="22.85746" width="796.32117" id="svg_9" height="30.85721" fill="#a5e306"/>
  <rect stroke="#000" id="svg_35" height="22" width="54.42106" y="823.77793" x="491.72654" fill="#f7ba3e"/>
  <rect stroke="#000" id="svg_36" height="22" width="54.42106" y="823.77793" x="544.84103" fill="#f7ba3e"/>
  <rect stroke="#000" id="svg_37" height="22" width="54.42106" y="823.77793" x="746.64719" fill="#f7ba3e"/>
  <rect stroke="#000" id="svg_39" height="22" width="54.42106" y="823.77793" x="591.91035" fill="#f7ba3e"/>
  <rect stroke="#000" id="svg_40" height="22" width="54.42106" y="823.77793" x="641.38403" fill="#f7ba3e"/>
  <rect stroke="#000" id="svg_41" height="22" width="54.42106" y="823.77793" x="695.06825" fill="#f7ba3e"/>
  <rect stroke="#000" y="807.73069" x="867.72672" width="587.48765" id="svg_50" height="25.24009" fill="#8bb8be"/>
  <rect stroke="#000" y="887.188" x="1388.43569" width="609.05561" id="svg_62" height="40" fill="#5b8b95"/>
  <rect stroke="#000" y="856.99586" x="1405.28542" width="622.12483" id="svg_58" height="48.57143" fill="#8bb8be"/>
  <rect stroke="#000" id="svg_59" height="22" width="54.42106" y="551.1727" x="1089.11606" fill="#f7ba3e"/>
  <rect stroke="#000" id="svg_60" height="22" width="54.42106" y="551.1727" x="983.85291" fill="#f7ba3e"/>
  <rect stroke="#000" id="svg_61" height="22" width="54.42106" y="551.1727" x="1037.53712" fill="#f7ba3e"/>
  <rect stroke="#000" y="825.56729" x="1452.34146" width="592.15543" id="svg_64" height="30.85721" fill="#a5e306"/>
  <rect transform="rotate(-5 2505.49 593.861)" stroke="#000" y="565.74814" x="2479.17887" width="52.61609" id="svg_75" height="56.2264" fill="#a5e306"/>
  <rect stroke="#000" y="344.65959" x="2735.58909" width="91.53958" id="svg_104" height="46.2264" fill="#a5e306"/>
  <rect transform="rotate(45 1995.6 112.614)" stroke="#000" y="84.66508" x="1960.56896" width="70.06746" id="svg_106" height="55.89789" fill="#a5e306"/>
  <rect stroke="#000" id="svg_108" height="120.69525" width="60" y="153.44748" x="1765.14467" fill="#ff7f00"/>
  <ellipse transform="rotate(180 1795.22 277.861)" ry="30" rx="30" id="svg_107" cy="277.86117" cx="1795.22442" stroke="#000" fill="#ff7f00"/>
  <rect transform="rotate(-45 1565.48 111.655)" stroke="#000" y="83.70668" x="1530.44973" width="70.06746" id="svg_109" height="55.89789" fill="#a5e306"/>
  <rect stroke="#000" y="124.97388" x="1540.8709" width="483.22191" id="svg_111" height="32.7179" fill="#487d8f"/>
  <ellipse stroke="#000" ry="20" rx="20" id="svg_112" fill="#000000" cy="70.81123" cx="1589.56185" class="tree1"/>
  <ellipse stroke="#000" ry="20" rx="20" id="svg_113" fill="#000000" cy="69.44757" cx="1911.57152" class="grass2"/>
  <ellipse stroke="#000" ry="20" rx="20" id="svg_114" fill="#000000" cy="69.97967" cx="1834.43478" class="grass2"/>
  <rect stroke="#000" y="67.87382" x="1568.68335" width="423.19611" id="svg_115" height="51.00015" fill="#a5e306"/>
  <rect stroke="#000" y="116.71075" x="1521.73129" width="518.0463" id="svg_116" height="16.58621" fill="#8bb8be"/>
  <rect stroke="#000" id="svg_117" height="22" width="54.42106" y="65.76771" x="1707.11619" fill="#f7ba3e"/>
  <rect stroke="#000" id="svg_118" height="22" width="54.42106" y="65.76771" x="1601.85303" fill="#f7ba3e"/>
  <rect stroke="#000" id="svg_119" height="22" width="54.42106" y="65.76771" x="1655.53724" fill="#f7ba3e"/>
  <rect stroke="#000" y="553.56448" x="449.77363" width="286.1607" id="svg_26" height="31.71443" fill="#a5e306"/>
  <rect stroke="#000" y="521.77055" x="729.27261" width="14.55419" id="svg_125" height="87.77044" fill="#8bb8be"/>
  <path stroke="#000" id="svg_126" d="m726.6256,517.65504l19.56879,0l0,13.8969l-19.56879,0l0,-13.8969z" opacity="undefined" fill="#487d8f"/>
  <rect stroke="#000" y="514.62916" x="723.17183" width="26.40551" id="svg_123" height="14.10965" fill="#a5e306"/>
  <rect stroke="#000" y="554.53121" x="555.87793" width="111.50778" id="svg_232" height="40.61054" fill="#a5e306"/>
  <rect stroke="#000" y="824.68156" x="255.8767" width="111.50778" id="svg_233" height="40.61054" fill="#a5e306"/>
  <rect stroke="#000" y="826.1741" x="39.52561" width="18.97008" id="svg_234" height="34.64037" fill="#a5e306"/>
  <rect stroke="#000" y="777.20739" x="866.64865" width="590.19505" id="svg_235" height="43.47925" fill="#a5e306"/>
  <rect stroke="#000" y="777.35418" x="1192.98259" width="72.70165" id="svg_236" height="49.44942" fill="#a5e306"/>
  <rect stroke="#000" y="826.60812" x="1637.62071" width="156.28407" id="svg_237" height="43.47925" fill="#a5e306"/>
  <rect stroke="#000" y="826.60812" x="1685.38209" width="72.70165" id="svg_238" height="49.44942" fill="#a5e306"/>
  <rect stroke="#000" y="68.39609" x="1833.14388" width="72.70165" id="svg_240" height="64.37485" fill="#a5e306"/>
  <rect stroke="#000" y="563.92048" x="2619.71424" width="72.70165" id="svg_241" height="70.34503" fill="#a5e306"/>
  <rect stroke="#000" y="563.92048" x="2810.1408" width="11.50737" id="svg_242" height="58.40468" fill="#a5e306"/>
  <rect stroke="#000" y="778.84673" x="1085.37969" width="111.50778" id="svg_243" height="43.47925" fill="#a5e306"/>
 </g>
</svg>