<svg width="2000" height="1237" xmlns="http://www.w3.org/2000/svg">
 <title>course7</title>

 <g class="layer">
  <title>Round the Bend, 5</title>
  <rect stroke="#000" y="670.11224" x="15.9931" width="26.18406" id="svg_33" height="47.05882" fill="#8bb8be"/>
  <rect stroke="#000" y="709.12429" x="15.9931" width="40.3017" id="svg_32" height="40" fill="#8bb8be"/>
  <rect stroke="#000" y="748.5843" x="15.9931" width="57.94875" id="svg_31" height="40" fill="#8bb8be"/>
  <rect stroke="#000" y="788.60159" x="15.9931" width="75.5958" id="svg_30" height="40" fill="#8bb8be"/>
  <rect stroke="#000" y="823.58056" x="15.9931" width="101.47814" id="svg_29" height="40" fill="#8bb8be"/>
  <rect stroke="#000" y="860.72797" x="15.9931" width="119.12519" id="svg_28" height="40" fill="#5b8b95"/>
  <rect stroke="#000" y="897.66988" x="15.9931" width="143.83106" id="svg_22" height="40" fill="#5b8b95"/>
  <rect stroke="#000" y="936.4934" x="15.9931" width="170.88988" id="svg_21" height="40" fill="#5b8b95"/>
  <rect stroke="#000" y="970.61103" x="15.9931" width="207.36045" id="svg_15" height="40" fill="#5b8b95"/>
  <rect stroke="#000" y="1003.5522" x="15.9931" width="247.36046" id="svg_14" height="40" fill="#487d8f"/>
  <rect stroke="#000" y="1036.49336" x="15.9931" width="308.53691" id="svg_11" height="40" fill="#487d8f"/>
  <rect stroke="#000" y="1070.611" x="15.9931" width="421.47807" id="svg_7" height="40" fill="#487d8f"/>
  <rect stroke="#000" y="1096.611" x="16.22842" width="732.88977" id="svg_4" height="40" fill="#487d8f"/>
  <rect stroke="#000" y="651.48175" x="926.15724" width="40" id="svg_19" height="568.97293" fill="#8bb8be"/>
  <ellipse stroke="#000" ry="20" rx="20" id="svg_5" fill="#000000" cy="726.58854" cx="561.78479" class="grass1"/>
  <ellipse stroke="#000" ry="20" rx="20" id="svg_3" fill="#000000" cy="726.58854" cx="405.07393" class="tree1"/>
  <rect stroke="#000" y="758.611" x="319.99315" width="218.88973" id="svg_24" height="40" fill="#487d8f"/>
  <rect stroke="#000" y="507.33665" x="323.27958" width="40" id="svg_84" height="227.8823" fill="#8bb8be"/>
  <rect stroke="#000" y="716.83138" x="319.63729" width="48.86517" id="svg_85" height="34.50562" fill="#a8cbcc"/>
  <rect stroke="#000" y="746.60053" x="319.89" width="302.40626" id="svg_23" height="40" fill="#5b8b95"/>
  <ellipse stroke="#000" ry="20" rx="20" id="svg_16" fill="#00ff00" cy="1025.41018" cx="529.21449"/>
  <ellipse stroke="#000" ry="20" rx="20" id="svg_17" fill="#ff0000" cy="164.90277" cx="919.36963"/>
  <rect stroke="#000" y="735.76575" x="319.69717" width="320.22632" id="svg_10" height="37.17948" fill="#8bb8be"/>
  <rect stroke="#000" y="726.58854" x="319.46089" width="372.3239" id="svg_9" height="30" fill="#a5e306"/>
  <rect stroke="#000" y="637.97651" x="926.27801" width="52.5951" id="svg_34" height="18.13563" fill="#487d8f"/>
  <rect stroke="#000" y="317.1948" x="1639.40736" width="40" id="svg_20" height="299.11517" fill="#8bb8be"/>
  <rect stroke="#000" y="597.92241" x="1635.76506" width="48.86517" id="svg_1" height="34.50562" fill="#a8cbcc"/>
  <rect y="229.86658" x="785.09153" width="310" stroke="#000" id="svg_8" height="30" fill="#5b8b95"/>
  <rect stroke="#000" y="1216.99664" x="921.53266" width="49.74476" id="svg_12" height="18.60752" fill="#8bb8be"/>
  <ellipse stroke="#000" ry="20" rx="20" id="svg_2" fill="#000000" cy="169.86658" cx="1025.09153" class="tree1"/>
  <rect transform="rotate(-30 793.142 196.548)" stroke="#000" y="180.95065" x="757.9036" width="70.47594" id="svg_44" height="31.19424" fill="#a5e306"/>
  <rect stroke="#000" y="54.53466" x="820.95097" width="40" id="svg_88" height="112.81378" fill="#8bb8be"/>
  <rect stroke="#000" y="148.96087" x="817.30868" width="48.86517" id="svg_89" height="24.8282" fill="#a8cbcc"/>
  <rect stroke="#000" y="165.75699" x="815.91344" width="277.9452" id="svg_13" height="34.10959" fill="#a5e306"/>
  <rect y="726.58854" x="451.78479" width="120" stroke="#000" id="svg_26" height="50" fill="#a5e306"/>
  <rect stroke="#000" y="702.21454" x="1385.06848" width="300.33709" id="svg_40" height="30" fill="#487d8f"/>
  <rect stroke="#000" y="672.21454" x="1345.06848" width="340.3371" id="svg_41" height="30" fill="#5b8b95"/>
  <rect stroke="#000" y="642.21454" x="1325.06848" width="360.33707" id="svg_42" height="30" fill="#8bb8be"/>
  <ellipse stroke="#000" ry="20" rx="20" id="svg_18" fill="#000000" cy="606.8382" cx="1525.17599" class="grass2"/>
  <rect stroke="#000" y="612.21454" x="1285.06848" width="400.33712" id="svg_43" height="30" fill="#a5e306"/>
  <rect y="612.21454" x="1365.06848" width="70" stroke="#000" id="svg_46" height="50" fill="#a5e306"/>
  <rect y="612.21454" x="1535.06848" width="70" stroke="#000" id="svg_47" height="50" fill="#a5e306"/>
  <ellipse stroke="#000" ry="20" rx="20" id="svg_6" fill="#000000" cy="622.86862" cx="951.65245" class="grass2"/>
  <rect stroke="#000" y="619.09817" x="926.28656" width="69.41177" id="svg_25" height="30" fill="#a5e306"/>
  <rect transform="rotate(65 88.5466 778.078)" stroke="#000" y="763.07812" x="-39.842" width="256.77711" id="svg_52" height="30" fill="#a5e306"/>
  <rect transform="rotate(55 169.659 925.81)" stroke="#000" y="910.80986" x="150.41914" width="38.48077" id="svg_53" height="30" fill="#a5e306"/>
  <rect transform="rotate(50 188.264 950.485)" stroke="#000" y="935.48428" x="169.02377" width="38.48077" id="svg_54" height="30" fill="#a5e306"/>
  <rect transform="rotate(45 210.745 975.554)" stroke="#000" y="960.5535" x="191.50438" width="38.48077" id="svg_55" height="30" fill="#a5e306"/>
  <rect transform="rotate(40 232.45 995.709)" stroke="#000" y="980.70851" x="213.20978" width="38.48077" id="svg_56" height="30" fill="#a5e306"/>
  <rect transform="rotate(35 257.256 1014.31)" stroke="#000" y="999.31315" x="238.01596" width="38.48077" id="svg_57" height="30" fill="#a5e306"/>
  <rect transform="rotate(30 281.287 1030.59)" stroke="#000" y="1015.59221" x="262.04695" width="38.48077" id="svg_58" height="30" fill="#a5e306"/>
  <rect transform="rotate(25 314.165 1047.41)" stroke="#000" y="1032.40677" x="294.92537" width="38.48077" id="svg_59" height="30" fill="#a5e306"/>
  <rect transform="rotate(20 345.337 1059.81)" stroke="#000" y="1044.81084" x="326.09691" width="38.48077" id="svg_60" height="30" fill="#a5e306"/>
  <rect transform="rotate(15 375.145 1069.43)" stroke="#000" y="1054.42615" x="355.90439" width="38.48077" id="svg_61" height="30" fill="#a5e306"/>
  <rect transform="rotate(10 406.875 1076.16)" stroke="#000" y="1061.15688" x="387.63493" width="38.48077" id="svg_62" height="30" fill="#a5e306"/>
  <rect transform="rotate(5 442.452 1080.96)" stroke="#000" y="1065.96453" x="423.21161" width="38.48077" id="svg_63" height="30" fill="#a5e306"/>
  <ellipse ry="21.73926" rx="21.73926" id="svg_81" cy="1072.05111" cx="737.69115" stroke="#000" fill="#a5e306"/>
  <rect stroke="#000" y="300.5762" x="1633.31579" width="52.5951" id="svg_79" height="18.13563" fill="#487d8f"/>
  <rect y="282.00248" x="1619.40736" width="80" stroke="#000" id="svg_27" height="30" fill="#a5e306"/>
  <rect stroke="#000" y="199.86658" x="755.09153" width="339.863" id="svg_80" height="30" fill="#8bb8be"/>
  <rect stroke="#000" y="37.91606" x="814.85941" width="52.5951" id="svg_90" height="18.13563" fill="#487d8f"/>
  <rect y="19.34233" x="800.95097" width="80" stroke="#000" id="svg_91" height="30" fill="#a5e306"/>
  <rect stroke="#000" y="166.53766" x="857.96822" width="70" id="svg_45" height="39.63028" fill="#a5e306"/>
  <ellipse stroke="#000" ry="20" rx="20" id="svg_95" fill="#000000" cy="1070.07352" cx="632.5289" class="grass2"/>
  <rect stroke="#000" y="1067.63506" x="459.96848" width="300.56993" id="svg_82" height="30" fill="#a5e306"/>
  <rect stroke="#000" y="1068.20714" x="591.85329" width="97.67022" id="svg_64" height="36.67433" fill="#a5e306"/>
  <rect stroke="#000" y="1067.90204" x="473.01203" width="97.67022" id="svg_83" height="39.878" fill="#a5e306"/>
  <rect stroke="#000" y="492.02328" x="317.18802" width="52.5951" id="svg_86" height="18.13563" fill="#487d8f"/>
  <rect y="473.44955" x="303.27958" width="80" stroke="#000" id="svg_87" height="30" fill="#a5e306"/>
  <rect transform="rotate(60 153.38 900.228)" stroke="#000" y="885.22848" x="134.14009" width="38.48077" id="svg_92" height="30" fill="#a5e306"/>
 </g>
</svg>