<?xml version="1.0"?>
<svg width="3181" height="1676" xmlns="http://www.w3.org/2000/svg" xmlns:svg="http://www.w3.org/2000/svg">
 <title>course1</title>
 <g class="layer">
  <title>Good Grief!, 6</title>
  <rect fill="#487d8f" height="34.95" id="svg_4" stroke="#000" width="796.64" x="2098.37" y="1146.17"/>
  <rect fill="#8bb8be" height="62" id="svg_275" stroke="#000" width="142.15" x="2760.39" y="976.01"/>
  <rect fill="#8bb8be" height="48" id="svg_270" stroke="#000" width="76.86" x="2706.69" y="1006.01"/>
  <rect fill="#a5e306" height="30" id="svg_289" stroke="#000" transform="rotate(-25 2743.02 997.2)" width="138.45" x="2673.8" y="982.2"/>
  <rect fill="#8bb8be" height="68" id="svg_273" stroke="#000" width="423.52" x="2475.95" y="1090.17"/>
  <rect fill="#8bb8be" height="60.86" id="svg_269" stroke="#000" width="143.07" x="2415.49" y="1115.09"/>
  <rect fill="#a5e306" height="29.65" id="svg_274" stroke="#000" transform="rotate(-30 2494.48 1082.72)" width="216.75" x="2386.1" y="1067.9"/>
  <rect fill="#a5e306" height="26" id="svg_290" stroke="#000" width="105.71" x="2579.27" y="1013.69"/>
  <rect fill="#a5e306" height="56.2" id="svg_133" stroke="#000" transform="rotate(30 255.269 780.23)" width="115.73" x="197.4" y="752.13"/>
  <ellipse class="tree1" cx="1260.42" cy="1256.21" fill="#000000" id="svg_352" rx="20" ry="20" stroke="#000"/>
  <rect fill="#8bb8be" height="16.35" id="svg_309" stroke="#000" width="941.42" x="1064.22" y="541.86"/>
  <rect fill="#8bb8be" height="14.2" id="svg_237" stroke="#000" width="974.36" x="1052.96" y="556.78"/>
  <rect fill="#8bb8be" height="31.83" id="svg_318" stroke="#000" width="222.05" x="1056.69" y="901.61"/>
  <rect fill="#8bb8be" height="17.71" id="svg_317" stroke="#000" width="280.22" x="1030.94" y="916.79"/>
  <path d="m1063.75,894.99l207.94,0l0,38.89l-207.94,0l0,-38.89z" fill="#8bb8be" id="svg_303" opacity="undefined" stroke="#000"/>
  <rect fill="#8bb8be" height="21.06" id="svg_314" stroke="#000" width="188.74" x="1788.32" y="521.86"/>
  <rect fill="#8bb8be" height="56.35" id="svg_313" stroke="#000" width="71.09" x="1847.14" y="495.98"/>
  <rect fill="#8bb8be" height="21.06" id="svg_312" stroke="#000" width="121.68" x="1822.44" y="501.32"/>
  <rect fill="#8bb8be" height="21.06" id="svg_311" stroke="#000" width="116.98" x="1125.4" y="501.32"/>
  <rect fill="#8bb8be" height="56.35" id="svg_173" stroke="#000" width="71.09" x="1150.11" y="501.86"/>
  <rect fill="#8bb8be" height="21.06" id="svg_310" stroke="#000" width="182.86" x="1092.46" y="521.86"/>
  <rect fill="#487d8f" height="40" id="svg_267" stroke="#000" width="348.57" x="186.32" y="1202.58"/>
  <rect fill="#8bb8be" height="58" id="svg_266" stroke="#000" width="239.07" x="432.48" y="1117.95"/>
  <rect fill="#a5e306" height="56.2" id="svg_262" stroke="#000" transform="rotate(-30 2747.93 770.959)" width="125.39" x="2685.23" y="742.86"/>
  <rect fill="#a5e306" height="70" id="svg_263" stroke="#000" width="98" x="2788.32" y="717.14"/>
  <rect fill="#8bb8be" height="48" id="svg_231" stroke="#000" width="76.86" x="215.81" y="1006.01"/>
  <rect fill="#5b8b95" height="16.35" id="svg_172" stroke="#000" width="1021.95" x="1024.11" y="564.92"/>
  <rect fill="#5b8b95" height="22.26" id="svg_193" stroke="#000" width="1073.19" x="998.84" y="579.13"/>
  <rect fill="#5b8b95" height="12.41" id="svg_171" stroke="#000" width="1133.99" x="968.5" y="594.39"/>
  <rect fill="#a5e306" height="30" id="svg_104" stroke="#000" width="213.71" x="286.1" y="1059.77"/>
  <ellipse class="grass1" cx="372.2" cy="1011.77" fill="#000000" id="svg_2" rx="20" ry="20" stroke="#000" transform="matrix(1 0 0 1 0 0)"/>
  <rect fill="#8bb8be" height="68" id="svg_111" stroke="#000" width="439.52" x="105.81" y="1090.17"/>
  <rect fill="#a5e306" height="27.65" id="svg_157" stroke="#000" transform="rotate(30 505.995 1078.87)" width="204.82" x="403.58" y="1065.05"/>
  <rect fill="#8bb8be" height="62" id="svg_152" stroke="#000" width="142.15" x="106.52" y="976.01"/>
  <rect fill="#8bb8be" height="32" id="svg_116" stroke="#000" width="325.33" x="108.52" y="1028.01"/>
  <rect fill="#487d8f" height="40" id="svg_17" stroke="#000" width="368.89" x="2457.86" y="856.39"/>
  <ellipse cx="1530.46" cy="1257.38" fill="#ff0000" id="svg_56" rx="19" ry="19" stroke="#000"/>
  <ellipse class="grass1" cx="568.25" cy="777.5" fill="#000000" id="svg_5" rx="20" ry="20" stroke="#000" transform="matrix(1 0 0 1 0 0)"/>
  <ellipse class="tree1" cx="379.25" cy="785.5" fill="#000000" id="svg_3" rx="20" ry="20" stroke="#000" transform="matrix(1 0 0 1 0 0)"/>
  <rect fill="#487d8f" height="30" id="svg_89" stroke="#000" width="622.67" x="106.67" y="1190.74"/>
  <rect fill="#487d8f" height="40" id="svg_24" stroke="#000" width="348.57" x="199.68" y="873.15"/>
  <rect fill="#5b8b95" height="40" id="svg_23" stroke="#000" width="545.71" x="118.25" y="857.5"/>
  <ellipse cx="1529.77" cy="490.9" fill="#00ff00" id="svg_16" rx="20" ry="20" stroke="#000"/>
  <rect fill="#8bb8be" height="50" id="svg_10" stroke="#000" width="562.86" x="118.25" y="807.5"/>
  <rect fill="#a5e306" height="70" id="svg_134" stroke="#000" width="98" x="120.27" y="728.83"/>
  <rect fill="#8bb8be" height="30.22" id="svg_135" stroke="#000" transform="rotate(39 168.006 782.536)" width="37.73" x="149.14" y="767.43"/>
  <rect fill="#a5e306" height="22" id="svg_9" stroke="#000" width="580" x="118.25" y="787.7"/>
  <rect fill="#5b8b95" height="38" id="svg_11" opacity="0.9" stroke="#000" width="40" x="175.88" y="34"/>
  <rect fill="#487d8f" height="37" id="svg_15" opacity="0.9" stroke="#000" width="38" x="225.88" y="34"/>
  <rect fill="#8bb8be" height="36" id="svg_21" opacity="0.9" stroke="#000" width="40" x="125.88" y="34"/>
  <rect fill="#a5e306" height="38" id="svg_22" opacity="0.9" stroke="#000" width="38" x="269.32" y="32.71"/>
  <rect fill="#a5e306" height="50" id="svg_35" stroke="#000" width="100" x="218.25" y="777.5"/>
  <rect fill="#a8cbcc" height="39" id="svg_1" opacity="0.9" stroke="#000" width="41" x="78" y="32"/>
  <rect fill="#a5e306" height="30" id="svg_13" stroke="#000" width="157.71" x="110.48" y="1059.77"/>
  <rect fill="#a5e306" height="50" id="svg_26" stroke="#000" width="120" x="458.25" y="777.5"/>
  <rect fill="#a5e306" height="40" id="svg_44" stroke="#000" width="13.65" x="105.89" y="1059.77"/>
  <rect fill="#ff7f00" height="38" id="svg_30" opacity="0.9" stroke="#000" width="38" x="316.5" y="32.5"/>
  <rect fill="#f7ba3e" height="38" id="svg_159" opacity="0.9" stroke="#000" width="38" x="390.5" y="31.5"/>
  <text fill="#000000" font-family="Serif" font-size="24" id="svg_160" stroke="#000" stroke-width="0" text-anchor="middle" x="407" xml:space="preserve" y="25">Sand</text>
  <rect fill="#0000ff" height="38" id="svg_161" opacity="0.9" stroke="#000" width="38" x="484.5" y="30.5"/>
  <text fill="#000000" font-family="Serif" font-size="24" id="svg_162" stroke="#000" stroke-width="0" text-anchor="middle" x="498" xml:space="preserve" y="24.5">Spinner</text>
  <rect fill="#00ffff" height="38" id="svg_164" opacity="0.9" stroke="#000" width="38" x="579.5" y="32.5"/>
  <text fill="#000000" font-family="Serif" font-size="24" id="svg_165" stroke="#000" stroke-width="0" text-anchor="middle" x="593.01" xml:space="preserve" y="24.5">Water</text>
  <rect fill="#ff00ff" height="38" id="svg_166" opacity="0.9" stroke="#000" width="38" x="655.5" y="37.83"/>
  <text fill="#000000" font-family="Serif" font-size="24" id="svg_167" stroke="#000" stroke-width="0" text-anchor="middle" x="676.01" xml:space="preserve" y="26.5">Wood</text>
  <rect fill="#ffff00" height="38" id="svg_168" opacity="0.9" stroke="#000" width="38" x="729.5" y="35.39"/>
  <text fill="#000000" font-family="Serif" font-size="24" id="svg_169" stroke="#000" stroke-width="0" text-anchor="middle" x="752" xml:space="preserve" y="25.5">Bouncer</text>
  <rect fill="#a5e306" height="50" id="svg_45" stroke="#000" width="70" x="166.2" y="1059.77"/>
  <ellipse class="grass1" cx="2639.39" cy="777.41" fill="#000000" id="svg_57" rx="20" ry="20" stroke="#000"/>
  <ellipse class="tree1" cx="2543.86" cy="777.41" fill="#000000" id="svg_58" rx="20" ry="20" stroke="#000" transform="matrix(1 0 0 1 0 0)"/>
  <rect fill="#487d8f" height="40" id="svg_59" stroke="#000" width="566.13" x="2320.92" y="836.7"/>
  <rect fill="#8bb8be" height="50" id="svg_61" stroke="#000" width="588.86" x="2297.86" y="791.27"/>
  <rect fill="#a5e306" height="20" id="svg_62" stroke="#000" width="614" x="2273.86" y="777.41"/>
  <rect fill="#a5e306" height="50" id="svg_63" stroke="#000" width="100" x="2373.86" y="777.41"/>
  <rect fill="#a5e306" height="50" id="svg_64" stroke="#000" width="120" x="2613.86" y="777.41"/>
  <rect fill="#487d8f" height="36" id="svg_96" stroke="#000" width="842" x="106.68" y="1162.74"/>
  <rect fill="#a5e306" height="24" id="svg_101" stroke="#000" width="222.52" x="583.16" y="1112.3"/>
  <rect fill="#5b8b95" height="30" id="svg_102" stroke="#000" width="78.29" x="756.39" y="1138.74"/>
  <rect fill="#a5e306" height="40" id="svg_105" stroke="#000" width="100" x="267.15" y="1059.77"/>
  <rect fill="#a5e306" height="22" id="svg_108" stroke="#000" width="94.52" x="890.6" y="1140.3"/>
  <rect fill="#a5e306" height="25.34" id="svg_110" stroke="#000" transform="rotate(17 849.383 1139.23)" width="100.63" x="799.07" y="1126.56"/>
  <rect fill="#5b8b95" height="30" id="svg_8" stroke="#000" width="788.28" x="106.38" y="1148.74"/>
  <rect fill="#a5e306" height="27.65" id="svg_153" stroke="#000" width="102.19" x="106.01" y="954.04"/>
  <rect fill="#a5e306" height="30" id="svg_155" stroke="#000" transform="rotate(25 265.074 997.2)" width="138.45" x="195.85" y="982.2"/>
  <rect fill="#a5e306" height="30" id="svg_156" stroke="#000" width="105.71" x="316.48" y="1013.69"/>
  <ellipse class="tree2" cx="1738.67" cy="527.92" fill="#000000" id="svg_175" rx="20" ry="20" stroke="#000" transform="matrix(1 0 0 1 0 0)"/>
  <ellipse class="tree2" cx="1341.11" cy="532.81" fill="#000000" id="svg_176" rx="20" ry="20" stroke="#000"/>
  <rect fill="#a5e306" height="15.31" id="svg_177" stroke="#000" width="60.22" x="1157.37" y="485.03"/>
  <rect fill="#a5e306" height="50" id="svg_179" stroke="#000" width="102.35" x="653" y="1111.5"/>
  <rect fill="#a5e306" height="18.02" id="svg_182" stroke="#000" transform="rotate(30 1259.73 521.135)" width="110.07" x="1204.69" y="512.12"/>
  <rect fill="#a5e306" height="14.07" id="svg_235" stroke="#000" width="60.22" x="1853.84" y="485.03"/>
  <rect fill="#a5e306" height="17.43" id="svg_234" stroke="#000" transform="rotate(-30 1809.93 518.507)" width="105.99" x="1756.93" y="509.79"/>
  <rect fill="#a5e306" height="16" id="svg_236" stroke="#000" transform="rotate(30 2006.81 546.871)" width="220.64" x="1896.49" y="538.87"/>
  <ellipse class="grass1" cx="1792.67" cy="1256.63" fill="#000000" id="svg_248" rx="20" ry="20" stroke="#000" transform="matrix(1 0 0 1 0 0)"/>
  <rect fill="#487d8f" height="40" id="svg_268" stroke="#000" width="348.57" x="2433.08" y="1202.58"/>
  <rect fill="#a5e306" height="30" id="svg_271" stroke="#000" width="213.71" x="2687.56" y="1059.77"/>
  <ellipse class="grass2" cx="2354.42" cy="1108.21" fill="#000000" id="svg_272" rx="20" ry="20" stroke="#000" transform="matrix(1 0 0 1 0 0)"/>
  <rect fill="#8bb8be" height="32" id="svg_276" stroke="#000" width="335.33" x="2567.13" y="1030.23"/>
  <rect fill="#a5e306" height="30" id="svg_278" stroke="#000" width="185.71" x="2508.15" y="1059.77"/>
  <rect fill="#487d8f" height="30" id="svg_277" stroke="#000" width="622.67" x="2272.73" y="1190.74"/>
  <rect fill="#a5e306" height="50" id="svg_280" stroke="#000" width="70" x="2642.86" y="1059.77"/>
  <rect fill="#487d8f" height="30" id="svg_281" stroke="#000" width="842" x="2054.16" y="1168.74"/>
  <rect fill="#a5e306" height="34" id="svg_282" stroke="#000" width="222.52" x="2191.56" y="1112.3"/>
  <rect fill="#a5e306" height="28" id="svg_285" stroke="#000" width="94.52" x="2008.37" y="1140.3"/>
  <rect fill="#a5e306" height="32" id="svg_286" stroke="#000" transform="rotate(-17 2147.95 1142.42)" width="100.63" x="2097.64" y="1126.41"/>
  <rect fill="#a5e306" height="27.65" id="svg_288" stroke="#000" width="102.19" x="2802.6" y="954.04"/>
  <rect fill="#a5e306" height="50" id="svg_291" stroke="#000" width="102.35" x="2217.8" y="1111.5"/>
  <rect fill="#8bb8be" height="17.71" id="svg_300" stroke="#000" width="321.4" x="1008.59" y="929.78"/>
  <rect fill="#5b8b95" height="30.59" id="svg_301" stroke="#000" width="386.89" x="975.58" y="944.41"/>
  <rect fill="#487d8f" height="23.14" id="svg_302" stroke="#000" width="449.88" x="945.03" y="963.69"/>
  <rect fill="#487d8f" height="14.9" id="svg_304" stroke="#000" width="503.21" x="916.8" y="981.34"/>
  <rect fill="#a5e306" height="16.36" id="svg_305" stroke="#000" transform="rotate(30 1340.5 939.941)" width="206.25" x="1237.37" y="931.76"/>
  <rect fill="#a5e306" height="15.46" id="svg_306" stroke="#000" transform="rotate(-30 994.74 941.108)" width="205.66" x="891.91" y="933.38"/>
  <rect fill="#a5e306" height="14.71" id="svg_307" stroke="#000" width="171.77" x="1082.16" y="880.7"/>
  <rect fill="#8bb8be" height="31.83" id="svg_319" stroke="#000" width="222.05" x="1809.08" y="901.61"/>
  <rect fill="#8bb8be" height="17.71" id="svg_320" stroke="#000" width="280.22" x="1783.33" y="916.79"/>
  <path d="m1816.14,894.99l207.93,0l0,38.89l-207.93,0l0,-38.89z" fill="#8bb8be" id="svg_321" opacity="undefined" stroke="#000"/>
  <rect fill="#8bb8be" height="17.71" id="svg_322" stroke="#000" width="321.4" x="1760.97" y="929.78"/>
  <rect fill="#5b8b95" height="30.59" id="svg_323" stroke="#000" width="386.89" x="1727.97" y="944.41"/>
  <rect fill="#487d8f" height="23.14" id="svg_324" stroke="#000" width="449.88" x="1697.42" y="963.69"/>
  <rect fill="#487d8f" height="14.9" id="svg_325" stroke="#000" width="503.21" x="1669.18" y="981.34"/>
  <rect fill="#a5e306" height="16.36" id="svg_326" stroke="#000" transform="rotate(30 2092.89 939.941)" width="206.25" x="1989.76" y="931.76"/>
  <rect fill="#a5e306" height="15.46" id="svg_327" stroke="#000" transform="rotate(-30 1747.13 941.108)" width="205.66" x="1644.3" y="933.38"/>
  <rect fill="#a5e306" height="14.71" id="svg_328" stroke="#000" width="171.77" x="1834.55" y="880.7"/>
  <rect fill="#a5e306" height="16" id="svg_330" stroke="#000" transform="rotate(-30 1063.86 547.982)" width="220.64" x="953.54" y="539.98"/>
  <rect fill="#a5e306" height="18.89" id="svg_184" stroke="#000" width="462.22" x="1304.78" y="537"/>
  <rect fill="#8bb8be" height="16.35" id="svg_331" stroke="#000" width="941.42" x="1064.22" y="1320.55"/>
  <rect fill="#8bb8be" height="14.2" id="svg_332" stroke="#000" width="974.36" x="1052.96" y="1334.18"/>
  <rect fill="#8bb8be" height="21.06" id="svg_336" stroke="#000" width="813.9" x="1125.4" y="1280.62"/>
  <rect fill="#8bb8be" height="21.06" id="svg_338" stroke="#000" width="887.47" x="1092.46" y="1300.55"/>
  <rect fill="#5b8b95" height="16.35" id="svg_339" stroke="#000" width="1021.95" x="1024.11" y="1342.32"/>
  <rect fill="#5b8b95" height="22.26" id="svg_340" stroke="#000" width="1073.19" x="998.84" y="1356.53"/>
  <rect fill="#5b8b95" height="12.41" id="svg_341" stroke="#000" width="1133.99" x="968.5" y="1371.79"/>
  <rect fill="#a5e306" height="15.31" id="svg_345" stroke="#000" width="706.38" x="1157.37" y="1266.33"/>
  <rect fill="#a5e306" height="14.07" id="svg_347" stroke="#000" width="60.22" x="1853.84" y="1266.43"/>
  <rect fill="#a5e306" height="16" id="svg_349" stroke="#000" transform="rotate(30 2006.81 1326.27)" width="220.64" x="1896.49" y="1318.27"/>
  <rect fill="#a5e306" height="16" id="svg_350" stroke="#000" transform="rotate(-30 1063.86 1325.38)" width="220.64" x="953.54" y="1317.38"/>
 </g>
</svg>