<?xml version="1.0"?>
<svg width="3181" height="1529.0000000000002" xmlns="http://www.w3.org/2000/svg" xmlns:svg="http://www.w3.org/2000/svg">
 <title>course1</title>
 <g class="layer">
  <title>More Over That, 5</title>
  <rect fill="#8bb8be" height="78" id="svg_132" stroke="#000" width="36" x="1371.29" y="342.05"/>
  <rect fill="#8bb8be" height="46" id="svg_116" stroke="#000" width="262.86" x="1450.03" y="946.45"/>
  <rect fill="#a5e306" height="30" id="svg_114" stroke="#000" width="207.71" x="1474.71" y="922.13"/>
  <rect fill="#a5e306" height="32.8" id="svg_113" stroke="#000" transform="rotate(-30 1436.92 963.737)" width="100.63" x="1386.6" y="947.34"/>
  <rect fill="#a5e306" height="31.54" id="svg_112" stroke="#000" transform="rotate(30 1716.86 963.187)" width="100.63" x="1666.54" y="947.42"/>
  <rect fill="#8bb8be" height="46" id="svg_111" stroke="#000" width="536.86" x="1336.03" y="996.61"/>
  <rect fill="#8bb8be" height="474" id="svg_19" stroke="#000" width="40" x="345.98" y="800.61"/>
  <rect fill="#487d8f" height="40" id="svg_17" stroke="#000" width="60" x="335.77" y="759.73"/>
  <ellipse cx="1636.5" cy="367.85" fill="#ff0000" id="svg_56" rx="19" ry="19" stroke="#000"/>
  <ellipse class="grass1" cx="793.98" cy="1236.61" fill="#000000" id="svg_5" rx="20" ry="20" stroke="#000"/>
  <ellipse class="tree3" cx="477.39" cy="1236.61" fill="#000000" id="svg_3" rx="20" ry="20" stroke="#000" transform="matrix(1 0 0 1 0 0)"/>
  <rect fill="#487d8f" height="30" id="svg_34" stroke="#000" width="794" x="1106.89" y="1087.18"/>
  <rect fill="#487d8f" height="30" id="svg_89" stroke="#000" width="764" x="1186.89" y="1109.18"/>
  <rect fill="#487d8f" height="40" id="svg_24" stroke="#000" width="348.57" x="425.41" y="1332.26"/>
  <rect fill="#5b8b95" height="40" id="svg_23" stroke="#000" width="545.71" x="343.98" y="1316.61"/>
  <ellipse cx="663.98" cy="1130.61" fill="#00ff00" id="svg_16" rx="20" ry="20" stroke="#000"/>
  <rect fill="#8bb8be" height="50" id="svg_10" stroke="#000" width="562.86" x="343.98" y="1266.61"/>
  <rect fill="#a5e306" height="30" id="svg_9" stroke="#000" width="580" x="343.98" y="1236.61"/>
  <rect fill="#5b8b95" height="38" id="svg_11" opacity="0.9" stroke="#000" width="40" x="175.88" y="34"/>
  <rect fill="#487d8f" height="37" id="svg_15" opacity="0.9" stroke="#000" width="38" x="225.88" y="34"/>
  <rect fill="#8bb8be" height="36" id="svg_21" opacity="0.9" stroke="#000" width="40" x="125.88" y="34"/>
  <rect fill="#a5e306" height="38" id="svg_22" opacity="0.9" stroke="#000" width="38" x="269.32" y="32.71"/>
  <rect fill="#a5e306" height="50" id="svg_35" stroke="#000" width="100" x="443.98" y="1236.61"/>
  <rect fill="#a8cbcc" height="39" id="svg_1" opacity="0.9" stroke="#000" width="41" x="78" y="32"/>
  <rect fill="#8bb8be" height="46" id="svg_12" stroke="#000" width="582.86" x="1352.03" y="1032.61"/>
  <rect fill="#a5e306" height="40" id="svg_109" stroke="#000" transform="rotate(30 1901.88 1022.93)" width="100.63" x="1851.57" y="1002.93"/>
  <rect fill="#a5e306" height="40" id="svg_86" stroke="#000" transform="rotate(-30 1310.72 1022.93)" width="100.63" x="1260.4" y="1002.93"/>
  <rect fill="#a5e306" height="23.53" id="svg_87" stroke="#000" transform="rotate(-17 1188.26 1058.54)" width="100.63" x="1137.95" y="1046.78"/>
  <rect fill="#a5e306" height="40" id="svg_4" stroke="#000" width="222.52" x="1228.82" y="1030.74"/>
  <ellipse class="tree1" cx="1822.42" cy="976.21" fill="#000000" id="svg_2" rx="20" ry="20" stroke="#000"/>
  <rect fill="#a5e306" height="30" id="svg_13" stroke="#000" width="235.71" x="1380.71" y="978.21"/>
  <rect fill="#a5e306" height="50" id="svg_26" stroke="#000" width="120" x="683.98" y="1236.61"/>
  <rect fill="#487d8f" height="32" id="svg_40" stroke="#000" width="410" x="1382.39" y="464.07"/>
  <rect fill="#5b8b95" height="46" id="svg_41" stroke="#000" width="428" x="1364.39" y="430.07"/>
  <rect fill="#a5e306" height="34.22" id="svg_90" stroke="#000" transform="rotate(15 1831.44 404.85)" width="89.31" x="1786.79" y="387.74"/>
  <rect fill="#8bb8be" height="34" id="svg_31" stroke="#000" width="262" x="1604.47" y="426.07"/>
  <rect fill="#8bb8be" height="30" id="svg_42" stroke="#000" width="330" x="1549.87" y="406.07"/>
  <ellipse class="grass2" cx="1736.39" cy="372.07" fill="#000000" id="svg_18" rx="20" ry="20" stroke="#000"/>
  <rect fill="#a5e306" height="30" id="svg_43" stroke="#000" width="226" x="1566.39" y="376.07"/>
  <rect fill="#a5e306" height="40" id="svg_44" stroke="#000" width="116" x="1345.76" y="978.21"/>
  <rect fill="#a5e306" height="54" id="svg_46" stroke="#000" width="70" x="1554.39" y="376.07"/>
  <rect fill="#a5e306" height="50" id="svg_47" stroke="#000" width="70" x="1672.39" y="376.07"/>
  <rect fill="#487d8f" height="22" id="svg_28" stroke="#000" width="52" x="1361.64" y="328.58"/>
  <rect fill="#a5e306" height="30" id="svg_27" stroke="#000" width="64" x="1357.97" y="314.58"/>
  <rect fill="#ff7f00" height="38" id="svg_30" opacity="0.9" stroke="#000" width="38" x="316.5" y="32.5"/>
  <rect fill="#f7ba3e" height="38" id="svg_159" opacity="0.9" stroke="#000" width="38" x="390.5" y="31.5"/>
  <text fill="#000000" font-family="Serif" font-size="24" id="svg_160" stroke="#000" stroke-width="0" text-anchor="middle" x="407" xml:space="preserve" y="25">Sand</text>
  <rect fill="#0000ff" height="38" id="svg_161" opacity="0.9" stroke="#000" width="38" x="484.5" y="30.5"/>
  <text fill="#000000" font-family="Serif" font-size="24" id="svg_162" stroke="#000" stroke-width="0" text-anchor="middle" x="498" xml:space="preserve" y="24.5">Spinner</text>
  <rect fill="#00ffff" height="38" id="svg_164" opacity="0.9" stroke="#000" width="38" x="579.5" y="32.5"/>
  <text fill="#000000" font-family="Serif" font-size="24" id="svg_165" stroke="#000" stroke-width="0" text-anchor="middle" x="593.01" xml:space="preserve" y="24.5">Water</text>
  <rect fill="#ff00ff" height="38" id="svg_166" opacity="0.9" stroke="#000" width="38" x="655.5" y="44.5"/>
  <text fill="#000000" font-family="Serif" font-size="24" id="svg_167" stroke="#000" stroke-width="0" text-anchor="middle" x="676.01" xml:space="preserve" y="26.5">Wood</text>
  <rect fill="#ffff00" height="38" id="svg_168" opacity="0.9" stroke="#000" width="38" x="729.5" y="46.5"/>
  <text fill="#000000" font-family="Serif" font-size="24" id="svg_169" stroke="#000" stroke-width="0" text-anchor="middle" x="752" xml:space="preserve" y="25.5">Bouncer</text>
  <rect fill="#a5e306" height="60.54" id="svg_14" stroke="#000" width="208.93" x="1361.15" y="376.77"/>
  <rect fill="#8bb8be" height="156" id="svg_37" stroke="#000" width="36" x="2384.34" y="576.05"/>
  <rect fill="#f7ba3e" height="56" id="svg_38" stroke="#000" width="352" x="2031.82" y="668.09"/>
  <rect fill="#8bb8be" height="78" id="svg_32" stroke="#000" width="36" x="1995.28" y="638.05"/>
  <rect fill="#a5e306" height="50" id="svg_45" stroke="#000" width="70" x="1514.42" y="978.21"/>
  <rect fill="#a5e306" height="72" id="svg_48" stroke="#000" width="52" x="1986.48" y="656.27"/>
  <rect fill="#a5e306" height="72" id="svg_49" stroke="#000" width="52" x="2378.92" y="656.27"/>
  <rect fill="#487d8f" height="30" id="svg_50" stroke="#000" width="390" x="1995.36" y="763.7"/>
  <rect fill="#5b8b95" height="46" id="svg_51" stroke="#000" width="424" x="1986.1" y="727.7"/>
  <rect fill="#8bb8be" height="30" id="svg_52" stroke="#000" width="360" x="1985.93" y="719.7"/>
  <rect fill="#a5e306" height="30" id="svg_53" stroke="#000" width="358" x="1988.5" y="702.27"/>
  <rect fill="#a5e306" height="42" id="svg_54" stroke="#000" width="252" x="2154.92" y="702.27"/>
  <rect fill="#a5e306" height="50" id="svg_55" stroke="#000" width="58" x="1986.48" y="702.27"/>
  <ellipse class="grass1" cx="744" cy="679.94" fill="#000000" id="svg_57" rx="20" ry="20" stroke="#000"/>
  <ellipse class="tree2" cx="564" cy="679.94" fill="#000000" id="svg_58" rx="20" ry="20" stroke="#000" transform="matrix(1 0 0 1 0 0)"/>
  <rect fill="#487d8f" height="40" id="svg_59" stroke="#000" width="630.57" x="405.5" y="775.6"/>
  <rect fill="#5b8b95" height="48" id="svg_60" stroke="#000" width="661.71" x="348" y="751.94"/>
  <ellipse cx="344" cy="658.84" fill="#a5e306" id="svg_78" rx="44" ry="44" stroke="#000"/>
  <rect fill="#8bb8be" height="50" id="svg_61" stroke="#000" width="628.86" x="318" y="707.94"/>
  <rect fill="#a5e306" height="30" id="svg_62" stroke="#000" width="614" x="294" y="679.94"/>
  <rect fill="#a5e306" height="50" id="svg_63" stroke="#000" width="100" x="394" y="679.94"/>
  <rect fill="#a5e306" height="50" id="svg_64" stroke="#000" width="120" x="634" y="679.94"/>
  <rect fill="#a5e306" height="50" id="svg_65" stroke="#000" transform="rotate(30 973.964 747.932)" width="179.96" x="883.98" y="722.93"/>
  <rect fill="#a5e306" height="28" id="svg_88" stroke="#000" width="156.52" x="1084.82" y="1060.74"/>
  <rect fill="#487d8f" height="30" id="svg_96" stroke="#000" width="454" x="1842.9" y="1087.18"/>
  <rect fill="#487d8f" height="30" id="svg_97" stroke="#000" width="304" x="1922.9" y="1109.18"/>
  <rect fill="#a5e306" height="40" id="svg_101" stroke="#000" width="222.52" x="1931.39" y="1030.74"/>
  <rect fill="#5b8b95" height="30" id="svg_102" stroke="#000" width="78.29" x="2104.61" y="1057.18"/>
  <rect fill="#a5e306" height="30" id="svg_104" stroke="#000" width="235.71" x="1634.32" y="978.21"/>
  <rect fill="#a5e306" height="40" id="svg_105" stroke="#000" width="100" x="1615.38" y="978.21"/>
  <rect fill="#a5e306" height="50" id="svg_107" stroke="#000" width="70" x="1768.04" y="978.21"/>
  <rect fill="#a5e306" height="28" id="svg_108" stroke="#000" width="94.52" x="2238.83" y="1058.74"/>
  <rect fill="#a5e306" height="23.53" id="svg_110" stroke="#000" transform="rotate(17 2197.34 1058.54)" width="100.63" x="2147.03" y="1046.78"/>
  <rect fill="#5b8b95" height="30" id="svg_8" stroke="#000" width="1018.28" x="1224.61" y="1067.18"/>
  <rect fill="#487d8f" height="22" id="svg_119" stroke="#000" width="52" x="2379.64" y="558.58"/>
  <rect fill="#a5e306" height="30" id="svg_120" stroke="#000" width="64" x="2371.97" y="544.58"/>
  <rect fill="#5b8b95" height="40" id="svg_92" stroke="#000" width="589.71" x="2528" y="1335.94"/>
  <rect fill="#5b8b95" height="43" id="svg_76" stroke="#000" width="563.71" x="2480" y="1300.94"/>
  <rect fill="#5b8b95" height="40" id="svg_69" stroke="#000" width="545.71" x="2442" y="1277.94"/>
  <rect fill="#8bb8be" height="50" id="svg_70" stroke="#000" width="546.86" x="2406" y="1245.94"/>
  <rect fill="#487d8f" height="32" id="svg_75" stroke="#000" transform="rotate(30 2421.43 1298.74)" width="263.55" x="2289.65" y="1282.74"/>
  <ellipse class="grass1" cx="2533.36" cy="1220.38" fill="#000000" id="svg_66" rx="20" ry="20" stroke="#000"/>
  <ellipse class="tree3" cx="2750.92" cy="1217.94" fill="#000000" id="svg_67" rx="20" ry="20" stroke="#000" transform="matrix(1 0 0 1 0 0)"/>
  <rect fill="#a5e306" height="30" id="svg_71" stroke="#000" width="614" x="2298" y="1217.94"/>
  <rect fill="#a5e306" height="50" id="svg_72" stroke="#000" width="100" x="2364" y="1217.94"/>
  <rect fill="#a5e306" height="50" id="svg_73" stroke="#000" width="120" x="2638" y="1217.94"/>
  <rect fill="#a5e306" height="35.07" id="svg_74" stroke="#000" transform="rotate(30 3020.42 1300.67)" width="264.78" x="2888.03" y="1283.13"/>
 </g>
</svg>