<?xml version="1.0"?>
<svg width="2000" height="1000" xmlns="http://www.w3.org/2000/svg" xmlns:svg="http://www.w3.org/2000/svg">
 <title>course1</title>
 <g class="layer">
  <title>Easy As Pie, 5</title>
  <ellipse class="grass1" cx="650" cy="670" fill="#000000" id="svg_5" rx="20" ry="20" stroke="#000" transform="matrix(1 0 0 1 0 0)"/>
  <ellipse class="tree1" cx="470" cy="670" fill="#000000" id="svg_3" rx="20" ry="20" stroke="#000" transform="matrix(1 0 0 1 0 0)"/>
  <rect fill="#487d8f" height="30" id="svg_34" stroke="#000" width="270" x="780" y="670"/>
  <rect fill="#487d8f" height="40" id="svg_24" stroke="#000" width="750" x="300" y="790"/>
  <rect fill="#5b8b95" height="40" id="svg_23" stroke="#000" width="1580" x="200" y="750"/>
  <ellipse cx="300" cy="570" fill="#00ff00" id="svg_16" rx="20" ry="20" stroke="#000"/>
  <ellipse cx="1700" cy="580" fill="#ff0000" id="svg_17" rx="20" ry="20" stroke="#000" transform="matrix(1 0 0 1 0 0)"/>
  <rect fill="#8bb8be" height="50" id="svg_10" stroke="#000" transform="matrix(1 0 0 1 0 0)" width="1640" x="200" y="700"/>
  <rect fill="#a5e306" height="30" id="svg_9" stroke="#000" transform="matrix(1 0 0 1 0 0)" width="580" x="200" y="670"/>
  <rect fill="#5b8b95" height="38" id="svg_11" opacity="0.9" stroke="#000" width="40" x="256.88" y="33"/>
  <rect fill="#487d8f" height="37" id="svg_15" opacity="0.9" stroke="#000" width="38" x="308.88" y="34"/>
  <rect fill="#8bb8be" height="250" id="svg_19" stroke="#000" width="40" x="160" y="500"/>
  <rect fill="#8bb8be" height="550" id="svg_20" stroke="#000" transform="matrix(1 0 0 1 0 0)" width="40" x="1840" y="200"/>
  <rect fill="#8bb8be" height="36" id="svg_21" opacity="0.9" stroke="#000" width="40" x="202.88" y="34"/>
  <rect fill="#a5e306" height="38" id="svg_22" opacity="0.9" stroke="#000" width="38" x="360.32" y="33.71"/>
  <rect fill="#a5e306" height="50" id="svg_35" stroke="#000" width="100" x="300" y="670"/>
  <rect fill="#a8cbcc" height="39" id="svg_1" opacity="0.9" stroke="#000" width="41" x="154" y="34"/>
  <rect fill="#487d8f" height="40" id="svg_4" stroke="#000" width="490" x="1200" y="790"/>
  <rect fill="#5b8b95" height="60" id="svg_7" stroke="#000" width="530" x="820" y="750"/>
  <rect fill="#5b8b95" height="30" id="svg_8" stroke="#000" width="310" x="770" y="640"/>
  <rect fill="#8bb8be" height="30" id="svg_12" stroke="#000" width="370" x="740" y="610"/>
  <rect fill="#a5e306" height="30" id="svg_13" stroke="#000" width="430" x="720" y="580"/>
  <rect fill="#a5e306" height="30" id="svg_14" stroke="#000" transform="matrix(1 0 0 1 0 0)" width="530" x="1050" y="670"/>
  <rect fill="#a5e306" height="50" id="svg_26" stroke="#000" width="120" x="540" y="670"/>
  <rect fill="#a5e306" height="40" id="svg_38" stroke="#000" width="120" x="1150" y="670"/>
  <rect fill="#a5e306" height="60" id="svg_39" stroke="#000" width="100" x="1380" y="670"/>
  <rect fill="#487d8f" height="30" id="svg_40" stroke="#000" transform="matrix(1 0 0 1 0 0)" width="270" x="1570" y="670"/>
  <rect fill="#5b8b95" height="30" id="svg_41" stroke="#000" transform="matrix(1 0 0 1 0 0)" width="310" x="1530" y="640"/>
  <rect fill="#8bb8be" height="30" id="svg_42" stroke="#000" transform="matrix(1 0 0 1 0 0)" width="330" x="1510" y="610"/>
  <rect fill="#a5e306" height="30" id="svg_43" stroke="#000" transform="matrix(1 0 0 1 0 0)" width="370" x="1470" y="580"/>
  <rect fill="#a5e306" height="40" id="svg_44" stroke="#000" width="100" x="810" y="580"/>
  <rect fill="#a5e306" height="50" id="svg_45" stroke="#000" width="70" x="1010" y="580"/>
  <rect fill="#a5e306" height="50" id="svg_46" stroke="#000" width="70" x="1550" y="580"/>
  <rect fill="#a5e306" height="50" id="svg_47" stroke="#000" width="70" x="1720" y="580"/>
  <ellipse class="tree1" cx="1010" cy="580" fill="#000000" id="svg_2" rx="20" ry="20" stroke="#000" transform="matrix(1 0 0 1 0 0)"/>
  <ellipse class="grass2" cx="1340" cy="670" fill="#000000" id="svg_6" rx="20" ry="20" stroke="#000"/>
  <ellipse class="grass2" cx="1580" cy="580" fill="#000000" id="svg_18" rx="20" ry="20" stroke="#000"/>
  <rect fill="#a8cbcc" height="40" id="svg_28" stroke="#000" transform="matrix(1 0 0 1 0 0)" width="60" x="1830" y="170"/>
  <rect fill="#a5e306" height="30" id="svg_27" stroke="#000" width="80" x="1820" y="160"/>
  <rect fill="#a8cbcc" height="40" id="svg_29" stroke="#000" transform="matrix(1 0 0 1 0 0)" width="60" x="150" y="460"/>
  <rect fill="#a5e306" height="30" id="svg_25" stroke="#000" transform="matrix(1 0 0 1 0 0)" width="80" x="140" y="450"/>
  <rect class="pin" fill="#0000ff" height="20" id="svg_37" stroke="#000" transform="matrix(1 0 0 1 0 0)" width="130" x="860" y="470"/>
  <rect class="rotate-1ss" fill="#0000ff" height="20" id="svg_48" stroke="#000" width="130" x="540" y="490"/>
  <rect class="down-100-1" fill="#0000ff" height="90" id="svg_49" stroke="#000" transform="matrix(1 0 0 1 0 0)" width="20" x="460" y="470"/>
 </g>
</svg>