<?xml version="1.0"?>
<svg width="2000.0000000000005" height="1364" xmlns="http://www.w3.org/2000/svg" xmlns:svg="http://www.w3.org/2000/svg">
 <title>course1</title>
 <g class="layer">
  <title>No Hope, 5</title>
  <ellipse cx="1364.38" cy="1139.38" fill="#8bb8be" id="svg_54" rx="43.85" ry="43.85" stroke="#000"/>
  <rect fill="#8bb8be" height="30" id="svg_57" stroke="#000" width="295.38" x="1071.93" y="1122.58"/>
  <rect fill="#5b8b95" height="40.77" id="svg_56" stroke="#000" width="297.5" x="1071.93" y="1143.35"/>
  <rect fill="#8bb8be" height="725" id="svg_20" stroke="#000" width="40" x="1035" y="474.12"/>
  <ellipse cx="655.96" cy="1139.38" fill="#8bb8be" id="svg_53" rx="43.85" ry="43.85" stroke="#000"/>
  <ellipse cx="210.77" cy="505.7" fill="#ff7f00" id="svg_51" rx="35.38" ry="35.38" stroke="#000"/>
  <rect fill="#ff7f00" height="76.03" id="svg_52" stroke="#000" width="70.77" x="175.38" y="502.26"/>
  <ellipse cx="1593.85" cy="767.23" fill="#ff7f00" id="svg_49" rx="60" ry="60" stroke="#000"/>
  <rect fill="#ff7f00" height="204.62" id="svg_50" stroke="#000" width="118.46" x="1533.85" y="762.62"/>
  <ellipse cx="1412.32" cy="976.68" fill="#8bb8be" id="svg_48" rx="24.74" ry="24.74" stroke="#000"/>
  <ellipse cx="662.85" cy="599.27" fill="#8bb8be" id="svg_41" rx="24.74" ry="24.74" stroke="#000"/>
  <ellipse class="grass2" cx="1507.5" cy="953.93" fill="#000000" id="svg_18" rx="20" ry="20" stroke="#000"/>
  <rect fill="#8bb8be" height="40" id="svg_34" stroke="#000" width="342" x="1405.5" y="961.93"/>
  <rect fill="#487d8f" height="25" id="svg_32" stroke="#000" width="52.5" x="83.16" y="631.62"/>
  <ellipse class="grass2" cx="897.5" cy="1094.12" fill="#000000" id="svg_2" rx="20" ry="20" stroke="#000"/>
  <rect fill="#5b8b95" height="40.77" id="svg_8" stroke="#000" width="377.5" x="657.5" y="1143.35"/>
  <ellipse class="grass1" cx="537.5" cy="1174.12" fill="#000000" id="svg_5" rx="20" ry="20" stroke="#000"/>
  <ellipse class="tree1" cx="357.5" cy="1174.12" fill="#000000" id="svg_3" rx="20" ry="20" stroke="#000"/>
  <rect fill="#487d8f" height="40" id="svg_24" stroke="#000" width="750" x="187.5" y="1294.12"/>
  <rect fill="#5b8b95" height="40" id="svg_23" stroke="#000" width="1580" x="87.5" y="1254.12"/>
  <ellipse cx="275.19" cy="1027.97" fill="#00ff00" id="svg_16" rx="20" ry="20" stroke="#000"/>
  <ellipse cx="1567.19" cy="1162.32" fill="#ff0000" id="svg_17" rx="20" ry="20" stroke="#000"/>
  <rect fill="#8bb8be" height="50" id="svg_10" stroke="#000" width="1640" x="87.5" y="1204.12"/>
  <rect fill="#a5e306" height="30" id="svg_9" stroke="#000" width="1626.5" x="87.5" y="1174.12"/>
  <rect fill="#5b8b95" height="38" id="svg_11" opacity="0.9" stroke="#000" width="40" x="175.88" y="34"/>
  <rect fill="#487d8f" height="37" id="svg_15" opacity="0.9" stroke="#000" width="38" x="225.88" y="34"/>
  <rect fill="#8bb8be" height="597.5" id="svg_19" stroke="#000" width="40" x="88.16" y="656.62"/>
  <rect fill="#8bb8be" height="36" id="svg_21" opacity="0.9" stroke="#000" width="40" x="125.88" y="34"/>
  <rect fill="#a5e306" height="38" id="svg_22" opacity="0.9" stroke="#000" width="38" x="269.32" y="32.71"/>
  <rect fill="#a5e306" height="50" id="svg_35" stroke="#000" width="100" x="187.5" y="1174.12"/>
  <rect fill="#a8cbcc" height="39" id="svg_1" opacity="0.9" stroke="#000" width="41" x="78" y="32"/>
  <rect fill="#487d8f" height="40" id="svg_4" stroke="#000" width="490" x="1087.5" y="1294.12"/>
  <rect fill="#5b8b95" height="60" id="svg_7" stroke="#000" width="530" x="707.5" y="1254.12"/>
  <rect fill="#8bb8be" height="30" id="svg_12" stroke="#000" width="378.46" x="657.5" y="1122.58"/>
  <rect fill="#a5e306" height="30" id="svg_13" stroke="#000" width="374.42" x="660" y="1094.12"/>
  <rect fill="#a5e306" height="50" id="svg_26" stroke="#000" width="120" x="427.5" y="1174.12"/>
  <rect fill="#a5e306" height="40" id="svg_38" stroke="#000" width="120" x="1037.5" y="1174.12"/>
  <rect fill="#a5e306" height="60" id="svg_39" stroke="#000" width="100" x="1267.5" y="1174.12"/>
  <rect fill="#a5e306" height="32.11" id="svg_43" stroke="#000" width="361.58" x="1405.92" y="951.82"/>
  <rect fill="#a5e306" height="40" id="svg_44" stroke="#000" width="100" x="697.5" y="1094.12"/>
  <rect fill="#a5e306" height="50" id="svg_45" stroke="#000" width="70" x="897.5" y="1094.12"/>
  <rect fill="#a5e306" height="50" id="svg_46" stroke="#000" width="70" x="1478.55" y="951.82"/>
  <rect fill="#a8cbcc" height="40" id="svg_28" stroke="#000" width="60" x="1025" y="444.12"/>
  <rect fill="#a5e306" height="30" id="svg_27" stroke="#000" width="80" x="1015" y="434.12"/>
  <rect fill="#a5e306" height="30" id="svg_25" stroke="#000" width="80" x="68.16" y="616.78"/>
  <rect fill="#ff7f00" height="38" id="svg_30" opacity="0.9" stroke="#000" width="38" x="316.5" y="32.5"/>
  <rect fill="#f7ba3e" height="38" id="svg_159" opacity="0.9" stroke="#000" width="38" x="390.5" y="31.5"/>
  <text fill="#000000" font-family="Serif" font-size="24" id="svg_160" stroke="#000" stroke-width="0" text-anchor="middle" x="407" xml:space="preserve" y="25">Sand</text>
  <rect fill="#0000ff" height="38" id="svg_161" opacity="0.9" stroke="#000" width="38" x="484.5" y="30.5"/>
  <text fill="#000000" font-family="Serif" font-size="24" id="svg_162" stroke="#000" stroke-width="0" text-anchor="middle" x="498" xml:space="preserve" y="24.5">Spinner</text>
  <rect fill="#00ffff" height="38" id="svg_164" opacity="0.9" stroke="#000" width="38" x="579.5" y="32.5"/>
  <text fill="#000000" font-family="Serif" font-size="24" id="svg_165" stroke="#000" stroke-width="0" text-anchor="middle" x="593.01" xml:space="preserve" y="24.5">Water</text>
  <rect fill="#ff00ff" height="38" id="svg_166" opacity="0.9" stroke="#000" width="38" x="659.5" y="30.5"/>
  <text fill="#000000" font-family="Serif" font-size="24" id="svg_167" stroke="#000" stroke-width="0" text-anchor="middle" x="676.01" xml:space="preserve" y="26.5">Wood</text>
  <rect fill="#ffff00" height="38" id="svg_168" opacity="0.9" stroke="#000" width="38" x="733.5" y="32.5"/>
  <text fill="#000000" font-family="Serif" font-size="24" id="svg_169" stroke="#000" stroke-width="0" text-anchor="middle" x="752" xml:space="preserve" y="25.5">Bouncer</text>
  <rect fill="#8bb8be" height="50" id="svg_31" stroke="#000" width="592.5" x="67.6" y="574.12"/>
  <rect fill="#8bb8be" height="235.71" id="svg_37" stroke="#000" width="40" x="1688.47" y="1016.41"/>
  <rect fill="#487d8f" height="25" id="svg_36" stroke="#000" width="52.5" x="1683.47" y="995.29"/>
  <rect fill="#a5e306" height="50" id="svg_47" stroke="#000" width="70" x="1648.55" y="952.88"/>
  <ellipse class="tree3" cx="1311.93" cy="1094.12" fill="#000000" id="svg_55" rx="20" ry="20" stroke="#000" transform="matrix(1 0 0 1 0 0)"/>
  <rect fill="#a5e306" height="30" id="svg_58" stroke="#000" width="274.42" x="1074.43" y="1094.12"/>
  <rect fill="#a5e306" height="40" id="svg_59" stroke="#000" width="100" x="1111.93" y="1094.12"/>
  <rect fill="#a5e306" height="50" id="svg_60" stroke="#000" width="57.69" x="1311.93" y="1094.12"/>
 </g>
</svg>