<svg width="2000.0000000000002" height="1364" xmlns="http://www.w3.org/2000/svg">
 <title>course1</title>

 <g class="layer">
  <title>Easy As Pie, 4</title>
  <ellipse stroke="#000" ry="43.84616" rx="43.84616" id="svg_54" cy="1139.38419" cx="1364.38121" fill="#8bb8be"/>
  <rect stroke="#000" y="1122.58407" x="1071.9325" width="295.38462" id="svg_57" height="30" fill="#8bb8be"/>
  <rect stroke="#000" y="1143.35329" x="1071.93252" width="297.49997" id="svg_56" height="40.76923" fill="#5b8b95"/>
  <rect stroke="#000" y="474.1226" x="1035.00021" width="40" id="svg_20" height="724.99996" fill="#8bb8be"/>
  <ellipse stroke="#000" ry="43.84616" rx="43.84616" id="svg_53" cy="1139.38419" cx="655.9645" fill="#8bb8be"/>
  <ellipse stroke="#000" ry="35.38462" rx="35.38462" id="svg_51" cy="561.69189" cx="210.76926" fill="#ff7f00"/>
  <rect stroke="#000" id="svg_52" height="47.69231" width="70.76923" y="558.25563" x="175.38464" fill="#ff7f00"/>
  <ellipse ry="60" rx="60" id="svg_49" cy="767.23081" cx="1593.84617" stroke="#000" fill="#ff7f00"/>
  <rect stroke="#000" id="svg_50" height="204.61539" width="118.46154" y="762.61543" x="1533.84617" fill="#ff7f00"/>
  <ellipse stroke="#000" ry="24.73694" rx="24.73694" id="svg_48" cy="976.67629" cx="1412.32128" fill="#8bb8be"/>
  <ellipse stroke="#000" ry="24.73694" rx="24.73694" id="svg_41" cy="599.26738" cx="662.84759" fill="#8bb8be"/>
  <ellipse stroke="#000" ry="20" rx="20" id="svg_18" fill="#000000" cy="953.92875" cx="1507.50016" class="grass2"/>
  <rect stroke="#000" y="961.92837" x="1405.50441" width="341.99574" id="svg_34" height="39.99997" fill="#8bb8be"/>
  <rect stroke="#000" y="631.62273" x="83.15675" width="52.5002" id="svg_32" height="25" fill="#487d8f"/>
  <ellipse stroke="#000" ry="20" rx="20" id="svg_2" fill="#000000" cy="1094.12253" cx="897.50003" class="tree1"/>
  <rect stroke="#000" y="1143.35329" x="657.50003" width="377.49997" id="svg_8" height="40.76923" fill="#5b8b95"/>
  <ellipse stroke="#000" ry="20" rx="20" id="svg_5" fill="#000000" cy="1174.12254" cx="537.50003" class="grass1"/>
  <ellipse stroke="#000" ry="20" rx="20" id="svg_3" fill="#000000" cy="1174.12254" cx="357.50003" class="tree1"/>
  <rect y="1294.12254" x="187.50003" width="750" stroke="#000" id="svg_24" height="40" fill="#487d8f"/>
  <rect y="1254.12254" x="87.50003" width="1580" stroke="#000" id="svg_23" height="40" fill="#5b8b95"/>
  <ellipse stroke="#000" ry="20" rx="20" id="svg_16" fill="#00ff00" cy="1027.96869" cx="275.19234"/>
  <ellipse stroke="#000" ry="20" rx="20" id="svg_17" fill="#ff0000" cy="1162.32429" cx="1567.18712"/>
  <rect y="1204.12254" x="87.50003" width="1640" stroke="#000" id="svg_10" height="50" fill="#8bb8be"/>
  <rect stroke="#000" y="1174.12254" x="87.50003" width="1626.50053" id="svg_9" height="30" fill="#a5e306"/>
  <rect y="34" x="175.88" width="40" stroke="#000" opacity="0.9" id="svg_11" height="38" fill="#5b8b95"/>
  <rect y="34" x="225.88" width="38" stroke="#000" opacity="0.9" id="svg_15" height="37" fill="#487d8f"/>
  <rect stroke="#000" y="656.6226" x="88.15671" width="40" id="svg_19" height="597.49991" fill="#8bb8be"/>
  <rect y="34" x="125.88" width="40" stroke="#000" opacity="0.9" id="svg_21" height="36" fill="#8bb8be"/>
  <rect y="32.71" x="269.32" width="38" stroke="#000" opacity="0.9" id="svg_22" height="38" fill="#a5e306"/>
  <rect y="1174.12254" x="187.50003" width="100" stroke="#000" id="svg_35" height="50" fill="#a5e306"/>
  <rect y="32" x="78" width="41" stroke="#000" opacity="0.9" id="svg_1" height="39" fill="#a8cbcc"/>
  <rect y="1294.12254" x="1087.50003" width="490" stroke="#000" id="svg_4" height="40" fill="#487d8f"/>
  <rect y="1254.12254" x="707.50003" width="530" stroke="#000" id="svg_7" height="60" fill="#5b8b95"/>
  <rect stroke="#000" y="1122.58407" x="657.50001" width="378.46155" id="svg_12" height="30" fill="#8bb8be"/>
  <rect stroke="#000" y="1094.12253" x="660" width="374.4231" id="svg_13" height="30" fill="#a5e306"/>
  <rect y="1174.12254" x="427.50003" width="120" stroke="#000" id="svg_26" height="50" fill="#a5e306"/>
  <rect y="1174.12254" x="1037.50003" width="120" stroke="#000" id="svg_38" height="40" fill="#a5e306"/>
  <rect y="1174.12254" x="1267.50003" width="100" stroke="#000" id="svg_39" height="60" fill="#a5e306"/>
  <rect stroke="#000" y="951.82348" x="1405.92119" width="361.57897" id="svg_43" height="32.10526" fill="#a5e306"/>
  <rect y="1094.12253" x="697.50003" width="100" stroke="#000" id="svg_44" height="40" fill="#a5e306"/>
  <rect y="1094.12253" x="897.50003" width="70" stroke="#000" id="svg_45" height="50" fill="#a5e306"/>
  <rect y="951.82348" x="1478.5528" width="70" stroke="#000" id="svg_46" height="50" fill="#a5e306"/>
  <rect y="444.1226" x="1025.00021" width="60" stroke="#000" id="svg_28" height="40" fill="#a8cbcc"/>
  <rect y="434.1226" x="1015.00021" width="80" stroke="#000" id="svg_27" height="30" fill="#a5e306"/>
  <rect y="616.78007" x="68.15671" width="80" stroke="#000" id="svg_25" height="30" fill="#a5e306"/>
  <rect y="32.5" x="316.5" width="38" stroke="#000" opacity="0.9" id="svg_30" height="38" fill="#ff7f00"/>
  <rect y="31.5" x="390.5" width="38" stroke="#000" opacity="0.9" id="svg_159" height="38" fill="#f7ba3e"/>
  <text y="25" xml:space="preserve" x="407" text-anchor="middle" stroke-width="0" stroke="#000" id="svg_160" font-size="24" font-family="Serif" fill="#000000">Sand</text>
  <rect y="30.5" x="484.5" width="38" stroke="#000" opacity="0.9" id="svg_161" height="38" fill="#0000ff"/>
  <text y="24.5" xml:space="preserve" x="498" text-anchor="middle" stroke-width="0" stroke="#000" id="svg_162" font-size="24" font-family="Serif" fill="#000000">Spinner</text>
  <rect y="32.5" x="579.5" width="38" stroke="#000" opacity="0.9" id="svg_164" height="38" fill="#00ffff"/>
  <text y="24.5" xml:space="preserve" x="593.01" text-anchor="middle" stroke-width="0" stroke="#000" id="svg_165" font-size="24" font-family="Serif" fill="#000000">Water</text>
  <rect y="30.5" x="659.5" width="38" stroke="#000" opacity="0.9" id="svg_166" height="38" fill="#ff00ff"/>
  <text y="26.5" xml:space="preserve" x="676.01" text-anchor="middle" stroke-width="0" stroke="#000" id="svg_167" font-size="24" font-family="Serif" fill="#000000">Wood</text>
  <rect y="32.5" x="733.5" width="38" stroke="#000" opacity="0.9" id="svg_168" height="38" fill="#ffff00"/>
  <text y="25.5" xml:space="preserve" x="752" text-anchor="middle" stroke-width="0" stroke="#000" id="svg_169" font-size="24" font-family="Serif" fill="#000000">Bouncer</text>
  <rect stroke="#000" y="574.12272" x="67.59605" width="592.5003" id="svg_31" height="50" fill="#8bb8be"/>
  <rect stroke="#000" y="1016.41336" x="1688.46563" width="40" id="svg_37" height="235.70914" fill="#8bb8be"/>
  <rect stroke="#000" y="995.29432" x="1683.46568" width="52.5002" id="svg_36" height="25" fill="#487d8f"/>
  <rect y="952.87611" x="1648.5528" width="70" stroke="#000" id="svg_47" height="50" fill="#a5e306"/>
  <ellipse stroke="#000" ry="20" rx="20" id="svg_55" fill="#000000" cy="1094.12253" cx="1311.93253" class="tree1"/>
  <rect stroke="#000" y="1094.12253" x="1074.43249" width="274.42309" id="svg_58" height="30" fill="#a5e306"/>
  <rect y="1094.12253" x="1111.93253" width="100" stroke="#000" id="svg_59" height="40" fill="#a5e306"/>
  <rect stroke="#000" y="1094.12253" x="1311.93252" width="57.69231" id="svg_60" height="50" fill="#a5e306"/>
 </g>
</svg>