<?xml version="1.0"?>
<svg width="2000" height="1000" xmlns="http://www.w3.org/2000/svg" xmlns:svg="http://www.w3.org/2000/svg">
 <title>course1</title>
 <g class="layer">
  <title>Next Up, 4</title>
  <ellipse class="tree3" cx="1200" cy="660" fill="#000000" id="svg_47" rx="20" ry="20" stroke="#000"/>
  <ellipse class="grass1" cx="860" cy="710" fill="#000000" id="svg_45" rx="20" ry="20" stroke="#000"/>
  <ellipse class="grass2" cx="490" cy="710" fill="#000000" id="svg_14" rx="20" ry="20" stroke="#000" transform="matrix(1 0 0 1 0 0)"/>
  <ellipse class="grass2" cx="870" cy="400" fill="#000000" id="svg_46" rx="20" ry="20" stroke="#000"/>
  <ellipse class="grass1" cx="610" cy="510" fill="#000000" id="svg_7" rx="20" ry="20" stroke="#000"/>
  <rect fill="#487d8f" height="20" id="svg_34" stroke="#000" width="40" x="590" y="570"/>
  <rect fill="#487d8f" height="18" id="svg_33" stroke="#000" width="27" x="391.88" y="435.27"/>
  <rect fill="#5b8b95" height="30" id="svg_32" stroke="#000" width="70" x="580" y="540"/>
  <rect fill="#5b8b95" height="29" id="svg_31" stroke="#000" width="51" x="379.88" y="410.27"/>
  <rect fill="#8bb8be" height="30" id="svg_30" stroke="#000" width="88" x="368.88" y="384.27"/>
  <rect fill="#487d8f" height="40" id="svg_24" stroke="#000" transform="matrix(1 0 0 1 0 0)" width="790" x="430" y="790"/>
  <rect fill="#5b8b95" height="40" id="svg_23" stroke="#000" transform="matrix(1 0 0 1 0 0)" width="940" x="330" y="760"/>
  <ellipse cx="810" cy="280" fill="#00ff00" id="svg_16" rx="20" ry="20" stroke="#000"/>
  <ellipse cx="399.88" cy="368.27" fill="#ff0000" id="svg_17" rx="15" ry="15" stroke="#000"/>
  <rect fill="#8bb8be" height="50" id="svg_10" stroke="#000" transform="matrix(1 0 0 1 0 0)" width="950" x="340" y="720"/>
  <rect fill="#a5e306" height="30" id="svg_9" stroke="#000" width="660" x="360" y="710"/>
  <rect fill="#5b8b95" height="38" id="svg_11" opacity="0.9" stroke="#000" width="40" x="498.88" y="869"/>
  <rect fill="#487d8f" height="37" id="svg_15" opacity="0.9" stroke="#000" width="38" x="550.88" y="870"/>
  <rect fill="#a5e306" height="37.66" id="svg_18" stroke="#000" transform="rotate(45 353.629 707.018)" width="69.6" x="318.83" y="688.19"/>
  <rect fill="#8bb8be" height="570" id="svg_19" stroke="#000" width="40" x="310" y="200"/>
  <rect fill="#8bb8be" height="400" id="svg_20" stroke="#000" width="40" x="690" y="200"/>
  <rect fill="#8bb8be" height="36" id="svg_21" opacity="0.9" stroke="#000" width="40" x="444.88" y="870"/>
  <rect fill="#a5e306" height="38" id="svg_22" opacity="0.9" stroke="#000" width="38" x="602.32" y="869.71"/>
  <rect fill="#8bb8be" height="50" id="svg_25" stroke="#000" transform="matrix(1 0 0 1 0 0)" width="340" x="350" y="200"/>
  <rect fill="#8bb8be" height="20" id="svg_27" stroke="#000" width="110" x="550" y="530"/>
  <rect fill="#a5e306" height="25" id="svg_28" stroke="#000" width="111" x="357.88" y="369.27"/>
  <rect fill="#a5e306" height="30" id="svg_29" stroke="#000" width="150" x="530" y="510"/>
  <rect fill="#a5e306" height="40" id="svg_35" stroke="#000" width="110" x="470" y="710"/>
  <rect fill="#a5e306" height="40" id="svg_36" stroke="#000" width="50" x="590" y="510"/>
  <rect fill="#a5e306" height="30" id="svg_37" stroke="#000" width="44" x="388.88" y="369.27"/>
  <rect fill="#a8cbcc" height="39" id="svg_1" opacity="0.9" stroke="#000" width="41" x="396" y="870"/>
  <rect fill="#a8cbcc" height="39" id="svg_2" stroke="#000" width="442" x="297" y="182"/>
  <rect fill="#a5e306" height="30.08" id="svg_5" stroke="#000" width="482.21" x="277.21" y="160.33"/>
  <rect fill="#a5e306" height="38.28" id="svg_6" stroke="#000" width="89.84" x="338.78" y="160.05"/>
  <rect fill="#a5e306" height="48.28" id="svg_3" stroke="#000" width="89.84" x="549.78" y="160"/>
  <rect fill="#a5e306" height="50" id="svg_4" stroke="#000" width="70" x="880" y="710"/>
  <rect fill="#a8cbcc" height="40" id="svg_8" stroke="#000" transform="matrix(1 0 0 1 0 0)" width="250" x="1020" y="690"/>
  <rect fill="#8bb8be" height="30" id="svg_12" stroke="#000" transform="matrix(1 0 0 1 0 0)" width="140" x="730" y="430"/>
  <rect fill="#a5e306" height="30" id="svg_13" stroke="#000" transform="matrix(1 0 0 1 0 0)" width="170" x="730" y="400"/>
  <rect fill="#5b8b95" height="20" id="svg_26" stroke="#000" transform="matrix(1 0 0 1 0 0)" width="100" x="730" y="460"/>
  <rect fill="#487d8f" height="20" id="svg_38" stroke="#000" width="80" x="730" y="480"/>
  <rect fill="#a5e306" height="30" id="svg_39" stroke="#000" transform="matrix(1 0 0 1 0 0)" width="270" x="1000" y="660"/>
  <rect fill="#8bb8be" height="400" id="svg_40" stroke="#000" transform="matrix(1 0 0 1 0 0)" width="40" x="1270" y="330"/>
  <rect fill="#a5e306" height="30" id="svg_41" stroke="#000" width="100" x="1240" y="280"/>
  <rect fill="#a8cbcc" height="30" id="svg_42" stroke="#000" transform="matrix(1 0 0 1 0 0)" width="80" x="1250" y="310"/>
  <rect fill="#a5e306" height="40" id="svg_43" stroke="#000" width="60" x="1130" y="660"/>
  <rect fill="#a5e306" height="40" id="svg_44" stroke="#000" width="60" x="760" y="400"/>
 </g>
</svg>