<?xml version="1.0"?>
<svg width="3181" height="1529" xmlns="http://www.w3.org/2000/svg" xmlns:svg="http://www.w3.org/2000/svg">
 <title>course1</title>
 <g class="layer">
  <title>Saving Grace, 5</title>
  <rect fill="#5b8b95" height="57" id="svg_193" stroke="#000" width="245.38" x="2424.66" y="478.94"/>
  <rect fill="#8bb8be" height="39.33" id="svg_37" stroke="#000" width="126.52" x="2423.38" y="476.61"/>
  <rect fill="#5b8b95" height="30.67" id="svg_172" stroke="#000" width="373.71" x="1808.33" y="499.28"/>
  <rect fill="#8bb8be" height="43.41" id="svg_173" stroke="#000" width="162.86" x="1863.05" y="459.94"/>
  <rect fill="#8bb8be" height="28.41" id="svg_36" stroke="#000" width="151.19" x="1893.1" y="474.94"/>
  <rect fill="#5b8b95" height="688.33" id="svg_34" stroke="#000" width="75" x="2947.83" y="12.17"/>
  <rect fill="#5b8b95" height="105" id="svg_33" stroke="#000" width="113.33" x="2909.5" y="597.17"/>
  <rect fill="#5b8b95" height="51.67" id="svg_32" stroke="#000" width="160" x="2862.83" y="650.5"/>
  <rect fill="#5b8b95" height="35" id="svg_29" stroke="#000" width="195" x="2827.83" y="688.83"/>
  <rect fill="#5b8b95" height="41.67" id="svg_25" stroke="#000" width="250" x="2772.83" y="705.5"/>
  <rect fill="#5b8b95" height="33" id="svg_171" stroke="#000" width="907.71" x="1774.39" y="525.61"/>
  <rect fill="#8bb8be" height="32" id="svg_116" stroke="#000" width="343.33" x="1024.74" y="714.45"/>
  <rect fill="#8bb8be" height="49.25" id="svg_231" stroke="#000" width="95.61" x="1134.04" y="691.2"/>
  <rect fill="#8bb8be" height="134" id="svg_202" stroke="#000" width="36" x="2636.34" y="858.05"/>
  <rect fill="#8bb8be" height="30" id="svg_42" stroke="#000" width="596" x="2079.87" y="928.07"/>
  <rect fill="#8bb8be" height="36.35" id="svg_70" stroke="#000" width="593.36" x="1191.4" y="395.59"/>
  <rect fill="#5b8b95" height="28" id="svg_69" stroke="#000" width="591.71" x="1136" y="429.94"/>
  <rect fill="#5b8b95" height="37" id="svg_76" stroke="#000" width="564.21" x="1100.39" y="452.94"/>
  <rect fill="#5b8b95" height="37" id="svg_4" stroke="#000" width="587.96" x="1045.39" y="476.69"/>
  <rect fill="#8bb8be" height="58" id="svg_195" stroke="#000" width="40.86" x="2597.05" y="345.94"/>
  <rect fill="#a5e306" height="24" id="svg_189" stroke="#000" width="62" x="2583.11" y="333.94"/>
  <rect fill="#8bb8be" height="56" id="svg_194" stroke="#000" width="214.86" x="2455.05" y="459.94"/>
  <rect fill="#8bb8be" height="94.67" id="svg_192" stroke="#000" width="98.86" x="2565.05" y="381.94"/>
  <rect fill="#5b8b95" height="62" id="svg_20" stroke="#000" width="298.71" x="2378" y="505.61"/>
  <rect fill="#5b8b95" height="40" id="svg_170" stroke="#000" width="1000.96" x="1704.75" y="547.94"/>
  <rect fill="#a5e306" height="29.69" id="svg_186" stroke="#000" transform="rotate(-30 2407.44 501.075)" width="165.04" x="2324.92" y="486.23"/>
  <rect fill="#a5e306" height="30" id="svg_104" stroke="#000" width="213.71" x="1204.33" y="746.21"/>
  <ellipse class="grass2" cx="1413.42" cy="739.21" fill="#000000" id="svg_2" rx="20" ry="20" stroke="#000" transform="matrix(1 0 0 1 0 0)"/>
  <rect fill="#a5e306" height="29.84" id="svg_157" stroke="#000" transform="rotate(25 1411.41 750.13)" width="169.5" x="1326.65" y="735.21"/>
  <rect fill="#8bb8be" height="62" id="svg_152" stroke="#000" width="142.15" x="1024.74" y="662.45"/>
  <rect fill="#8bb8be" height="68" id="svg_111" stroke="#000" width="480.86" x="1024.04" y="776.61"/>
  <rect fill="#8bb8be" height="400" id="svg_19" stroke="#000" width="40" x="2944.81" y="12.61"/>
  <rect fill="#487d8f" height="40" id="svg_17" stroke="#000" width="60" x="585.77" y="1239.72"/>
  <ellipse cx="2370.48" cy="893.84" fill="#ff0000" id="svg_56" rx="19" ry="19" stroke="#000"/>
  <ellipse class="grass1" cx="501.98" cy="476.61" fill="#000000" id="svg_5" rx="20" ry="20" stroke="#000"/>
  <ellipse class="tree1" cx="116.98" cy="418.61" fill="#000000" id="svg_3" rx="20" ry="20" stroke="#000"/>
  <rect fill="#487d8f" height="30" id="svg_89" stroke="#000" width="496" x="1024.89" y="877.18"/>
  <rect fill="#487d8f" height="28" id="svg_147" stroke="#000" width="52" x="481.64" y="586.58"/>
  <rect fill="#487d8f" height="40" id="svg_24" stroke="#000" width="348.57" x="133.41" y="572.27"/>
  <rect fill="#5b8b95" height="40" id="svg_23" stroke="#000" width="545.71" x="51.98" y="556.61"/>
  <ellipse cx="371.98" cy="370.61" fill="#00ff00" id="svg_16" rx="20" ry="20" stroke="#000"/>
  <rect fill="#8bb8be" height="50" id="svg_10" stroke="#000" width="562.86" x="51.98" y="506.61"/>
  <rect fill="#a5e306" height="56.2" id="svg_133" stroke="#000" transform="rotate(30 193.18 467.759)" width="125.39" x="130.48" y="439.66"/>
  <rect fill="#a5e306" height="70" id="svg_134" stroke="#000" width="98" x="54" y="413.94"/>
  <rect fill="#8bb8be" height="30.22" id="svg_135" stroke="#000" transform="rotate(39 101.734 481.651)" width="37.73" x="82.87" y="466.54"/>
  <rect fill="#a5e306" height="30" id="svg_9" stroke="#000" width="580" x="51.98" y="476.61"/>
  <rect fill="#5b8b95" height="38" id="svg_11" opacity="0.9" stroke="#000" width="40" x="175.88" y="34"/>
  <rect fill="#487d8f" height="37" id="svg_15" opacity="0.9" stroke="#000" width="38" x="225.88" y="34"/>
  <rect fill="#8bb8be" height="36" id="svg_21" opacity="0.9" stroke="#000" width="40" x="125.88" y="34"/>
  <rect fill="#a5e306" height="38" id="svg_22" opacity="0.9" stroke="#000" width="38" x="269.32" y="32.71"/>
  <rect fill="#a5e306" height="50" id="svg_35" stroke="#000" width="100" x="151.98" y="476.61"/>
  <rect fill="#a8cbcc" height="39" id="svg_1" opacity="0.9" stroke="#000" width="41" x="78" y="32"/>
  <rect fill="#a5e306" height="30" id="svg_158" stroke="#000" transform="rotate(25 1546.48 799.271)" width="70.43" x="1511.26" y="784.27"/>
  <rect fill="#a5e306" height="40" id="svg_109" stroke="#000" width="100.63" x="1421.57" y="770.93"/>
  <rect fill="#a5e306" height="50" id="svg_26" stroke="#000" width="120" x="391.98" y="476.61"/>
  <rect fill="#487d8f" height="32" id="svg_40" stroke="#000" width="456" x="2210.62" y="986.07"/>
  <rect fill="#5b8b95" height="46" id="svg_41" stroke="#000" width="502" x="2169.27" y="952.07"/>
  <rect fill="#a5e306" height="34.22" id="svg_90" stroke="#000" transform="rotate(-15 2119.34 926.848)" width="89.31" x="2074.69" y="909.74"/>
  <rect fill="#8bb8be" height="34" id="svg_31" stroke="#000" width="87.71" x="2549.03" y="933.78"/>
  <ellipse class="grass2" cx="2554.37" cy="892.07" fill="#000000" id="svg_18" rx="20" ry="20" stroke="#000"/>
  <rect fill="#a5e306" height="30" id="svg_43" stroke="#000" width="310" x="2362.39" y="898.07"/>
  <rect fill="#a5e306" height="54" id="svg_46" stroke="#000" width="70" x="2350.39" y="898.07"/>
  <rect fill="#a5e306" height="50" id="svg_47" stroke="#000" width="70" x="2468.39" y="898.07"/>
  <rect fill="#487d8f" height="22" id="svg_28" stroke="#000" width="52" x="2627.71" y="850.58"/>
  <rect fill="#a5e306" height="30" id="svg_27" stroke="#000" width="64" x="2624.03" y="836.58"/>
  <rect fill="#ff7f00" height="38" id="svg_30" opacity="0.9" stroke="#000" width="38" x="316.5" y="32.5"/>
  <rect fill="#f7ba3e" height="38" id="svg_159" opacity="0.9" stroke="#000" width="38" x="390.5" y="31.5"/>
  <text fill="#000000" font-family="Serif" font-size="24" id="svg_160" stroke="#000" stroke-width="0" text-anchor="middle" x="407" xml:space="preserve" y="25">Sand</text>
  <rect fill="#0000ff" height="38" id="svg_161" opacity="0.9" stroke="#000" width="38" x="484.5" y="30.5"/>
  <text fill="#000000" font-family="Serif" font-size="24" id="svg_162" stroke="#000" stroke-width="0" text-anchor="middle" x="498" xml:space="preserve" y="24.5">Spinner</text>
  <rect fill="#00ffff" height="38" id="svg_164" opacity="0.9" stroke="#000" width="38" x="579.5" y="32.5"/>
  <text fill="#000000" font-family="Serif" font-size="24" id="svg_165" stroke="#000" stroke-width="0" text-anchor="middle" x="593.01" xml:space="preserve" y="24.5">Water</text>
  <rect fill="#ff00ff" height="38" id="svg_166" opacity="0.9" stroke="#000" width="38" x="655.5" y="37.83"/>
  <text fill="#000000" font-family="Serif" font-size="24" id="svg_167" stroke="#000" stroke-width="0" text-anchor="middle" x="676.01" xml:space="preserve" y="26.5">Wood</text>
  <rect fill="#ffff00" height="38" id="svg_168" opacity="0.9" stroke="#000" width="38" x="729.5" y="35.39"/>
  <text fill="#000000" font-family="Serif" font-size="24" id="svg_169" stroke="#000" stroke-width="0" text-anchor="middle" x="752" xml:space="preserve" y="25.5">Bouncer</text>
  <rect fill="#a5e306" height="60.54" id="svg_14" stroke="#000" width="208.93" x="2157.14" y="898.76"/>
  <ellipse class="grass1" cx="994" cy="1159.94" fill="#000000" id="svg_57" rx="20" ry="20" stroke="#000"/>
  <ellipse class="tree2" cx="814" cy="1159.94" fill="#000000" id="svg_58" rx="20" ry="20" stroke="#000" transform="matrix(1 0 0 1 0 0)"/>
  <rect fill="#487d8f" height="40" id="svg_59" stroke="#000" width="630.57" x="655.5" y="1255.6"/>
  <rect fill="#5b8b95" height="48" id="svg_60" stroke="#000" width="661.71" x="598" y="1231.94"/>
  <ellipse cx="594" cy="1138.84" fill="#a5e306" id="svg_78" rx="44" ry="44" stroke="#000"/>
  <rect fill="#8bb8be" height="50" id="svg_61" stroke="#000" width="628.86" x="568" y="1187.94"/>
  <rect fill="#a5e306" height="30" id="svg_62" stroke="#000" width="614" x="544" y="1159.94"/>
  <rect fill="#a5e306" height="50" id="svg_63" stroke="#000" width="100" x="644" y="1159.94"/>
  <rect fill="#a5e306" height="50" id="svg_64" stroke="#000" width="120" x="884" y="1159.94"/>
  <rect fill="#a5e306" height="50" id="svg_65" stroke="#000" transform="rotate(30 1223.96 1227.93)" width="179.96" x="1133.98" y="1202.93"/>
  <rect fill="#487d8f" height="30" id="svg_96" stroke="#000" width="842" x="1024.9" y="855.18"/>
  <rect fill="#487d8f" height="30" id="svg_97" stroke="#000" width="304" x="1492.9" y="877.18"/>
  <rect fill="#a5e306" height="40" id="svg_101" stroke="#000" width="222.52" x="1501.39" y="798.74"/>
  <rect fill="#5b8b95" height="30" id="svg_102" stroke="#000" width="78.29" x="1674.62" y="825.18"/>
  <rect fill="#a5e306" height="28" id="svg_108" stroke="#000" width="94.52" x="1808.83" y="826.74"/>
  <rect fill="#a5e306" height="33.18" id="svg_110" stroke="#000" transform="rotate(17 1774.25 828.054)" width="116.93" x="1715.79" y="811.46"/>
  <rect fill="#5b8b95" height="30" id="svg_8" stroke="#000" width="788.28" x="1024.61" y="835.18"/>
  <ellipse class="grass1" cx="1555.12" cy="369.94" fill="#000000" id="svg_66" rx="20" ry="20" stroke="#000"/>
  <ellipse class="tree3" cx="1375.12" cy="369.94" fill="#000000" id="svg_67" rx="20" ry="20" stroke="#000" transform="matrix(1 0 0 1 0 0)"/>
  <rect fill="#a5e306" height="30" id="svg_71" stroke="#000" width="558" x="1244.48" y="365.94"/>
  <rect fill="#a5e306" height="35.07" id="svg_74" stroke="#000" transform="rotate(-25 1140.25 442.735)" width="257.98" x="1011.26" y="425.2"/>
  <rect fill="#8bb8be" height="228" id="svg_136" stroke="#000" width="36" x="490.34" y="602.05"/>
  <rect fill="#f7ba3e" height="56" id="svg_137" stroke="#000" width="262" x="525.82" y="766.09"/>
  <rect fill="#a5e306" height="72" id="svg_139" stroke="#000" width="52" x="484.48" y="754.27"/>
  <rect fill="#a5e306" height="72" id="svg_140" stroke="#000" width="52" x="788.56" y="754.27"/>
  <rect fill="#487d8f" height="30" id="svg_141" stroke="#000" width="344" x="489.36" y="861.7"/>
  <rect fill="#5b8b95" height="46" id="svg_142" stroke="#000" width="358" x="480.1" y="825.7"/>
  <rect fill="#8bb8be" height="30" id="svg_143" stroke="#000" width="360" x="479.93" y="817.7"/>
  <rect fill="#a5e306" height="30" id="svg_144" stroke="#000" width="358" x="482.51" y="800.27"/>
  <rect fill="#a5e306" height="42" id="svg_145" stroke="#000" width="172" x="648.92" y="800.27"/>
  <rect fill="#a5e306" height="50" id="svg_146" stroke="#000" width="58" x="480.48" y="800.27"/>
  <rect fill="#a5e306" height="27.65" id="svg_153" stroke="#000" width="102.19" x="1024.24" y="640.48"/>
  <rect fill="#a5e306" height="30" id="svg_156" stroke="#000" width="105.71" x="1234.71" y="702.63"/>
  <rect fill="#8bb8be" height="49.25" id="svg_12" stroke="#000" width="74.36" x="1175.28" y="708.7"/>
  <rect fill="#a5e306" height="30" id="svg_13" stroke="#000" width="157.71" x="1028.71" y="746.21"/>
  <rect fill="#a5e306" height="40" id="svg_44" stroke="#000" width="13.65" x="1024.11" y="746.21"/>
  <rect fill="#a5e306" height="50" id="svg_45" stroke="#000" width="70" x="1084.42" y="746.21"/>
  <rect fill="#a5e306" height="40" id="svg_105" stroke="#000" width="100" x="1185.38" y="746.21"/>
  <rect fill="#a5e306" height="46.67" id="svg_72" stroke="#000" width="100" x="1242.52" y="365.94"/>
  <rect fill="#a5e306" height="50" id="svg_73" stroke="#000" width="120" x="1445.12" y="367.94"/>
  <rect fill="#a5e306" height="32.28" id="svg_183" stroke="#000" transform="rotate(30 2196.21 517.826)" width="107.6" x="2142.41" y="501.69"/>
  <rect fill="#a5e306" height="36.67" id="svg_185" stroke="#000" width="110" x="2237.23" y="524.03"/>
  <ellipse class="grass1" cx="2483.11" cy="441.94" fill="#000000" id="svg_175" rx="20" ry="20" stroke="#000"/>
  <ellipse class="tree2" cx="2101.11" cy="483.94" fill="#000000" id="svg_176" rx="20" ry="20" stroke="#000" transform="matrix(1 0 0 1 0 0)"/>
  <rect fill="#a5e306" height="34" id="svg_177" stroke="#000" width="58" x="1918.48" y="430.44"/>
  <rect fill="#a5e306" height="35.07" id="svg_178" stroke="#000" transform="rotate(-25 1810.69 510.922)" width="272.16" x="1674.6" y="493.39"/>
  <rect fill="#a5e306" height="50" id="svg_179" stroke="#000" width="102.35" x="1571.23" y="797.94"/>
  <rect fill="#a5e306" height="30" id="svg_182" stroke="#000" transform="rotate(30 2020 472.704)" width="115.05" x="1962.48" y="457.7"/>
  <rect fill="#a5e306" height="36.47" id="svg_184" stroke="#000" width="100" x="2059.23" y="477.7"/>
  <rect fill="#a5e306" height="35.07" id="svg_188" stroke="#000" transform="rotate(-65 2564.79 411.979)" width="149.87" x="2489.86" y="394.44"/>
  <rect fill="#487d8f" height="22" id="svg_204" stroke="#000" width="52" x="479.65" y="600.58"/>
  <rect fill="#a5e306" height="17" id="svg_203" stroke="#000" width="64" x="473.97" y="599.58"/>
  <rect fill="#8bb8be" height="78.61" id="svg_205" stroke="#000" transform="rotate(5 2960.37 432.669)" width="40" x="2940.37" y="393.36"/>
  <rect fill="#8bb8be" height="106.22" id="svg_206" stroke="#000" transform="rotate(10 2950.08 504.805)" width="40" x="2930.08" y="451.69"/>
  <rect fill="#8bb8be" height="73.2" id="svg_207" stroke="#000" transform="rotate(15 2941.74 554.858)" width="40" x="2921.74" y="518.26"/>
  <rect fill="#8bb8be" height="43.81" id="svg_208" stroke="#000" transform="rotate(20 2935.49 577.048)" width="40" x="2915.49" y="555.14"/>
  <rect fill="#8bb8be" height="44.93" id="svg_209" stroke="#000" transform="rotate(25 2929.81 592.534)" width="40" x="2909.81" y="570.07"/>
  <rect fill="#8bb8be" height="40.42" id="svg_210" stroke="#000" transform="rotate(30 2918.88 614.662)" width="40" x="2898.88" y="594.45"/>
  <rect fill="#8bb8be" height="40.25" id="svg_212" stroke="#000" transform="rotate(40 2897.96 640.078)" width="40" x="2877.96" y="619.95"/>
  <rect fill="#8bb8be" height="40.25" id="svg_214" stroke="#000" transform="rotate(50 2873.96 664.078)" width="40" x="2853.96" y="643.95"/>
  <rect fill="#8bb8be" height="40.25" id="svg_215" stroke="#000" transform="rotate(55 2845.54 686.078)" width="40" x="2825.54" y="665.95"/>
  <rect fill="#8bb8be" height="40.25" id="svg_216" stroke="#000" transform="rotate(60 2834.4 696.078)" width="40" x="2814.4" y="675.95"/>
  <rect fill="#8bb8be" height="73.36" id="svg_217" stroke="#000" transform="rotate(65 2797.4 715.073)" width="40" x="2777.4" y="678.4"/>
  <rect fill="#a5e306" height="46.67" id="svg_187" stroke="#000" width="78.67" x="2465.11" y="441.94"/>
  <rect fill="#5b8b95" height="31.25" id="svg_7" stroke="#000" transform="rotate(-25 1724.44 446.545)" width="229.71" x="1609.59" y="430.92"/>
  <rect fill="#a5e306" height="30" id="svg_181" stroke="#000" transform="rotate(30 1815.09 389.387)" width="41.82" x="1794.18" y="374.39"/>
  <rect fill="#a5e306" height="30" id="svg_155" stroke="#000" transform="rotate(25 1188.37 686.004)" width="149.63" x="1113.55" y="671"/>
  <rect fill="#a5e306" height="130.25" id="svg_191" stroke="#000" width="42" x="2665.11" y="459.94"/>
  <rect fill="#a5e306" height="46.15" id="svg_190" stroke="#000" transform="rotate(65 2656.11 409.484)" width="139.21" x="2586.51" y="386.41"/>
 </g>
</svg>